<svg width="80" height="80" viewBox="0 0 80 80" fill="none" xmlns="http://www.w3.org/2000/svg">
<path d="M33.7508 15.8667C34.0558 16.2373 34.2427 16.691 34.2873 17.169C34.3319 17.647 34.2321 18.1273 34.0008 18.548C32.194 21.8653 31.2505 25.5836 31.2569 29.361C31.2569 41.9271 41.5011 52.1026 54.1266 52.1026C55.7736 52.1026 57.3768 51.9307 58.9175 51.6025C59.3897 51.5003 59.8817 51.5394 60.3319 51.715C60.7821 51.8906 61.1706 52.195 61.4488 52.5901C61.7425 53.0009 61.8923 53.4972 61.8748 54.0019C61.8573 54.5066 61.6734 54.9914 61.3519 55.3808C58.9008 58.3917 55.8087 60.8176 52.301 62.4817C48.7933 64.1458 44.9585 65.0061 41.0761 65C26.6692 65 15 53.3932 15 39.0926C15 28.3297 21.6065 19.0981 31.0132 15.1854C31.4817 14.9874 32.0019 14.9467 32.4956 15.0696C32.9892 15.1924 33.4297 15.4721 33.7508 15.8667ZM30.1819 19.0949C26.5649 21.0351 23.5411 23.919 21.4319 27.4402C19.3228 30.9613 18.207 34.9881 18.2033 39.0926C18.2033 51.6557 28.4506 61.8311 41.0761 61.8311C44.0995 61.8363 47.0939 61.2419 49.886 60.0821C52.6781 58.9223 55.2125 57.2203 57.3424 55.0746C56.2892 55.2058 55.2173 55.2714 54.1266 55.2714C39.7198 55.2714 28.0537 43.6647 28.0537 29.3641C28.0537 25.7171 28.81 22.2451 30.1819 19.0949Z" fill="#371ED3"/>
<path d="M30.1819 19.0949C26.5649 21.0351 23.5411 23.919 21.4319 27.4402C19.3228 30.9613 18.207 34.9881 18.2033 39.0926C18.2033 51.6557 28.4506 61.8311 41.0761 61.8311C44.0995 61.8363 47.0939 61.2419 49.886 60.0821C52.6781 58.9223 55.2125 57.2203 57.3424 55.0746C56.2892 55.2058 55.2173 55.2714 54.1266 55.2714C39.7198 55.2714 28.0537 43.6647 28.0537 29.3641C28.0537 25.7171 28.81 22.2451 30.1819 19.0949Z" fill="#371ED3"/>
<path d="M48.7302 24.8358C48.775 24.7005 48.8613 24.5827 48.9769 24.4992C49.0924 24.4157 49.2314 24.3708 49.3739 24.3708C49.5165 24.3708 49.6554 24.4157 49.771 24.4992C49.8866 24.5827 49.9729 24.7005 50.0177 24.8358L51.2271 28.4672C51.7678 30.086 53.0366 31.3548 54.6554 31.8955L58.2868 33.1049C58.4222 33.1497 58.5399 33.236 58.6234 33.3516C58.7069 33.4672 58.7518 33.6061 58.7518 33.7487C58.7518 33.8912 58.7069 34.0302 58.6234 34.1457C58.5399 34.2613 58.4222 34.3476 58.2868 34.3924L54.6554 35.6019C53.857 35.8679 53.1316 36.3162 52.5365 36.9112C51.9414 37.5063 51.4931 38.2317 51.2271 39.0301L50.0177 42.6615C49.9729 42.7969 49.8866 42.9146 49.771 42.9981C49.6554 43.0816 49.5165 43.1265 49.3739 43.1265C49.2314 43.1265 49.0924 43.0816 48.9769 42.9981C48.8613 42.9146 48.775 42.7969 48.7302 42.6615L47.5207 39.0301C47.2547 38.2317 46.8065 37.5063 46.2114 36.9112C45.6163 36.3162 44.8909 35.8679 44.0925 35.6019L40.4611 34.3924C40.3257 34.3476 40.208 34.2613 40.1245 34.1457C40.041 34.0302 39.9961 33.8912 39.9961 33.7487C39.9961 33.6061 40.041 33.4672 40.1245 33.3516C40.208 33.236 40.3257 33.1497 40.4611 33.1049L44.0925 31.8955C44.8909 31.6295 45.6163 31.1812 46.2114 30.5861C46.8065 29.9911 47.2547 29.2656 47.5207 28.4672L48.7302 24.8358ZM58.3212 15.3073C58.352 15.2183 58.4099 15.1411 58.4866 15.0865C58.5633 15.0319 58.6552 15.0026 58.7493 15.0026C58.8435 15.0026 58.9354 15.0319 59.0121 15.0865C59.0888 15.1411 59.1466 15.2183 59.1775 15.3073L59.9838 17.7261C60.3432 18.8074 61.1901 19.6543 62.2714 20.0137L64.6902 20.82C64.7792 20.8509 64.8564 20.9087 64.911 20.9854C64.9656 21.0621 64.9949 21.154 64.9949 21.2481C64.9949 21.3423 64.9656 21.4342 64.911 21.5109C64.8564 21.5876 64.7792 21.6454 64.6902 21.6763L62.2714 22.4826C61.7385 22.6598 61.2543 22.9589 60.8572 23.356C60.4601 23.7531 60.161 24.2373 59.9838 24.7702L59.1775 27.189C59.1466 27.278 59.0888 27.3552 59.0121 27.4098C58.9354 27.4644 58.8435 27.4937 58.7493 27.4937C58.6552 27.4937 58.5633 27.4644 58.4866 27.4098C58.4099 27.3552 58.352 27.278 58.3212 27.189L57.5149 24.7702C57.3376 24.2373 57.0386 23.7531 56.6415 23.356C56.2444 22.9589 55.7602 22.6598 55.2273 22.4826L52.8085 21.6763C52.7195 21.6454 52.6423 21.5876 52.5877 21.5109C52.5331 21.4342 52.5038 21.3423 52.5038 21.2481C52.5038 21.154 52.5331 21.0621 52.5877 20.9854C52.6423 20.9087 52.7195 20.8509 52.8085 20.82L55.2273 20.0137C56.3086 19.6543 57.1555 18.8074 57.5149 17.7261L58.3212 15.3104V15.3073Z" fill="#371ED3"/>
</svg>
