<svg width="182" height="60" viewBox="0 0 182 60" fill="none" xmlns="http://www.w3.org/2000/svg">
<path d="M166.781 0.000194999H14.4387C13.8834 0.000194999 13.3348 0.000194999 12.7809 0.00319499C12.3173 0.00619498 11.8574 0.01491 11.3893 0.0222449C10.3725 0.0340976 9.358 0.122709 8.35474 0.287309C7.35289 0.455492 6.38243 0.772566 5.47617 1.22781C4.57102 1.6869 3.74396 2.28344 3.02499 2.99579C2.30225 3.70614 1.69979 4.5272 1.24077 5.42742C0.780489 6.32584 0.461328 7.28858 0.294311 8.28239C0.125706 9.27494 0.0349787 10.2789 0.0229422 11.2854C0.00888915 11.7453 0.0074051 12.2067 0 12.6667V47.3379C0.0074051 47.8037 0.00888915 48.2549 0.0229422 48.7208C0.0349824 49.7272 0.12571 50.7311 0.294311 51.7236C0.460867 52.718 0.780047 53.6813 1.24077 54.5801C1.69958 55.4774 2.30212 56.2951 3.02499 57.0015C3.74123 57.717 4.56883 58.314 5.47617 58.7696C6.38242 59.226 7.35278 59.545 8.35474 59.7158C9.35817 59.879 10.3725 59.9677 11.3893 59.9809C11.8574 59.9911 12.3173 59.997 12.7809 59.997C13.3347 60 13.8834 60 14.4387 60H166.781C167.325 60 167.878 60 168.423 59.997C168.884 59.997 169.357 59.9911 169.819 59.9809C170.833 59.9684 171.846 59.8797 172.847 59.7158C173.852 59.5438 174.826 59.2249 175.737 58.7696C176.643 58.3137 177.47 57.7168 178.186 57.0015C178.907 56.2923 179.511 55.4752 179.975 54.5801C180.432 53.6807 180.749 52.7174 180.913 51.7236C181.082 50.731 181.176 49.7273 181.194 48.7208C181.2 48.2549 181.2 47.8037 181.2 47.3379C181.212 46.793 181.212 46.251 181.212 45.6972V14.3043C181.212 13.755 181.212 13.2101 181.2 12.6667C181.2 12.2067 181.2 11.7453 181.194 11.2853C181.176 10.2788 181.082 9.27502 180.913 8.28233C180.748 7.28909 180.432 6.32643 179.975 5.42736C179.04 3.62298 177.558 2.15423 175.737 1.22767C174.826 0.773544 173.852 0.456554 172.847 0.287174C171.846 0.121849 170.834 0.0332065 169.819 0.0220349C169.357 0.014715 168.884 0.00592498 168.423 0.00299999C167.878 0 167.325 0.000194999 166.781 0.000194999Z" fill="#A6A6A6"/>
<path d="M12.7866 58.6873C12.3252 58.6873 11.875 58.6815 11.4172 58.6713C10.4689 58.659 9.5228 58.5772 8.58668 58.4266C7.71381 58.2777 6.86822 58.0007 6.07782 57.6048C5.29467 57.2121 4.58038 56.6972 3.9623 56.0799C3.33527 55.4698 2.81325 54.7622 2.4169 53.9851C2.01619 53.203 1.73888 52.3647 1.59462 51.4993C1.43883 50.5695 1.35454 49.6293 1.34248 48.6868C1.33288 48.3705 1.32031 47.3172 1.32031 47.3172V12.6665C1.32031 12.6665 1.3337 11.6294 1.34256 11.3247C1.35411 10.3837 1.4379 9.44495 1.59323 8.51657C1.73775 7.64885 2.01528 6.8081 2.41621 6.02343C2.81109 5.2469 3.33022 4.53878 3.95347 3.92651C4.57602 3.30843 5.2926 2.7909 6.07708 2.39281C6.86566 1.99814 7.70965 1.7231 8.58076 1.5769C9.51995 1.42475 10.4693 1.34249 11.4209 1.33081L12.7873 1.3125H168.413L169.796 1.33155C170.739 1.34265 171.68 1.42417 172.61 1.57543C173.49 1.72346 174.343 2.00042 175.141 2.39721C176.712 3.19947 177.991 4.46873 178.798 6.02709C179.192 6.80635 179.466 7.64024 179.608 8.50046C179.765 9.43646 179.853 10.3826 179.871 11.3313C179.876 11.7561 179.876 12.2124 179.876 12.6665C179.888 13.229 179.888 13.7644 179.888 14.3042V45.6971C179.888 46.242 179.888 46.7738 179.876 47.3099C179.876 47.7976 179.876 48.2445 179.87 48.7044C179.852 49.6362 179.766 50.5654 179.611 51.4846C179.47 52.3562 179.194 53.2011 178.793 53.9896C178.394 54.7583 177.875 55.4597 177.255 56.0682C176.637 56.6888 175.921 57.2067 175.136 57.6019C174.341 58.0009 173.489 58.2789 172.61 58.4266C171.674 58.5781 170.728 58.6598 169.78 58.6713C169.336 58.6815 168.872 58.6873 168.421 58.6873L166.779 58.6903L12.7866 58.6873Z" fill="black"/>
<path d="M37.5018 30.451C37.5181 29.199 37.8539 27.9714 38.4778 26.8825C39.1018 25.7935 39.9936 24.8786 41.0705 24.2229C40.3864 23.2551 39.4839 22.4587 38.4348 21.8969C37.3856 21.3351 36.2186 21.0233 35.0265 20.9864C32.4836 20.722 30.0183 22.4936 28.7225 22.4936C27.4016 22.4936 25.4064 21.0126 23.258 21.0564C21.8683 21.1009 20.514 21.5012 19.3269 22.2182C18.1399 22.9353 17.1606 23.9448 16.4845 25.1482C13.5558 30.1708 15.7403 37.5524 18.5458 41.6123C19.9495 43.6003 21.5899 45.821 23.7364 45.7422C25.8369 45.6559 26.6214 44.4155 29.1568 44.4155C31.6687 44.4155 32.4047 45.7422 34.5948 45.6921C36.8487 45.6559 38.2688 43.6953 39.6232 41.6884C40.6317 40.2719 41.4077 38.7063 41.9226 37.0497C40.6131 36.5011 39.4956 35.5828 38.7095 34.4094C37.9234 33.2359 37.5034 31.8593 37.5018 30.451Z" fill="white"/>
<path d="M33.3656 18.3163C34.5945 16.855 35.2 14.9767 35.0534 13.0804C33.1758 13.2757 31.4415 14.1645 30.196 15.5698C29.587 16.2563 29.1206 17.0549 28.8234 17.9201C28.5262 18.7852 28.4041 19.6999 28.464 20.6119C29.4031 20.6214 30.3322 20.4198 31.1812 20.0222C32.0303 19.6246 32.7771 19.0413 33.3656 18.3163Z" fill="white"/>
<path d="M64.0582 40.7094H56.8903L55.1689 45.7441H52.1328L58.9222 27.1171H62.0765L68.8659 45.7441H65.7781L64.0582 40.7094ZM57.6326 38.3862H63.3144L60.5135 30.2153H60.4351L57.6326 38.3862Z" fill="white"/>
<path d="M83.5281 38.9545C83.5281 43.1747 81.2477 45.8861 77.8064 45.8861C76.9347 45.9313 76.0677 45.7324 75.3048 45.3122C74.5419 44.892 73.9139 44.2675 73.4926 43.5101H73.4275V50.2367H70.6133V32.1635H73.3374V34.4223H73.3891C73.8297 33.6686 74.4684 33.0473 75.2371 32.6246C76.0058 32.2018 76.8759 31.9934 77.7547 32.0214C81.2343 32.0214 83.5281 34.746 83.5281 38.9545ZM80.6354 38.9545C80.6354 36.205 79.201 34.3974 77.0123 34.3974C74.862 34.3974 73.4157 36.2431 73.4157 38.9545C73.4157 41.6908 74.862 43.5234 77.0123 43.5234C79.201 43.5234 80.6354 41.7289 80.6354 38.9545Z" fill="white"/>
<path d="M98.6179 38.9546C98.6179 43.1748 96.3375 45.8862 92.8963 45.8862C92.0245 45.9314 91.1576 45.7324 90.3947 45.3122C89.6317 44.892 89.0037 44.2675 88.5825 43.5102H88.5174V50.2367H85.7031V32.1636H88.4271V34.4223H88.4789C88.9195 33.6687 89.5581 33.0474 90.3269 32.6246C91.0956 32.2018 91.9657 31.9934 92.8445 32.0215C96.3242 32.0215 98.6179 34.7461 98.6179 38.9546ZM95.7253 38.9546C95.7253 36.2051 94.2908 34.3974 92.1021 34.3974C89.9519 34.3974 88.5056 36.2431 88.5056 38.9546C88.5056 41.6909 89.9519 43.5234 92.1021 43.5234C94.2908 43.5234 95.7253 41.729 95.7253 38.9546Z" fill="white"/>
<path d="M108.592 40.5541C108.8 42.4013 110.612 43.6141 113.087 43.6141C115.46 43.6141 117.166 42.4012 117.166 40.7357C117.166 39.2899 116.137 38.4242 113.7 37.8309L111.263 37.2494C107.809 36.4232 106.206 34.8236 106.206 32.2279C106.206 29.014 109.034 26.8065 113.049 26.8065C117.023 26.8065 119.747 29.014 119.838 32.2279H116.997C116.827 30.369 115.276 29.2469 113.009 29.2469C110.742 29.2469 109.191 30.3822 109.191 32.0345C109.191 33.3514 110.182 34.1263 112.605 34.7195L114.677 35.2234C118.535 36.1272 120.139 37.6624 120.139 40.387C120.139 43.8718 117.336 46.0545 112.879 46.0545C108.709 46.0545 105.893 43.9231 105.711 40.554L108.592 40.5541Z" fill="white"/>
<path d="M126.212 28.9496V32.1635H128.819V34.371H126.212V41.8578C126.212 43.0209 126.734 43.5629 127.88 43.5629C128.189 43.5575 128.498 43.536 128.806 43.4984V45.6927C128.29 45.7881 127.767 45.8313 127.242 45.8216C124.467 45.8216 123.384 44.7889 123.384 42.1551V34.371H121.391V32.1635H123.384V28.9496H126.212Z" fill="white"/>
<path d="M130.328 38.9545C130.328 34.6816 132.869 31.9965 136.831 31.9965C140.806 31.9965 143.335 34.6815 143.335 38.9545C143.335 43.2392 140.819 45.9125 136.831 45.9125C132.844 45.9125 130.328 43.2391 130.328 38.9545ZM140.467 38.9545C140.467 36.0234 139.111 34.2934 136.831 34.2934C134.55 34.2934 133.196 36.0365 133.196 38.9545C133.196 41.8974 134.55 43.6142 136.831 43.6142C139.111 43.6142 140.467 41.8974 140.467 38.9545Z" fill="white"/>
<path d="M145.656 32.1635H148.34V34.475H148.405C148.587 33.7531 149.014 33.1151 149.615 32.6683C150.215 32.2214 150.953 31.993 151.703 32.0214C152.028 32.0203 152.351 32.0552 152.668 32.1254V34.7328C152.258 34.6089 151.831 34.552 151.403 34.5644C150.994 34.5479 150.587 34.6193 150.208 34.7737C149.83 34.928 149.49 35.1616 149.211 35.4584C148.933 35.7553 148.722 36.1083 148.594 36.4933C148.466 36.8783 148.424 37.2862 148.47 37.6889V45.744H145.656L145.656 32.1635Z" fill="white"/>
<path d="M165.645 41.7553C165.266 44.2206 162.842 45.9125 159.741 45.9125C155.753 45.9125 153.277 43.2655 153.277 39.019C153.277 34.7592 155.766 31.9965 159.623 31.9965C163.416 31.9965 165.802 34.5776 165.802 38.6952V39.6503H156.118V39.8188C156.074 40.3186 156.137 40.8221 156.304 41.2958C156.47 41.7696 156.737 42.2027 157.086 42.5666C157.435 42.9304 157.858 43.2165 158.327 43.406C158.796 43.5954 159.3 43.6839 159.806 43.6654C160.471 43.7271 161.139 43.5746 161.709 43.2304C162.28 42.8863 162.723 42.3689 162.973 41.7553L165.645 41.7553ZM156.132 37.7021H162.986C163.011 37.2527 162.942 36.803 162.784 36.3811C162.625 35.9593 162.381 35.5745 162.065 35.2509C161.749 34.9272 161.369 34.6717 160.949 34.5004C160.529 34.3291 160.077 34.2456 159.623 34.2553C159.165 34.2526 158.71 34.3398 158.286 34.5119C157.862 34.684 157.477 34.9376 157.152 35.2581C156.828 35.5785 156.57 35.9595 156.395 36.379C156.22 36.7984 156.13 37.2481 156.132 37.7021Z" fill="white"/>
<path d="M55.6356 16.8801H56.8438C57.0518 16.9057 57.2629 16.8884 57.4638 16.8293C57.6647 16.7701 57.8511 16.6703 58.0111 16.5363C58.1712 16.4023 58.3015 16.2368 58.3938 16.0504C58.4861 15.8641 58.5384 15.6607 58.5475 15.4533C58.5475 14.6279 57.9204 14.0947 56.8572 14.0947C56.6441 14.0652 56.4272 14.0783 56.2193 14.1332C56.0114 14.1881 55.8167 14.2837 55.6467 14.4144C55.4768 14.5451 55.335 14.7082 55.2297 14.894C55.1244 15.0799 55.0578 15.2848 55.0337 15.4965H53.7072C53.73 15.1121 53.8325 14.7364 54.0083 14.3929C54.184 14.0494 54.4293 13.7454 54.7288 13.4998C55.0283 13.2543 55.3756 13.0724 55.7492 12.9656C56.1227 12.8588 56.5145 12.8292 56.9 12.8789C58.679 12.8789 59.9317 13.8654 59.9317 15.2856C59.9359 15.7614 59.7752 16.2241 59.4764 16.5967C59.1777 16.9693 58.759 17.2291 58.2902 17.3327V17.4382C58.8459 17.4626 59.3693 17.704 59.7459 18.1095C60.1225 18.5151 60.3217 19.0519 60.2999 19.6025C60.2588 19.9983 60.1383 20.382 59.9455 20.7311C59.7527 21.0803 59.4915 21.3877 59.1772 21.6356C58.8629 21.8834 58.5018 22.0666 58.1151 22.1744C57.7284 22.2822 57.3239 22.3124 56.9252 22.2634C56.5257 22.3173 56.1193 22.291 55.7303 22.1861C55.3413 22.0812 54.9776 21.8997 54.6608 21.6526C54.3441 21.4054 54.0809 21.0976 53.8868 20.7476C53.6927 20.3975 53.5718 20.0123 53.5312 19.6149H54.8785C54.9598 20.4711 55.754 21.0234 56.9252 21.0234C58.0964 21.0234 58.861 20.4031 58.861 19.5286C58.861 18.6416 58.1408 18.0952 56.8823 18.0952H55.6356V16.8801Z" fill="white"/>
<path d="M61.832 20.1364C61.832 18.9206 62.7474 18.2196 64.3682 18.12L66.2153 18.0146V17.4316C66.2153 16.7182 65.7406 16.3154 64.8193 16.3154C64.0681 16.3154 63.549 16.5886 63.3981 17.0661H62.0953C62.2328 15.9059 63.336 15.1618 64.8829 15.1618C66.5924 15.1618 67.5566 16.0048 67.5566 17.4316V22.0465H66.2597V21.0973H66.1532C65.9371 21.4378 65.6336 21.7154 65.2738 21.9017C64.9139 22.088 64.5106 22.1764 64.105 22.1578C63.8188 22.1873 63.5294 22.1571 63.2557 22.069C62.982 21.981 62.7299 21.8371 62.5157 21.6466C62.3016 21.4562 62.1301 21.2234 62.0123 20.9633C61.8946 20.7031 61.8332 20.4215 61.832 20.1364ZM66.2153 19.5592V18.9945L64.5501 19.1C63.611 19.1623 63.1851 19.4787 63.1851 20.0741C63.1851 20.682 63.7175 21.0358 64.4496 21.0358C64.6641 21.0573 64.8808 21.0359 65.0867 20.9727C65.2927 20.9096 65.4837 20.8061 65.6485 20.6683C65.8132 20.5305 65.9483 20.3614 66.0457 20.1708C66.1431 19.9803 66.2008 19.7723 66.2153 19.5592Z" fill="white"/>
<path d="M71.127 16.4142V22.0465H69.7812V15.2922H74.2711V16.4142L71.127 16.4142Z" fill="white"/>
<path d="M82.4265 18.6664C82.4265 20.8124 81.3307 22.1579 79.6093 22.1579C79.1867 22.1865 78.7647 22.0949 78.393 21.8939C78.0212 21.6929 77.7151 21.3909 77.5108 21.0234H77.4043V24.2921H76.0586V15.2922H77.3541V16.4084H77.4546C77.6626 16.0281 77.9727 15.7121 78.3505 15.4953C78.7284 15.2786 79.1595 15.1695 79.596 15.1802C81.3307 15.1801 82.4265 16.5197 82.4265 18.6664ZM81.0423 18.6664C81.0423 17.2397 80.3606 16.3776 79.2204 16.3776C78.0877 16.3776 77.3792 17.258 77.3792 18.6723C77.3792 20.08 78.0876 20.9611 79.2145 20.9611C80.3606 20.9611 81.0423 20.099 81.0423 18.6664Z" fill="white"/>
<path d="M84.2185 24.4657V23.318C84.3642 23.3364 84.5109 23.3447 84.6577 23.3429C84.9444 23.364 85.2289 23.2794 85.4565 23.1054C85.6841 22.9315 85.8389 22.6804 85.8911 22.4003L85.9916 22.0714L83.5234 15.2922H84.989L86.6986 20.6571H86.805L88.5087 15.2922H89.9358L87.3937 22.3256C86.811 23.9692 86.1662 24.4965 84.7761 24.4965C84.6637 24.4965 84.3443 24.484 84.2185 24.4657Z" fill="white"/>
<path d="M90.9844 20.1298H92.3242C92.4558 20.7253 93.0193 21.0358 93.8075 21.0358C94.7037 21.0358 95.2538 20.6447 95.2538 20.0368C95.2538 19.3857 94.7599 19.0752 93.8075 19.0752H92.7871V18.0395H93.7897C94.6031 18.0395 95.0172 17.7297 95.0172 17.165C95.0172 16.6692 94.6164 16.2905 93.7897 16.2905C93.037 16.2905 92.4869 16.6069 92.3996 17.1402H91.1027C91.1996 16.5275 91.5355 15.9769 92.038 15.607C92.5405 15.237 93.1695 15.0772 93.7897 15.1619C95.4105 15.1619 96.3378 15.8877 96.3378 17.0288C96.3454 17.3466 96.2426 17.6573 96.0466 17.909C95.8506 18.1607 95.5734 18.3381 95.2612 18.4116V18.5171C95.6329 18.5646 95.974 18.7456 96.2199 19.0257C96.4658 19.3059 96.5993 19.6657 96.5951 20.0369C96.5951 21.3209 95.4919 22.1704 93.8075 22.1704C92.3183 22.1704 91.1086 21.4943 90.9844 20.1298Z" fill="white"/>
<path d="M98.5352 22.0465V15.2922H99.8691V19.9379H99.9755L103.118 15.2922H104.452V22.0466H103.118V17.3759H103.018L99.8691 22.0466L98.5352 22.0465Z" fill="white"/>
<path d="M111.798 16.4142H109.651V22.0465H108.304V16.4142H106.156V15.2922H111.798V16.4142Z" fill="white"/>
<path d="M119.049 20.2228C118.866 20.8401 118.469 21.3739 117.929 21.7311C117.389 22.0883 116.739 22.2461 116.093 22.1769C115.644 22.1887 115.197 22.1034 114.785 21.9271C114.372 21.7508 114.003 21.4877 113.703 21.156C113.404 20.8243 113.18 20.432 113.049 20.0062C112.918 19.5805 112.882 19.1316 112.943 18.6906C112.883 18.2483 112.92 17.7984 113.051 17.3714C113.182 16.9444 113.404 16.5502 113.702 16.2156C114 15.881 114.368 15.6137 114.779 15.4319C115.191 15.2501 115.637 15.158 116.087 15.1618C117.985 15.1618 119.131 16.4458 119.131 18.5668V19.0319H114.316V19.1066C114.294 19.3546 114.325 19.6041 114.407 19.8394C114.489 20.0746 114.62 20.2903 114.791 20.4725C114.962 20.6548 115.17 20.7995 115.4 20.8975C115.631 20.9956 115.88 21.0446 116.132 21.0416C116.453 21.0797 116.779 21.0222 117.068 20.8764C117.356 20.7306 117.595 20.5031 117.752 20.2228L119.049 20.2228ZM114.315 18.0461H117.758C117.775 17.8195 117.744 17.5919 117.667 17.3779C117.59 17.1639 117.469 16.9682 117.311 16.8035C117.153 16.6387 116.962 16.5085 116.75 16.4211C116.538 16.3338 116.311 16.2913 116.081 16.2963C115.848 16.2932 115.617 16.3363 115.402 16.4231C115.186 16.51 114.99 16.6388 114.825 16.8019C114.661 16.965 114.531 17.1591 114.443 17.3728C114.356 17.5865 114.312 17.8155 114.315 18.0461Z" fill="white"/>
<path d="M124.754 15.2922H127.828C129.162 15.2922 129.945 15.9616 129.945 17.0097C129.947 17.3422 129.833 17.6654 129.624 17.9251C129.414 18.1848 129.121 18.3653 128.793 18.4364V18.5419C129.191 18.5668 129.564 18.7423 129.836 19.0321C130.107 19.3218 130.256 19.7038 130.251 20.099C130.251 21.2775 129.356 22.0465 127.859 22.0465H124.754V15.2922ZM126.088 16.3154V18.0644H127.422C128.235 18.0644 128.624 17.7546 128.624 17.1833C128.624 16.6567 128.285 16.3154 127.571 16.3154L126.088 16.3154ZM126.088 19.0444V21.0234H127.684C128.479 21.0234 128.905 20.6755 128.905 20.0368C128.905 19.3608 128.423 19.0444 127.515 19.0444L126.088 19.0444Z" fill="white"/>
</svg>
