<svg width="93" height="93" viewBox="0 0 93 93" fill="none" xmlns="http://www.w3.org/2000/svg">
<g clip-path="url(#clip0_833_32)">
<path d="M48.5561 21.3713L48.6625 24.6198C48.7268 26.6405 49.6866 31.3331 50.8081 33.2468C54.2804 33.7041 56.6828 34.593 58.5823 35.3813C59.5854 33.4047 61.7293 29.85 66.8994 27.5327L68.8956 26.638L69.7903 28.6342C71.5027 32.4549 71.5146 36.1771 71.4967 37.4581C72.4672 38.2864 75.1826 40.6651 76.9479 44.6035L77.8426 46.5997L75.8464 47.4944C70.7163 49.7938 66.5947 49.0378 64.4514 48.481C63.1806 51.9728 60.9627 56.0472 57.5743 59.8792C58.3176 61.0347 59.241 62.6992 59.6254 64.9528L59.9212 66.6181L58.3622 67.3169C55.8989 68.421 53.2285 68.1484 51.028 67.833C49.2257 67.5717 48.2678 67.2531 47.7832 67.1132C39.7192 70.3919 32.7318 68.3818 28.1214 65.3639C23.3545 62.2482 20.7137 58.1964 20.7137 58.1964L20.4282 57.7251L20.3902 57.1428C20.3902 57.1428 19.3346 42.5401 31.4579 36.3752C32.0596 34.1877 33.3079 32.0365 35.4074 29.8106C37.8921 27.1819 41.344 24.6039 45.5619 22.7134L48.5561 21.3713ZM44.6565 28.2132C42.2626 29.6218 40.1353 31.1865 38.6182 32.7918C36.5396 34.9892 35.4403 37.2966 35.3313 38.1605L35.188 39.349L34.0661 39.8518C24.0933 44.3218 24.7381 55.3714 24.8021 56.2896C25.2702 56.9596 27.0972 59.4848 30.5387 61.7346C34.4739 64.3049 39.7662 66.0631 46.7987 62.9111L47.5473 62.5756L48.3319 62.8232C48.3319 62.8232 49.7885 63.2491 51.6377 63.5133C52.6101 63.6504 53.2933 63.4473 54.2134 63.4088C53.7246 62.5324 53.2068 61.1632 53.2068 61.1632L51.9868 59.6125L53.3574 58.3222C57.4544 54.2205 60.0648 48.7811 61.0975 45.3409L61.7434 43.1025L63.9116 43.9286C63.9116 43.9286 67.4061 44.6013 71.2541 43.9337C69.6904 41.8251 67.9601 40.0932 67.9601 40.0932L67.1311 39.4148L67.1764 38.3445C67.1764 38.3445 67.0136 35.6655 66.4228 32.989C63.108 35.4504 61.6194 38.8144 61.6194 38.8144L60.7933 40.9826L58.6925 39.9753C56.0014 38.7579 48.936 35.8838 41.452 38.114L40.2532 33.9312C42.2763 33.3265 44.1909 33.1324 46.0734 33.0485C45.4237 31.3261 44.8627 29.8444 44.6565 28.2132ZM32.6545 50.0732C33.4486 49.7173 34.3516 49.6914 35.1648 50.0013C35.9781 50.3111 36.6349 50.9313 36.9908 51.7254C37.3468 52.5196 37.3726 53.4225 37.0628 54.2358C36.753 55.049 36.1328 55.7058 35.3386 56.0617C34.5445 56.4177 33.6415 56.4436 32.8283 56.1337C32.0151 55.8239 31.3583 55.2037 31.0023 54.4095C30.6464 53.6154 30.6205 52.7124 30.9304 51.8992C31.2402 51.086 31.8604 50.4292 32.6545 50.0732Z" fill="url(#paint0_linear_833_32)"/>
</g>
<defs>
<linearGradient id="paint0_linear_833_32" x1="37.5463" y1="26.3061" x2="56.3351" y2="68.2255" gradientUnits="userSpaceOnUse">
<stop stop-color="#49C3EA"/>
<stop offset="1" stop-color="#472DE9"/>
</linearGradient>
<clipPath id="clip0_833_32">
<rect width="70" height="70" fill="white" transform="matrix(-0.912531 0.409007 0.409007 0.912531 64.1484 0)"/>
</clipPath>
</defs>
</svg>
