<svg width="43" height="43" viewBox="0 0 43 43" fill="none" xmlns="http://www.w3.org/2000/svg">
<path d="M12.2283 0H29.9383C36.685 0 42.1667 5.48167 42.1667 12.2283V29.9383C42.1667 33.1815 40.8783 36.2918 38.5851 38.5851C36.2918 40.8783 33.1815 42.1667 29.9383 42.1667H12.2283C5.48167 42.1667 0 36.685 0 29.9383V12.2283C0 8.98518 1.28834 5.87485 3.5816 3.5816C5.87485 1.28834 8.98518 0 12.2283 0ZM11.8067 4.21667C9.79367 4.21667 7.86313 5.01633 6.43973 6.43973C5.01633 7.86313 4.21667 9.79367 4.21667 11.8067V30.36C4.21667 34.5556 7.61108 37.95 11.8067 37.95H30.36C32.373 37.95 34.3035 37.1503 35.7269 35.7269C37.1503 34.3035 37.95 32.373 37.95 30.36V11.8067C37.95 7.61108 34.5556 4.21667 30.36 4.21667H11.8067ZM32.1521 7.37917C32.851 7.37917 33.5214 7.65683 34.0156 8.15106C34.5098 8.6453 34.7875 9.31563 34.7875 10.0146C34.7875 10.7135 34.5098 11.3839 34.0156 11.8781C33.5214 12.3723 32.851 12.65 32.1521 12.65C31.4531 12.65 30.7828 12.3723 30.2886 11.8781C29.7943 11.3839 29.5167 10.7135 29.5167 10.0146C29.5167 9.31563 29.7943 8.6453 30.2886 8.15106C30.7828 7.65683 31.4531 7.37917 32.1521 7.37917ZM21.0833 10.5417C23.8792 10.5417 26.5605 11.6523 28.5374 13.6292C30.5144 15.6062 31.625 18.2875 31.625 21.0833C31.625 23.8792 30.5144 26.5605 28.5374 28.5374C26.5605 30.5144 23.8792 31.625 21.0833 31.625C18.2875 31.625 15.6062 30.5144 13.6292 28.5374C11.6523 26.5605 10.5417 23.8792 10.5417 21.0833C10.5417 18.2875 11.6523 15.6062 13.6292 13.6292C15.6062 11.6523 18.2875 10.5417 21.0833 10.5417ZM21.0833 14.7583C19.4058 14.7583 17.797 15.4247 16.6109 16.6109C15.4247 17.797 14.7583 19.4058 14.7583 21.0833C14.7583 22.7608 15.4247 24.3696 16.6109 25.5558C17.797 26.742 19.4058 27.4083 21.0833 27.4083C22.7608 27.4083 24.3696 26.742 25.5558 25.5558C26.742 24.3696 27.4083 22.7608 27.4083 21.0833C27.4083 19.4058 26.742 17.797 25.5558 16.6109C24.3696 15.4247 22.7608 14.7583 21.0833 14.7583Z" fill="white"/>
</svg>
