<svg width="1440" height="900" viewBox="0 0 1440 900" fill="none" xmlns="http://www.w3.org/2000/svg">
<g clip-path="url(#clip0_1001_84)">
<path d="M-3 64.5C-3 64.5 145.296 73.4967 176 142.5C189.299 172.387 194.892 203.435 182 233.5C165.579 271.794 107.187 293.22 77 264.5C53.0923 241.754 36.8175 210.862 48.5 180C71.7961 118.458 128.066 123.039 193.5 130C296.064 140.911 357.781 248.631 332 348.5C311.11 429.425 217.282 390.984 204 473.5C185.958 585.586 498.093 549.679 438 646C402.032 703.652 308.593 632.634 294 699C279.991 762.71 337.268 825.5 402.5 825.5C493 825.5 510.903 753.936 585.5 709.5C658.797 665.838 687.685 664.906 762 623C960.494 511.07 1065.48 457.005 1209 280C1239 243 1216.71 189.328 1174.5 180C1125.1 169.083 1093.89 216.757 1115.5 262.5C1162.5 362 1282.18 248.782 1363.5 324C1423.5 379.5 1326.5 483.5 1400 529C1454.42 562.69 1498.5 660 1498.5 660" stroke="#371ED3" stroke-width="2" stroke-linecap="round" stroke-dasharray="20 20"/>
</g>
<defs>
<clipPath id="clip0_1001_84">
<rect width="1443" height="900" fill="white" transform="translate(-3)"/>
</clipPath>
</defs>
</svg>
