<svg width="80" height="80" viewBox="0 0 80 80" fill="none" xmlns="http://www.w3.org/2000/svg">
<path d="M38.2941 32.96C38.1516 33.249 37.941 33.4991 37.6804 33.6887C37.4198 33.8783 37.117 34.0017 36.7981 34.0483L32.5329 34.6702L35.6188 37.677C35.8493 37.9023 36.0217 38.1801 36.1213 38.4867C36.2209 38.7932 36.2448 39.1193 36.1909 39.437L35.4604 43.6847L39.2739 41.6782C39.5597 41.5276 39.8779 41.449 40.2009 41.449C40.5239 41.449 40.8421 41.5276 41.1278 41.6782L44.9413 43.6847L44.2109 39.437C44.1564 39.1193 44.1801 38.793 44.2797 38.4864C44.3794 38.1798 44.5521 37.902 44.7829 37.677L47.8689 34.6702L43.6066 34.0483C43.288 34.002 42.9854 33.879 42.7248 33.69C42.4643 33.5009 42.2535 33.2514 42.1106 32.9629L40.2009 29.0967L38.2941 32.96ZM16 18.2136C16 16.2686 16.7726 14.4033 18.148 13.028C19.5233 11.6526 21.3886 10.88 23.3336 10.88H57.0682C58.0312 10.88 58.9849 11.0697 59.8746 11.4382C60.7644 11.8068 61.5728 12.347 62.2538 13.028C62.9348 13.709 63.475 14.5174 63.8435 15.4072C64.2121 16.2969 64.4018 17.2505 64.4018 18.2136V60.0151C64.4018 60.5986 64.17 61.1582 63.7574 61.5708C63.3448 61.9834 62.7852 62.2152 62.2017 62.2152H20.4002C20.4002 62.9932 20.7092 63.7393 21.2593 64.2895C21.8095 64.8396 22.5556 65.1486 23.3336 65.1486H62.2017C62.7852 65.1486 63.3448 65.3804 63.7574 65.793C64.17 66.2056 64.4018 66.7652 64.4018 67.3487C64.4018 67.9322 64.17 68.4918 63.7574 68.9044C63.3448 69.317 62.7852 69.5488 62.2017 69.5488H23.3336C21.3886 69.5488 19.5233 68.7762 18.148 67.4008C16.7726 66.0255 16 64.1602 16 62.2152V18.2136ZM35.1906 30.2642L27.9743 31.3114C27.6064 31.364 27.2606 31.5186 26.9761 31.7577C26.6916 31.9968 26.4798 32.3108 26.3647 32.6641C26.2496 33.0174 26.2357 33.396 26.3248 33.7568C26.4138 34.1176 26.6021 34.4462 26.8684 34.7054L32.0899 39.7949L30.8579 46.9818C30.7942 47.348 30.8344 47.7247 30.9739 48.0691C31.1134 48.4136 31.3466 48.7121 31.6472 48.9308C31.9477 49.1494 32.3034 49.2795 32.6741 49.3063C33.0448 49.3331 33.4156 49.2554 33.7444 49.0822L40.2009 45.6882L46.6544 49.0822C46.9831 49.256 47.3539 49.3342 47.7247 49.3079C48.0956 49.2816 48.4516 49.1519 48.7525 48.9335C49.0534 48.7151 49.287 48.4168 49.4269 48.0723C49.5668 47.7279 49.6073 47.3511 49.5439 46.9848L48.3118 39.7979L53.5334 34.7054C53.7996 34.4464 53.988 34.118 54.0771 33.7574C54.1663 33.3968 54.1527 33.0185 54.0379 32.6652C53.9231 32.312 53.7117 31.9979 53.4276 31.7586C53.1435 31.5194 52.798 31.3644 52.4304 31.3114L45.2141 30.2642L41.9873 23.7226C41.8234 23.389 41.5693 23.108 41.2538 22.9115C40.9383 22.715 40.574 22.6109 40.2023 22.6109C39.8307 22.6109 39.4664 22.715 39.1509 22.9115C38.8354 23.108 38.5813 23.389 38.4174 23.7226L35.1906 30.2642Z" fill="#371ED3"/>
</svg>
