<svg width="80" height="80" viewBox="0 0 80 80" fill="none" xmlns="http://www.w3.org/2000/svg">
<g clip-path="url(#clip0_832_6)">
<path d="M39.9996 13.9535C25.5959 13.9535 13.9531 25.5963 13.9531 40C13.9531 54.4037 25.5959 66.0465 39.9996 66.0465C46.9076 66.0465 53.5326 63.3023 58.4173 58.4177C63.302 53.533 66.0461 46.908 66.0461 40C66.0461 25.5963 54.3252 13.9535 39.9996 13.9535ZM31.8731 29.1126L37.395 34.6344L34.6341 37.3953L31.8731 34.6344L29.1122 37.3953L26.3513 34.6344L31.8731 29.1126ZM39.9996 54.3256C33.9308 54.3256 28.7736 50.5228 26.6899 45.2093H53.3094C51.2257 50.5228 46.0685 54.3256 39.9996 54.3256ZM50.8871 37.3953L48.1261 34.6344L45.3652 37.3953L42.6043 34.6344L48.1261 29.1126L53.648 34.6344L50.8871 37.3953Z" fill="#371ED3"/>
</g>
<defs>
<clipPath id="clip0_832_6">
<rect width="80" height="80" fill="white"/>
</clipPath>
</defs>
</svg>
