<svg width="60" height="60" viewBox="0 0 60 60" fill="none" xmlns="http://www.w3.org/2000/svg">
<g clip-path="url(#clip0_1410_181)">
<path d="M30.0036 10.4651C19.2008 10.4651 10.4688 19.1972 10.4688 30C10.4688 40.8028 19.2008 49.5349 30.0036 49.5349C35.1846 49.5349 40.1534 47.4768 43.8169 43.8133C47.4804 40.1497 49.5385 35.181 49.5385 30C49.5385 19.1972 40.7478 10.4651 30.0036 10.4651ZM23.9088 21.8344L28.0501 25.9758L25.9794 28.0465L23.9088 25.9758L21.8381 28.0465L19.7674 25.9758L23.9088 21.8344ZM30.0036 40.7442C25.452 40.7442 21.5841 37.8921 20.0213 33.907H39.986C38.4232 37.8921 34.5553 40.7442 30.0036 40.7442ZM38.1692 28.0465L36.0985 25.9758L34.0278 28.0465L31.9571 25.9758L36.0985 21.8344L40.2399 25.9758L38.1692 28.0465Z" fill="white"/>
</g>
<defs>
<clipPath id="clip0_1410_181">
<rect width="60" height="60" fill="white"/>
</clipPath>
</defs>
</svg>
