<svg width="60" height="60" viewBox="0 0 60 60" fill="none" xmlns="http://www.w3.org/2000/svg">
<path d="M38.125 45.4483C36.3267 45.4483 34.875 43.6283 34.875 41.375C34.875 39.1433 36.3267 37.3233 38.125 37.3233C39.9233 37.3233 41.375 39.1433 41.375 41.375C41.375 43.6283 39.9233 45.4483 38.125 45.4483ZM30 28.375C27.3134 28.375 25.125 26.555 25.125 24.3233C25.125 22.07 27.3134 20.25 30 20.25C32.6867 20.25 34.875 22.07 34.875 24.3233C34.875 26.555 32.6867 28.375 30 28.375ZM21.875 45.4483C20.0767 45.4483 18.625 43.6283 18.625 41.375C18.625 39.1433 20.0767 37.3233 21.875 37.3233C23.6734 37.3233 25.125 39.1433 25.125 41.375C25.125 43.6283 23.6734 45.4483 21.875 45.4483ZM30 21.875C30.8883 21.875 31.625 22.6117 31.625 23.5C31.625 24.3883 30.8883 25.125 30 25.125C29.1117 25.125 28.375 24.3883 28.375 23.5C28.375 22.6117 29.1117 21.875 30 21.875ZM44.625 30C43.9317 30 43.26 30.1517 42.6533 30.4333C41.6133 29.1117 40.205 27.985 38.515 27.1183C39.75 25.385 40.4867 23.2833 40.4867 21.0083V20.8783C42.8483 20.38 44.625 18.2783 44.625 15.7433C44.625 12.8617 42.2633 10.5 39.3817 10.5C37.8867 10.5 36.5 11.1283 35.59 12.125C33.9187 11.0637 31.9798 10.5002 30 10.5002C28.0202 10.5002 26.0813 11.0637 24.41 12.125C23.5 11.1283 22.1134 10.5 20.6184 10.5C17.7367 10.5 15.375 12.8617 15.375 15.7433C15.375 18.2567 17.1517 20.3583 19.4917 20.8783V21.0083C19.4917 23.2833 20.25 25.4067 21.4634 27.1183C19.795 27.985 18.3867 29.1117 17.3467 30.4333C16.6063 30.0998 15.794 29.9574 14.9842 30.0191C14.1745 30.0809 13.3932 30.3448 12.7119 30.7868C12.0307 31.2288 11.4712 31.8346 11.0847 32.5489C10.6983 33.2631 10.4973 34.0629 10.5 34.875C10.5 37.5833 12.6667 39.75 15.375 39.75H15.505C15.4184 40.27 15.375 40.8333 15.375 41.375C15.375 45.86 18.2784 49.5 21.875 49.5C24.0634 49.5 25.9917 48.135 27.1833 46.055C28.0933 46.185 29.025 46.25 30 46.25C30.975 46.25 31.9067 46.185 32.8167 46.055C34.0083 48.135 35.9367 49.5 38.125 49.5C41.7217 49.5 44.625 45.86 44.625 41.375C44.625 40.8333 44.5817 40.27 44.495 39.75H44.625C47.3333 39.75 49.5 37.5833 49.5 34.875C49.5 32.1667 47.3333 30 44.625 30Z" fill="white"/>
</svg>
