<svg width="60" height="60" viewBox="0 0 60 60" fill="none" xmlns="http://www.w3.org/2000/svg">
<path d="M25.3131 11.9C25.5419 12.178 25.682 12.5182 25.7155 12.8767C25.7489 13.2352 25.674 13.5955 25.5006 13.911C24.1455 16.399 23.4379 19.1877 23.4427 22.0207C23.4427 31.4453 31.1258 39.0769 40.595 39.0769C41.8302 39.0769 43.0326 38.948 44.1881 38.7019C44.5423 38.6252 44.9113 38.6545 45.2489 38.7863C45.5866 38.918 45.8779 39.1462 46.0866 39.4426C46.3069 39.7507 46.4192 40.1229 46.4061 40.5014C46.3929 40.88 46.2551 41.2435 46.0139 41.5356C44.1756 43.7938 41.8565 45.6132 39.2258 46.8613C36.595 48.1093 33.7189 48.7546 30.8071 48.75C20.0019 48.75 11.25 40.0449 11.25 29.3195C11.25 21.2473 16.2049 14.3235 23.2599 11.389C23.6113 11.2405 24.0014 11.21 24.3717 11.3022C24.7419 11.3943 25.0723 11.6041 25.3131 11.9ZM22.6364 14.3212C19.9236 15.7763 17.6558 17.9393 16.0739 20.5801C14.4921 23.221 13.6553 26.2411 13.6524 29.3195C13.6524 38.7417 21.3379 46.3733 30.8071 46.3733C33.0746 46.3772 35.3204 45.9314 37.4145 45.0616C39.5086 44.1918 41.4093 42.9152 43.0068 41.3059C42.2169 41.4044 41.413 41.4536 40.595 41.4536C29.7898 41.4536 21.0403 32.7485 21.0403 22.0231C21.0403 19.2878 21.6075 16.6838 22.6364 14.3212Z" fill="white"/>
<path d="M22.6364 14.3212C19.9236 15.7763 17.6558 17.9393 16.0739 20.5801C14.4921 23.221 13.6553 26.2411 13.6524 29.3195C13.6524 38.7417 21.3379 46.3733 30.8071 46.3733C33.0746 46.3772 35.3204 45.9314 37.4145 45.0616C39.5086 44.1918 41.4093 42.9152 43.0068 41.3059C42.2169 41.4044 41.413 41.4536 40.595 41.4536C29.7898 41.4536 21.0403 32.7485 21.0403 22.0231C21.0403 19.2878 21.6075 16.6838 22.6364 14.3212Z" fill="white"/>
<path d="M36.5506 18.6268C36.5842 18.5253 36.6489 18.437 36.7356 18.3744C36.8223 18.3118 36.9265 18.2781 37.0334 18.2781C37.1403 18.2781 37.2445 18.3118 37.3312 18.3744C37.4179 18.437 37.4826 18.5253 37.5162 18.6268L38.4233 21.3504C38.8288 22.5645 39.7804 23.5161 40.9945 23.9216L43.718 24.8286C43.8195 24.8622 43.9079 24.927 43.9705 25.0137C44.0331 25.1003 44.0668 25.2045 44.0668 25.3115C44.0668 25.4184 44.0331 25.5226 43.9705 25.6093C43.9079 25.6959 43.8195 25.7607 43.718 25.7943L40.9945 26.7014C40.3957 26.9009 39.8516 27.2371 39.4053 27.6834C38.959 28.1297 38.6228 28.6738 38.4233 29.2726L37.5162 31.9961C37.4826 32.0976 37.4179 32.186 37.3312 32.2486C37.2445 32.3112 37.1403 32.3449 37.0334 32.3449C36.9265 32.3449 36.8223 32.3112 36.7356 32.2486C36.6489 32.186 36.5842 32.0976 36.5506 31.9961L35.6435 29.2726C35.444 28.6738 35.1078 28.1297 34.6615 27.6834C34.2152 27.2371 33.6711 26.9009 33.0723 26.7014L30.3487 25.7943C30.2472 25.7607 30.1589 25.6959 30.0963 25.6093C30.0337 25.5226 30 25.4184 30 25.3115C30 25.2045 30.0337 25.1003 30.0963 25.0137C30.1589 24.927 30.2472 24.8622 30.3487 24.8286L33.0723 23.9216C33.6711 23.7221 34.2152 23.3858 34.6615 22.9396C35.1078 22.4933 35.444 21.9492 35.6435 21.3504L36.5506 18.6268ZM43.7438 11.4804C43.767 11.4137 43.8103 11.3558 43.8679 11.3149C43.9254 11.2739 43.9943 11.2519 44.0649 11.2519C44.1356 11.2519 44.2044 11.2739 44.262 11.3149C44.3195 11.3558 44.3629 11.4137 44.386 11.4804L44.9908 13.2946C45.2603 14.1055 45.8955 14.7407 46.7064 15.0103L48.5206 15.615C48.5873 15.6381 48.6452 15.6815 48.6862 15.739C48.7271 15.7966 48.7491 15.8654 48.7491 15.9361C48.7491 16.0067 48.7271 16.0756 48.6862 16.1331C48.6452 16.1907 48.5873 16.234 48.5206 16.2572L46.7064 16.8619C46.3068 16.9948 45.9436 17.2191 45.6458 17.517C45.348 17.8148 45.1237 18.1779 44.9908 18.5776L44.386 20.3917C44.3629 20.4585 44.3195 20.5163 44.262 20.5573C44.2044 20.5983 44.1356 20.6203 44.0649 20.6203C43.9943 20.6203 43.9254 20.5983 43.8679 20.5573C43.8103 20.5163 43.767 20.4585 43.7438 20.3917L43.1391 18.5776C43.0062 18.1779 42.7819 17.8148 42.484 17.517C42.1862 17.2191 41.8231 16.9948 41.4234 16.8619L39.6093 16.2572C39.5425 16.234 39.4847 16.1907 39.4437 16.1331C39.4028 16.0756 39.3807 16.0067 39.3807 15.9361C39.3807 15.8654 39.4028 15.7966 39.4437 15.739C39.4847 15.6815 39.5425 15.6381 39.6093 15.615L41.4234 15.0103C42.2344 14.7407 42.8696 14.1055 43.1391 13.2946L43.7438 11.4828V11.4804Z" fill="white"/>
<ellipse cx="21.0772" cy="17.1234" rx="2.27709" ry="5.96511" transform="rotate(31.9773 21.0772 17.1234)" fill="white"/>
<ellipse cx="19.0702" cy="19.7821" rx="3.72401" ry="5.96511" transform="rotate(31.9773 19.0702 19.7821)" fill="white"/>
<ellipse cx="17.6704" cy="25.1261" rx="5.21823" ry="6.66813" transform="rotate(25.5871 17.6704 25.1261)" fill="white"/>
<ellipse cx="17.3344" cy="28.5178" rx="5.21823" ry="6.66813" transform="rotate(25.5871 17.3344 28.5178)" fill="white"/>
<ellipse cx="18.7566" cy="32.2466" rx="6.64833" ry="9.19272" transform="rotate(162.782 18.7566 32.2466)" fill="white"/>
<ellipse cx="21.0844" cy="36.7678" rx="5.21823" ry="6.66813" transform="rotate(25.5871 21.0844 36.7678)" fill="white"/>
<ellipse cx="24.1894" cy="40.1473" rx="10.3187" ry="6.20491" transform="rotate(25.5871 24.1894 40.1473)" fill="white"/>
<ellipse cx="29.4014" cy="41.2787" rx="10.3187" ry="4.84575" transform="rotate(25.5871 29.4014 41.2787)" fill="white"/>
<ellipse cx="29.5486" cy="42.9019" rx="11.0399" ry="4.84575" transform="rotate(6.98275 29.5486 42.9019)" fill="white"/>
<ellipse cx="31.3459" cy="41.6629" rx="10.9159" ry="3.57446" transform="rotate(3.11819 31.3459 41.6629)" fill="white"/>
<ellipse cx="39.2891" cy="41.8184" rx="6.80551" ry="2.35419" transform="rotate(-9.54187 39.2891 41.8184)" fill="white"/>
<ellipse cx="39.4527" cy="43.562" rx="6.80551" ry="2.35419" transform="rotate(-27.8637 39.4527 43.562)" fill="white"/>
<ellipse cx="24.0844" cy="39.0178" rx="5.21823" ry="6.66813" transform="rotate(25.5871 24.0844 39.0178)" fill="white"/>
<ellipse cx="25.1548" cy="32.1547" rx="1.03634" ry="6.66813" transform="rotate(-37.7879 25.1548 32.1547)" fill="white"/>
<ellipse cx="22.9867" cy="26.958" rx="1.03634" ry="6.66813" transform="rotate(-15.0912 22.9867 26.958)" fill="white"/>
<ellipse cx="22.0643" cy="20.9911" rx="1.03634" ry="2.98194" transform="rotate(0.512784 22.0643 20.9911)" fill="white"/>
<ellipse cx="15.3411" cy="20.2732" rx="1.03634" ry="2.98194" transform="rotate(35.898 15.3411 20.2732)" fill="white"/>
<ellipse cx="12.5915" cy="27.0745" rx="1.03634" ry="2.98194" transform="rotate(6.04654 12.5915 27.0745)" fill="white"/>
<ellipse cx="15.2803" cy="38.3245" rx="1.34807" ry="2.94892" transform="rotate(-30.8934 15.2803 38.3245)" fill="white"/>
</svg>
