<svg width="60" height="60" viewBox="0 0 60 60" fill="none" xmlns="http://www.w3.org/2000/svg">
<rect x="27.0312" y="28.1876" width="17.8385" height="8.79679" transform="rotate(-46.6078 27.0312 28.1876)" fill="white"/>
<rect x="38.7891" y="18.7386" width="11.1482" height="4.76828" transform="rotate(-46.6078 38.7891 18.7386)" fill="white"/>
<path d="M26.1367 37.928C25.6366 36.6879 24.7234 35.6612 23.5535 35.0239C23.366 34.9217 23.1738 34.8306 22.9778 34.7507C21.951 34.3317 20.8206 34.2193 19.7241 34.4346C18.4183 34.6909 17.2417 35.396 16.3959 36.429C15.5501 37.462 15.0876 38.7587 15.0878 40.097C15.0878 40.6895 14.9668 41.2756 14.7324 41.8192C14.4979 42.3627 14.155 42.8519 13.7249 43.2567C13.2948 43.6614 12.7866 43.9729 12.2319 44.172C11.6771 44.3711 11.0877 44.4534 10.5 44.4139C11.4452 46.0656 12.906 47.3571 14.6556 48.0881C16.4053 48.8191 18.3459 48.9487 20.1762 48.4566C22.0065 47.9645 23.6241 46.8784 24.778 45.3668C25.9318 43.8553 26.5572 42.0028 26.5572 40.097C26.5572 39.3298 26.4081 38.5972 26.1367 37.928Z" fill="white"/>
<path d="M26.1367 37.928C25.6366 36.6879 24.7234 35.6612 23.5535 35.0239C23.366 34.9217 23.1738 34.8306 22.9778 34.7507M26.1367 37.928C26.4081 38.5972 26.5572 39.3298 26.5572 40.097C26.5572 42.0028 25.9318 43.8553 24.778 45.3668C23.6241 46.8784 22.0065 47.9645 20.1762 48.4566C18.3459 48.9487 16.4053 48.8191 14.6556 48.0881C12.906 47.3571 11.4452 46.0656 10.5 44.4139C11.0877 44.4534 11.6771 44.3711 12.2319 44.172C12.7866 43.9729 13.2948 43.6614 13.7249 43.2567C14.155 42.8519 14.4979 42.3627 14.7324 41.8192C14.9668 41.2756 15.0878 40.6895 15.0878 40.097C15.0876 38.7587 15.5501 37.462 16.3959 36.429C17.2417 35.396 18.4183 34.6909 19.7241 34.4346C20.8206 34.2193 21.951 34.3317 22.9778 34.7507M26.1367 37.928C28.4096 37.149 30.5834 36.1035 32.6131 34.813M22.973 34.7649C22.9746 34.7602 22.9762 34.7554 22.9778 34.7507M26.0736 28.2367C24.791 30.2783 23.7519 32.4646 22.9778 34.7507M32.6112 34.813C36.2362 32.5091 39.3389 29.464 41.7179 25.8754L49.1272 14.6958C49.411 14.27 49.5391 13.7583 49.4896 13.2481C49.44 12.7379 49.2159 12.2608 48.8556 11.8982C48.4952 11.5357 48.0209 11.3103 47.5136 11.2605C47.0064 11.2107 46.4977 11.3395 46.0744 11.625L34.9605 19.08C31.3926 21.4723 28.3647 24.5928 26.0736 28.2387C28.9828 29.5471 31.3104 31.8885 32.6112 34.8149" stroke="white" stroke-width="4" stroke-linecap="round" stroke-linejoin="round"/>
</svg>
