<svg width="60" height="60" viewBox="0 0 60 60" fill="none" xmlns="http://www.w3.org/2000/svg">
<path d="M48.9808 10.5H10.2692C9.33587 10.5 8.44074 10.8735 7.78076 11.5384C7.12077 12.2033 6.75 13.1051 6.75 14.0455V45.9545C6.75 46.8949 7.12077 47.7967 7.78076 48.4616C8.44074 49.1265 9.33587 49.5 10.2692 49.5H13.2144C13.5474 49.5001 13.8736 49.405 14.1551 49.2257C14.4366 49.0465 14.6619 48.7904 14.8046 48.4873C15.6603 46.6673 17.0112 45.1295 18.7003 44.0526C20.3894 42.9757 22.3472 42.404 24.3462 42.404C26.3451 42.404 28.3029 42.9757 29.992 44.0526C31.6811 45.1295 33.032 46.6673 33.8877 48.4873C34.0305 48.7904 34.2557 49.0465 34.5372 49.2257C34.8187 49.405 35.1449 49.5001 35.4779 49.5H48.9808C49.9141 49.5 50.8093 49.1265 51.4692 48.4616C52.1292 47.7967 52.5 46.8949 52.5 45.9545V14.0455C52.5 13.1051 52.1292 12.2033 51.4692 11.5384C50.8093 10.8735 49.9141 10.5 48.9808 10.5ZM24.3462 38.8636C22.9541 38.8636 21.5933 38.4478 20.4358 37.6686C19.2783 36.8894 18.3762 35.782 17.8435 34.4863C17.3107 33.1906 17.1714 31.7649 17.4429 30.3894C17.7145 29.0139 18.3849 27.7504 19.3692 26.7587C20.3536 25.767 21.6077 25.0917 22.973 24.8181C24.3383 24.5445 25.7535 24.6849 27.0397 25.2216C28.3258 25.7583 29.425 26.6671 30.1984 27.8332C30.9718 28.9993 31.3846 30.3703 31.3846 31.7727C31.3846 33.6534 30.6431 35.457 29.3231 36.7868C28.0031 38.1166 26.2129 38.8636 24.3462 38.8636ZM48.9808 45.9545H36.5381C35.771 44.622 34.7933 43.4245 33.6435 42.4091H43.7019C44.1686 42.4091 44.6162 42.2223 44.9462 41.8899C45.2762 41.5574 45.4615 41.1065 45.4615 40.6364V19.3636C45.4615 18.8935 45.2762 18.4426 44.9462 18.1101C44.6162 17.7777 44.1686 17.5909 43.7019 17.5909H15.5481C15.0814 17.5909 14.6338 17.7777 14.3038 18.1101C13.9738 18.4426 13.7885 18.8935 13.7885 19.3636V40.6364C13.7883 41.0295 13.9178 41.4116 14.1567 41.7225C14.3956 42.0334 14.7303 42.2554 15.1082 42.3537C13.9319 43.3804 12.9336 44.5974 12.1542 45.9545H10.2692V14.0455H48.9808V45.9545Z" fill="white"/>
</svg>
