<svg width="20" height="35" viewBox="0 0 20 35" fill="none" xmlns="http://www.w3.org/2000/svg">
<path d="M4.27031 1.46176L19.2664 16.4133C19.4444 16.5913 19.5701 16.7841 19.6437 16.9918C19.7185 17.1995 19.7559 17.422 19.7559 17.6593C19.7559 17.8966 19.7185 18.1191 19.6437 18.3268C19.5702 18.5344 19.4444 18.7273 19.2664 18.9053L4.27031 33.9013C3.85499 34.3166 3.33584 34.5243 2.71286 34.5243C2.08988 34.5243 1.55589 34.3018 1.11091 33.8568C0.665918 33.4118 0.443424 32.8927 0.443424 32.2994C0.443424 31.706 0.665918 31.1869 1.1109 30.7419L14.1935 17.6593L1.1109 4.57667C0.695581 4.16135 0.48792 3.64991 0.48792 3.04236C0.48792 2.43362 0.710413 1.90675 1.1554 1.46176C1.60039 1.01678 2.11954 0.794282 2.71285 0.794282C3.30617 0.794282 3.82532 1.01678 4.27031 1.46176Z" fill="#4C82EF"/>
</svg>
