<svg width="60" height="60" viewBox="0 0 60 60" fill="none" xmlns="http://www.w3.org/2000/svg">
<circle cx="30" cy="30" r="28.5" stroke="white" stroke-width="3"/>
<path d="M43.8625 27.225L31.2625 39.8625C31.1125 40.0125 30.95 40.1185 30.775 40.1805C30.6 40.2435 30.4125 40.275 30.2125 40.275C30.0125 40.275 29.825 40.2435 29.65 40.1805C29.475 40.1185 29.3125 40.0125 29.1625 39.8625L16.525 27.225C16.175 26.875 16 26.4375 16 25.9125C16 25.3875 16.1875 24.9375 16.5625 24.5625C16.9375 24.1875 17.375 24 17.875 24C18.375 24 18.8125 24.1875 19.1875 24.5625L30.2125 35.5875L41.2375 24.5625C41.5875 24.2125 42.0185 24.0375 42.5305 24.0375C43.0435 24.0375 43.4875 24.225 43.8625 24.6C44.2375 24.975 44.425 25.4125 44.425 25.9125C44.425 26.4125 44.2375 26.85 43.8625 27.225Z" fill="white"/>
</svg>
