<svg width="17" height="29" viewBox="0 0 17 29" fill="none" xmlns="http://www.w3.org/2000/svg">
<path d="M3.22344 1.1375L15.8609 13.7375C16.0109 13.8875 16.1169 14.05 16.1789 14.225C16.2419 14.4 16.2734 14.5875 16.2734 14.7875C16.2734 14.9875 16.2419 15.175 16.1789 15.35C16.1169 15.525 16.0109 15.6875 15.8609 15.8375L3.22344 28.475C2.87344 28.825 2.43594 29 1.91094 29C1.38594 29 0.935938 28.8125 0.560938 28.4375C0.185938 28.0625 -0.00156224 27.625 -0.00156228 27.125C-0.00156233 26.625 0.185938 26.1875 0.560938 25.8125L11.5859 14.7875L0.560936 3.7625C0.210935 3.4125 0.035936 2.98151 0.0359359 2.4695C0.0359359 1.95651 0.223436 1.5125 0.598436 1.1375C0.973436 0.762504 1.41093 0.575004 1.91094 0.575004C2.41094 0.575004 2.84844 0.762504 3.22344 1.1375Z" fill="#79A3F7"/>
</svg>
