<svg width="877" height="363" viewBox="0 0 877 363" fill="none" xmlns="http://www.w3.org/2000/svg">
<path d="M56.4907 216.508H85.3345L51.6015 262.339L51.5917 262.352L51.6016 262.366L88.443 311.407H56.6296L30.7011 275.042L30.6944 275.033H30.6829H26.3665H26.3442V275.055V311.407H0.181936V216.508H26.3442V251.389V251.411H26.3665H31.7636H31.7751L31.7818 251.402L56.4907 216.508Z" fill="#4C82EF" stroke="#4C82EF" stroke-width="0.0445364"/>
<path d="M122.757 286.156V311.407H97.1443V242.051H122.757V265.431V265.453H122.779H141.688H141.71V265.431V242.051H167.323V311.407H141.71V286.156V286.133H141.688H122.779H122.757V286.156Z" fill="#4C82EF" stroke="#4C82EF" stroke-width="0.0445364"/>
<path d="M204.342 311.407H180.874V242.051H206.493V278.044V278.122L206.534 278.056L228.943 242.051H252.272V311.407H226.659V276.591V276.515L226.618 276.579L204.342 311.407Z" fill="#4C82EF" stroke="#4C82EF" stroke-width="0.0445364"/>
<path d="M291.44 264.092V311.407H265.821V242.051H316.826V264.07H291.462H291.44V264.092Z" fill="#4C82EF" stroke="#4C82EF" stroke-width="0.0445364"/>
<path d="M335.832 269.954L335.832 269.954C340.465 267.929 345.75 266.925 351.694 266.925C354.482 266.925 357.113 267.146 359.593 267.594L359.593 267.594C362.066 268.036 364.201 268.705 366.004 269.595L366.036 269.611V269.575V267.435C366.036 264.262 365.069 261.893 363.124 260.352C361.186 258.811 358.047 258.051 353.723 258.051C349.76 258.051 346.044 258.697 342.577 259.99L342.576 259.99C339.116 261.285 335.493 263.17 331.721 265.663L324.315 249.922C329.083 246.898 334.092 244.655 339.348 243.181C344.611 241.711 350.259 240.976 356.288 240.976C367.539 240.976 376.244 243.426 382.409 248.347L382.409 248.348C388.572 253.244 391.649 260.524 391.649 270.191V283.497C391.649 285.859 392.011 287.492 392.735 288.412C393.456 289.33 394.718 289.869 396.509 290.045V311.401C394.445 311.841 392.49 312.174 390.655 312.401C388.808 312.622 387.167 312.736 385.725 312.736C381.133 312.736 377.649 311.911 375.269 310.265C372.89 308.618 371.341 306.197 370.618 302.991C370.618 302.991 370.618 302.991 370.618 302.991L370.081 300.451L370.071 300.404L370.041 300.442C366.892 304.451 363.248 307.503 359.11 309.594C354.971 311.684 350.562 312.736 345.887 312.736C341.205 312.736 336.977 311.78 333.201 309.839L333.201 309.839C329.425 307.928 326.452 305.276 324.299 301.89L324.299 301.89C322.141 298.53 321.061 294.747 321.06 290.539C321.061 285.913 322.364 281.819 324.968 278.28C327.579 274.738 331.198 271.955 335.832 269.954ZM362.624 292.085L362.631 292.092L362.646 292.081C363.638 291.393 364.448 290.65 365.084 289.847L365.084 289.847C365.714 289.043 366.036 288.213 366.036 287.382V282.433V282.417L366.021 282.412C364.577 281.921 362.934 281.497 361.086 281.162C359.238 280.827 357.594 280.647 356.15 280.647C353.085 280.647 350.491 281.359 348.373 282.791L348.373 282.791C346.256 284.247 345.188 286.053 345.188 288.249C345.188 289.438 345.546 290.53 346.273 291.497C346.994 292.456 347.987 293.242 349.252 293.775C350.518 294.332 351.963 294.602 353.584 294.602C355.119 294.602 356.721 294.38 358.383 293.908C360.044 293.443 361.46 292.842 362.624 292.085Z" fill="#4C82EF" stroke="#4C82EF" stroke-width="0.0445364"/>
<path d="M697.314 201.666L697.311 201.668C696.489 201.844 695.79 201.831 695.21 201.645C694.625 201.457 694.158 201.091 693.805 200.563C693.099 199.504 692.847 197.789 693.019 195.531C693.362 191.017 695.394 184.349 698.813 176.468C702.236 168.591 706.335 162.102 712.004 156.996C717.673 151.89 724.914 148.166 734.622 145.821C744.328 143.476 752.814 144.617 760.456 146.224C762.078 146.565 763.662 146.928 765.212 147.282C767.314 147.763 769.352 148.229 771.334 148.608C774.781 149.268 778.064 149.667 781.23 149.426C784.399 149.185 786.296 148.283 787.732 146.783C789.016 145.441 789.931 143.622 791.06 141.377C791.192 141.114 791.327 140.846 791.466 140.571C794.12 135.332 798.195 127.974 810.208 119.013C834.233 101.092 857.57 105.119 870.164 110.091C873.314 111.335 875.118 112.289 875.963 113.081C876.385 113.476 876.564 113.827 876.557 114.15C876.55 114.473 876.356 114.776 876.015 115.073C875.674 115.369 875.188 115.658 874.606 115.955C874.039 116.243 873.381 116.538 872.676 116.854L872.618 116.88C871.164 117.532 869.516 118.274 868.059 119.233C866.602 120.191 865.683 121.133 865.089 122.181C864.494 123.229 864.224 124.383 864.063 125.761C863.967 126.578 863.91 127.473 863.845 128.473C863.693 130.853 863.502 133.825 862.671 137.736C861.492 143.287 857.423 149.139 853.646 153.604C851.759 155.837 849.944 157.722 848.602 159.049C847.931 159.713 847.378 160.237 846.993 160.595C846.8 160.774 846.649 160.911 846.547 161.004C846.495 161.051 846.456 161.086 846.43 161.109L846.4 161.136L846.392 161.143L846.392 161.143C832.248 168.492 824.886 176.963 819.878 184.754C818.051 187.596 816.537 190.348 815.121 192.922C814.597 193.875 814.086 194.804 813.577 195.703C811.696 199.032 809.85 201.964 807.486 204.275C800.269 211.328 797.717 221.763 795.881 233.101C795.519 235.342 795.184 237.619 794.847 239.912C793.478 249.22 792.07 258.798 788.585 267.371C784.242 278.063 782.347 282.079 779.303 285.672C777.781 287.468 775.971 289.159 773.423 291.526L773.209 291.724C770.691 294.062 767.464 297.058 763.114 301.431C754.167 310.424 743.747 315.649 735.294 319.085C732.498 320.223 729.917 321.164 727.676 321.981C726.53 322.399 725.472 322.784 724.52 323.147C723.114 323.683 721.938 324.17 721.045 324.637C720.154 325.105 719.542 325.555 719.269 326.022L719.289 326.033L719.269 326.022C718.996 326.491 719.044 327.136 719.332 327.914C719.621 328.692 720.153 329.61 720.858 330.628C722.268 332.664 724.373 335.108 726.616 337.661C726.94 338.03 727.267 338.402 727.596 338.774C729.54 340.981 731.527 343.236 733.209 345.355C735.177 347.831 736.727 350.118 737.306 351.917C737.885 353.718 738.004 355.279 737.676 356.608C737.349 357.937 736.575 359.037 735.363 359.918C732.937 361.681 728.76 362.564 722.911 362.636C720.643 362.664 718.677 362.746 716.838 362.823C713.931 362.944 711.341 363.052 708.376 362.912C703.537 362.682 697.702 361.791 687.872 359.211C678.043 356.633 671.472 353.255 666.976 350.197C663.668 347.948 661.484 345.872 659.949 344.414C659.397 343.889 658.929 343.445 658.522 343.1C656.989 341.8 655.464 340.667 653.824 340.155C652.183 339.642 650.427 339.75 648.433 340.928C647.938 341.221 646.939 341.62 645.515 342.097C644.092 342.574 642.245 343.13 640.055 343.737C635.674 344.952 629.919 346.374 623.428 347.79C610.446 350.623 594.521 353.433 580.761 354.524C550.588 356.915 514.341 351.672 483.226 337.838C452.111 324.004 426.131 301.581 416.486 269.615C414.522 263.102 412.856 249.353 412.438 233.803C412.02 218.254 412.85 200.907 415.877 187.199C425.323 144.442 449.889 118.888 479.94 108.323C509.991 97.7573 545.53 102.181 576.925 119.385C589.117 126.067 600.193 138.191 611.106 152.483C616.562 159.629 621.977 167.316 627.469 175.135L628.072 175.993C633.369 183.535 638.743 191.185 644.299 198.578C667.366 229.267 693.584 255.517 730.569 251.083C748.508 248.933 757.218 243.424 761.313 236.672C765.408 229.92 764.884 221.931 764.371 214.834C764.114 211.275 761.931 208.114 758.656 205.366C755.382 202.618 751.014 200.28 746.383 198.368C737.121 194.544 726.8 192.418 722.049 192.11C719.671 191.956 716.936 192.477 714.172 193.344C711.408 194.211 708.613 195.425 706.116 196.658C703.618 197.89 701.418 199.142 699.842 200.086C699.054 200.558 698.422 200.953 697.987 201.23C697.769 201.369 697.601 201.478 697.487 201.552C697.43 201.589 697.387 201.618 697.358 201.637L697.325 201.659L697.316 201.664L697.314 201.666L697.314 201.666C697.314 201.666 697.314 201.666 697.314 201.667L697.314 201.666ZM445.799 312.79H445.821H471.993H472.016V312.768V276.416H476.304L502.227 312.781L502.234 312.79H502.245H534.121H534.165L534.138 312.755L497.28 263.691L531.036 217.838L531.062 217.802H531.018H502.118H502.107L502.1 217.812L477.391 252.706H472.022V217.824V217.802H471.999H445.799H445.776V217.824V312.768H445.793V312.79H445.799ZM542.743 312.768V312.79H542.766H566.268H566.28L566.287 312.78L588.528 278.006V312.768V312.79H588.551H614.208H614.23V312.768V243.361V243.339H614.208H590.845H590.832L590.826 243.349L568.451 279.305V243.361V243.339H568.429H542.766H542.743V243.361V312.768ZM642.958 312.768V312.79H642.981H668.638H668.66V312.768V265.453H688.898H688.921V265.431V243.367V243.345H688.898H622.72H622.698V243.367V265.431V265.453H622.72H642.958V312.768Z" fill="#4C82EF" stroke="#4C82EF" stroke-width="0.0445364"/>
<path d="M443.744 70.1815C444.098 63.9798 455.232 59.0674 455.232 59.0674C455.232 59.0674 457.892 70.9658 453.362 75.7385C451.498 77.7019 450.193 79.7001 447.484 79.4432C443.569 79.0718 443.522 74.0708 443.744 70.1815Z" fill="#4C82EF"/>
<path d="M538.858 88.1756C534.976 83.4259 539.927 72.5631 539.927 72.5631C539.927 72.5631 551.584 79.7883 549.812 86.0587C549.008 88.905 548.205 91.6071 545.27 92.1449C542.367 92.6771 540.716 90.4488 538.858 88.1756Z" fill="#4C82EF"/>
<path d="M523.896 60.1259C520.69 56.4213 520.69 47.1595 520.69 47.1595C524.52 49.4529 529.239 50.5998 531.11 54.0397C532.43 56.4675 532.178 60.1259 530.576 61.1844C528.973 62.2429 525.615 62.1124 523.896 60.1259Z" fill="#4C82EF"/>
<path d="M575.194 31.547C569.255 31.7019 567.446 18.5806 567.446 18.5806C567.446 18.5806 580.231 18.7231 581.072 24.4022C581.395 26.5881 581.529 28.3482 580.003 29.9593C578.648 31.3891 577.173 31.4953 575.194 31.547Z" fill="#4C82EF"/>
<path d="M489.698 6.93732C490.964 10.2342 497.446 11.7005 497.446 11.7005C497.446 11.7005 498.184 5.42053 495.576 3.23265C493.76 1.70956 491.458 0.0597562 489.698 1.64493C488.154 3.03521 488.956 5.00552 489.698 6.93732Z" fill="#4C82EF"/>
<path d="M508.133 9.84814C504.831 12.819 505.995 20.9622 505.995 20.9622C505.995 20.9622 515.591 18.8922 516.682 14.0821C517.262 11.5294 517.737 9.02379 515.614 7.46656C513.148 5.6576 510.404 7.80451 508.133 9.84814Z" fill="#4C82EF"/>
<path d="M482.484 15.9344C488.194 17.6952 493.705 26.2546 493.705 26.2546H493.171C493.171 26.2546 483.028 23.7233 477.942 26.7838C475.039 28.5308 473.222 31.5471 471.797 32.6055C470.728 33.3995 466.504 36.2633 463.782 34.4578C461.174 32.728 461.391 29.8825 461.644 26.7838C462.075 21.5216 465.614 18.6597 470.461 16.4636C474.735 14.5274 477.997 14.5506 482.484 15.9344Z" fill="#4C82EF"/>
<path d="M501.381 104.053C501.381 104.053 494.67 79.597 496.477 57.0322C494.424 57.4724 492.869 58.6235 491.835 61.1844C491.035 63.1655 488.572 72.0528 482.751 73.3569C479.119 74.1707 476.072 73.3568 473.4 71.5046C470.728 69.6523 469.381 66.2304 468.858 62.2429C468.232 57.4701 469.66 53.5103 472.064 50.335C474.469 47.1596 480.746 43.0092 487.56 41.8671C492.085 41.1089 495.322 40.9808 499.193 42.2932C500.441 38.3529 502.137 34.7071 504.392 31.547C510.056 23.6103 519.153 17.585 524.965 14.876C529.507 12.759 536.098 11.3626 544.202 14.0821C555.382 17.8341 564.164 27.3131 566.377 35.2517C568.07 41.3283 569.043 46.1075 565.576 51.3935C563.719 54.2227 562.116 55.8482 558.896 56.9505C553.376 58.8403 544.736 52.1873 544.736 52.1873C544.736 52.1873 535.251 39.6612 526.568 39.4856C522.596 39.4052 520.005 39.7088 516.682 41.8671C513.088 44.2023 512.381 47.194 510.688 50.8089C512.304 53.1551 513.573 55.8661 514.739 58.9518C518.07 67.7583 515.541 76.4167 513.744 83.1479C511.708 90.7702 508.327 102.994 508.327 102.994H505.995C505.995 102.994 511.266 74.8289 508.06 66.0965C507.438 64.4022 506.971 62.8331 506.421 61.4856C501.318 79.8609 503.518 104.053 503.518 104.053H501.381Z" fill="#4C82EF"/>
<path d="M455.232 59.0674C455.232 59.0674 444.098 63.9798 443.744 70.1815C443.522 74.0708 443.569 79.0718 447.484 79.4432C450.193 79.7001 451.498 77.7019 453.362 75.7385C457.892 70.9658 455.232 59.0674 455.232 59.0674ZM539.927 72.5631C539.927 72.5631 534.976 83.4259 538.858 88.1756C540.716 90.4488 542.367 92.6771 545.27 92.1449C548.205 91.6071 549.008 88.905 549.812 86.0587C551.584 79.7883 539.927 72.5631 539.927 72.5631ZM520.69 47.1595C520.69 47.1595 520.69 56.4213 523.896 60.1259C525.615 62.1124 528.973 62.2429 530.576 61.1844C532.178 60.1259 532.43 56.4675 531.11 54.0397C529.239 50.5998 524.52 49.4529 520.69 47.1595ZM567.446 18.5806C567.446 18.5806 569.255 31.7019 575.194 31.547C577.173 31.4953 578.648 31.3891 580.003 29.9593C581.529 28.3482 581.395 26.5881 581.072 24.4022C580.231 18.7231 567.446 18.5806 567.446 18.5806ZM497.446 11.7005C497.446 11.7005 490.964 10.2342 489.698 6.93732C488.956 5.00551 488.154 3.03521 489.698 1.64493C491.458 0.0597561 493.76 1.70956 495.576 3.23265C498.184 5.42053 497.446 11.7005 497.446 11.7005ZM505.995 20.9622C505.995 20.9622 504.831 12.819 508.133 9.84814C510.404 7.80451 513.148 5.6576 515.614 7.46656C517.737 9.02379 517.262 11.5294 516.682 14.0821C515.591 18.8922 505.995 20.9622 505.995 20.9622ZM493.705 26.2546C493.705 26.2546 488.194 17.6952 482.484 15.9344C477.997 14.5506 474.735 14.5274 470.461 16.4636C465.614 18.6597 462.075 21.5216 461.644 26.7838C461.391 29.8825 461.174 32.728 463.782 34.4578C466.504 36.2633 470.728 33.3995 471.797 32.6055C473.222 31.5471 475.039 28.5308 477.942 26.7838C483.028 23.7233 493.171 26.2546 493.171 26.2546H493.705ZM501.381 104.053C501.381 104.053 487.848 54.7312 504.392 31.547C510.056 23.6103 519.153 17.585 524.965 14.876C529.507 12.759 536.098 11.3626 544.202 14.0821C555.382 17.8341 564.164 27.3131 566.377 35.2517C568.07 41.3283 569.043 46.1075 565.576 51.3935C563.719 54.2227 562.116 55.8482 558.896 56.9505C553.376 58.8403 544.736 52.1873 544.736 52.1873C544.736 52.1873 535.251 39.6612 526.568 39.4856C522.596 39.4052 520.005 39.7088 516.682 41.8671C512.641 44.4929 512.25 47.9488 510.003 52.1873C500.442 70.2232 503.518 104.053 503.518 104.053H501.381ZM491.835 61.1844C491.035 63.1655 488.572 72.0528 482.751 73.3569C479.119 74.1707 476.072 73.3568 473.4 71.5046C470.728 69.6523 469.381 66.2304 468.858 62.2429C468.232 57.4701 469.66 53.5103 472.064 50.335C474.469 47.1596 480.746 43.0092 487.56 41.8671C492.935 40.9665 496.492 40.9549 501.453 43.1902C508.634 46.4254 511.973 51.6352 514.739 58.9518C518.07 67.7583 515.541 76.4167 513.744 83.1479C511.708 90.7702 508.327 102.994 508.327 102.994H505.995C505.995 102.994 511.266 74.8289 508.06 66.0965C506.206 61.0454 505.732 57.1072 500.312 56.8348C496.291 56.6327 493.438 57.2152 491.835 61.1844Z" stroke="#4C82EF" stroke-width="1.04733"/>
</svg>
