<svg width="2351" height="982" viewBox="0 0 2351 982" fill="none" xmlns="http://www.w3.org/2000/svg">
<path d="M0 841.768V584.622H70.2998V679.155H84.7775L151.077 584.622H228.6L138.041 708.848L236.94 841.768H151.45L81.8787 743.252H70.2998V841.768H0Z" fill="#FAFAFA"/>
<path d="M260.108 841.765V653.799H328.934V717.183H379.655V653.799H448.481V841.765H379.655V773.314H328.934V841.765H260.108Z" fill="#FAFAFA"/>
<path d="M484.708 841.765V653.799H553.55V751.344L613.68 653.799H676.352V841.765H607.526V747.41L547.753 841.765H484.708Z" fill="#FAFAFA"/>
<path d="M712.58 841.765V653.799H849.519V713.556H781.422V841.765H712.58Z" fill="#FAFAFA"/>
<path d="M860.758 785.199C860.758 772.652 864.256 761.546 871.252 751.945C878.264 742.344 887.981 734.8 900.418 729.376C912.856 723.888 927.042 721.168 942.993 721.168C950.475 721.168 957.536 721.767 964.192 722.981C970.831 724.179 976.564 725.992 981.406 728.405V722.609C981.406 714.028 978.815 707.633 973.617 703.472C968.435 699.311 960.03 697.255 948.435 697.255C937.811 697.255 927.852 699.004 918.556 702.501C909.26 706.014 899.528 711.13 889.39 717.897L869.471 675.156C882.281 666.947 895.738 660.86 909.86 656.861C923.981 652.878 939.139 650.887 955.317 650.887C985.504 650.887 1008.87 657.525 1025.42 670.865C1041.97 684.141 1050.23 703.877 1050.23 730.072V766.111C1050.23 772.506 1051.2 776.91 1053.13 779.387C1055.06 781.864 1058.44 783.321 1063.27 783.791V841.735C1057.71 842.933 1052.45 843.84 1047.51 844.455C1042.56 845.054 1038.15 845.361 1034.28 845.361C1021.96 845.361 1012.6 843.127 1006.2 838.659C999.803 834.19 995.641 827.617 993.698 818.923L992.257 812.042C983.803 822.906 974.022 831.179 962.912 836.846C951.803 842.512 939.965 845.361 927.414 845.361C914.847 845.361 903.495 842.771 893.358 837.509C883.22 832.328 875.236 825.14 869.455 815.96C863.657 806.845 860.758 796.581 860.758 785.167V785.199ZM972.337 789.312C974.993 787.45 977.163 785.442 978.864 783.273C980.548 781.103 981.406 778.869 981.406 776.635V763.229C977.536 761.902 973.131 760.752 968.176 759.846C963.22 758.939 958.815 758.453 954.945 758.453C946.734 758.453 939.787 760.38 934.119 764.249C928.451 768.184 925.601 773.057 925.601 778.982C925.601 782.188 926.556 785.135 928.499 787.741C930.426 790.332 933.082 792.452 936.467 793.893C939.852 795.399 943.722 796.128 948.062 796.128C952.175 796.128 956.467 795.529 960.92 794.25C965.39 792.987 969.196 791.352 972.321 789.295L972.337 789.312Z" fill="#FAFAFA"/>
<path fill-rule="evenodd" clip-rule="evenodd" d="M1870.15 544.534C1870.15 544.534 1910.99 516.995 1936.47 518.663C1961.94 520.33 2047.19 541.685 2049.94 580.153C2052.7 618.604 2055.55 666.624 1959.32 678.264C1760.97 702.274 1678.07 393.999 1547.2 321.581C1378.75 228.375 1165.79 273.643 1115.11 505.29C1098.86 579.554 1106.2 693.24 1116.74 728.534C1168.5 901.735 1395.58 971.498 1557.47 958.546C1631.3 952.637 1728.35 928.093 1739.03 921.714C1749.7 915.351 1757.8 920.548 1766.02 927.591C1774.25 934.633 1792.03 957.267 1844.78 971.239C1897.52 985.211 1907.4 980.905 1938.78 980.516C1970.17 980.127 1983.68 970.948 1977.46 951.406C1971.22 931.865 1923.32 891.293 1929.07 881.32C1934.83 871.347 1998.65 863.462 2046.67 814.73C2094.67 766.014 2091.71 780.375 2115.01 722.463C2138.32 664.567 2127.01 589.769 2165.7 551.593C2191.09 526.531 2194.19 474.577 2270.06 434.782C2270.06 434.782 2307.42 401.447 2313.75 371.35C2320.08 341.252 2312.57 331.635 2328.18 321.274C2343.79 310.896 2367.61 309.876 2333.81 296.406C2300.02 282.936 2237.39 272.024 2172.92 320.578C2108.45 369.132 2129.18 400.33 2095.22 402.936C2061.28 405.543 2022.28 380.465 1970.19 393.174C1918.09 405.883 1892.45 433.536 1874.09 476.212C1855.74 518.906 1852.27 548.485 1870.19 544.534H1870.15ZM1195.43 845.394V588.248H1265.71V682.781H1280.21L1346.51 588.248H1424.03L1333.46 712.474L1432.35 845.394H1346.85L1277.29 746.878H1265.7V845.394H1195.41H1195.43ZM1455.54 845.394V657.411H1524.39V754.973L1584.52 657.411H1647.19V845.394H1578.36V751.038L1518.59 845.394H1455.54ZM1724.37 845.394V717.185H1670.02V657.428H1847.55V717.185H1793.2V845.394H1724.37Z" fill="#FAFAFA"/>
<path d="M1189.91 188.371C1190.86 171.575 1220.73 158.27 1220.73 158.27C1220.73 158.27 1227.87 190.496 1215.71 203.422C1210.72 208.74 1207.21 214.152 1199.95 213.456C1189.44 212.45 1189.32 198.905 1189.91 188.371Z" fill="#FAFAFA"/>
<path d="M1445.06 237.107C1434.64 224.243 1447.92 194.822 1447.92 194.822C1447.92 194.822 1479.19 214.39 1474.44 231.373C1472.29 239.082 1470.13 246.401 1462.26 247.857C1454.47 249.299 1450.04 243.264 1445.06 237.107Z" fill="#FAFAFA"/>
<path d="M1404.92 161.137C1396.32 151.103 1396.32 126.019 1396.32 126.019C1406.6 132.23 1419.26 135.336 1424.27 144.653C1427.81 151.229 1427.14 161.137 1422.84 164.004C1418.54 166.87 1409.53 166.517 1404.92 161.137Z" fill="#FAFAFA"/>
<path d="M1542.53 83.7336C1526.6 84.1532 1521.74 48.6154 1521.74 48.6154C1521.74 48.6154 1556.04 49.0012 1558.3 64.3827C1559.16 70.3028 1559.52 75.07 1555.43 79.4334C1551.8 83.3061 1547.84 83.5937 1542.53 83.7336Z" fill="#FAFAFA"/>
<path d="M1313.19 17.0807C1316.58 26.0098 1333.97 29.9812 1333.97 29.9812C1333.97 29.9812 1335.95 12.9726 1328.95 7.04691C1324.08 2.92176 1317.91 -1.54656 1313.19 2.74672C1309.04 6.51218 1311.2 11.8486 1313.19 17.0807Z" fill="#FAFAFA"/>
<path d="M1362.64 24.9644C1353.78 33.0107 1356.9 55.0657 1356.9 55.0657C1356.9 55.0657 1382.64 49.4592 1385.57 36.4315C1387.13 29.5178 1388.4 22.7317 1382.71 18.5141C1376.09 13.6147 1368.73 19.4294 1362.64 24.9644Z" fill="#FAFAFA"/>
<path d="M1293.83 41.4484C1309.15 46.2174 1323.94 69.3996 1323.94 69.3996H1322.5C1322.5 69.3996 1295.29 62.544 1281.65 70.833C1273.86 75.5647 1268.99 83.734 1265.17 86.6006C1262.3 88.7509 1250.97 96.5073 1243.67 91.6172C1236.67 86.9323 1237.25 79.2255 1237.93 70.833C1239.09 56.5807 1248.58 48.8297 1261.58 42.8818C1273.05 37.6375 1281.8 37.7004 1293.83 41.4484Z" fill="#FAFAFA"/>
<path d="M1344.52 280.109C1344.52 280.109 1326.52 213.872 1331.37 152.758C1325.86 153.95 1321.69 157.068 1318.92 164.004C1316.77 169.369 1310.17 193.44 1294.55 196.972C1284.81 199.176 1276.63 196.972 1269.47 191.955C1262.3 186.938 1258.69 177.67 1257.28 166.87C1255.6 153.944 1259.43 143.219 1265.88 134.619C1272.33 126.019 1289.17 114.778 1307.45 111.685C1319.59 109.631 1328.27 109.284 1338.66 112.839C1342 102.167 1346.55 92.2925 1352.6 83.7336C1367.8 62.2379 1392.2 45.9188 1407.79 38.5818C1419.97 32.8483 1437.65 29.0661 1459.39 36.4315C1489.38 46.5937 1512.94 72.2666 1518.88 93.7676C1523.42 110.225 1526.03 123.169 1516.73 137.486C1511.75 145.149 1507.45 149.551 1498.81 152.537C1484 157.655 1460.83 139.636 1460.83 139.636C1460.83 139.636 1435.38 105.71 1412.09 105.234C1401.43 105.017 1394.48 105.839 1385.57 111.685C1375.93 118.009 1374.03 126.112 1369.49 135.903C1373.83 142.257 1377.23 149.599 1380.36 157.957C1389.29 181.808 1382.51 205.259 1377.69 223.49C1372.23 244.134 1363.16 277.242 1363.16 277.242H1356.9C1356.9 277.242 1371.04 200.959 1362.44 177.308C1360.77 172.719 1359.52 168.469 1358.05 164.82C1344.36 214.587 1350.26 280.109 1350.26 280.109H1344.52Z" fill="#FAFAFA"/>
<path d="M1220.73 158.27C1220.73 158.27 1190.86 171.575 1189.91 188.371C1189.32 198.905 1189.44 212.45 1199.95 213.456C1207.21 214.152 1210.72 208.74 1215.71 203.422C1227.87 190.496 1220.73 158.27 1220.73 158.27ZM1447.92 194.822C1447.92 194.822 1434.64 224.243 1445.06 237.107C1450.04 243.264 1454.47 249.299 1462.26 247.857C1470.13 246.401 1472.29 239.082 1474.44 231.373C1479.19 214.39 1447.92 194.822 1447.92 194.822ZM1396.32 126.019C1396.32 126.019 1396.32 151.103 1404.92 161.137C1409.53 166.517 1418.54 166.87 1422.84 164.004C1427.14 161.137 1427.81 151.229 1424.27 144.653C1419.26 135.336 1406.6 132.23 1396.32 126.019ZM1521.74 48.6154C1521.74 48.6154 1526.6 84.1532 1542.53 83.7336C1547.84 83.5937 1551.8 83.3061 1555.43 79.4334C1559.52 75.07 1559.16 70.3028 1558.3 64.3827C1556.04 49.0012 1521.74 48.6154 1521.74 48.6154ZM1333.97 29.9812C1333.97 29.9812 1316.58 26.0098 1313.19 17.0807C1311.2 11.8486 1309.04 6.51218 1313.19 2.74672C1317.91 -1.54656 1324.08 2.92176 1328.95 7.04691C1335.95 12.9726 1333.97 29.9812 1333.97 29.9812ZM1356.9 55.0657C1356.9 55.0657 1353.78 33.0107 1362.64 24.9644C1368.73 19.4294 1376.09 13.6147 1382.71 18.5141C1388.4 22.7317 1387.13 29.5178 1385.57 36.4315C1382.64 49.4592 1356.9 55.0657 1356.9 55.0657ZM1323.94 69.3996C1323.94 69.3996 1309.15 46.2174 1293.83 41.4484C1281.8 37.7004 1273.05 37.6375 1261.58 42.8818C1248.58 48.8297 1239.09 56.5807 1237.93 70.833C1237.25 79.2255 1236.67 86.9323 1243.67 91.6172C1250.97 96.5073 1262.3 88.7509 1265.17 86.6006C1268.99 83.734 1273.86 75.5647 1281.65 70.833C1295.29 62.544 1322.5 69.3996 1322.5 69.3996H1323.94ZM1344.52 280.109C1344.52 280.109 1308.22 146.526 1352.6 83.7336C1367.8 62.2379 1392.2 45.9188 1407.79 38.5818C1419.97 32.8483 1437.65 29.0661 1459.39 36.4315C1489.38 46.5937 1512.94 72.2666 1518.88 93.7676C1523.42 110.225 1526.03 123.169 1516.73 137.486C1511.75 145.149 1507.45 149.551 1498.81 152.537C1484 157.655 1460.83 139.636 1460.83 139.636C1460.83 139.636 1435.38 105.71 1412.09 105.234C1401.43 105.017 1394.48 105.839 1385.57 111.685C1374.73 118.796 1373.68 128.156 1367.65 139.636C1342.01 188.484 1350.26 280.109 1350.26 280.109H1344.52ZM1318.92 164.004C1316.77 169.369 1310.17 193.44 1294.55 196.972C1284.81 199.176 1276.63 196.972 1269.47 191.955C1262.3 186.938 1258.69 177.67 1257.28 166.87C1255.6 153.944 1259.43 143.219 1265.88 134.619C1272.33 126.019 1289.17 114.778 1307.45 111.685C1321.87 109.246 1331.41 109.214 1344.72 115.268C1363.98 124.03 1372.94 138.14 1380.36 157.957C1389.29 181.808 1382.51 205.259 1377.69 223.49C1372.23 244.134 1363.16 277.242 1363.16 277.242H1356.9C1356.9 277.242 1371.04 200.959 1362.44 177.308C1357.47 163.627 1356.2 152.961 1341.66 152.223C1330.87 151.676 1323.22 153.253 1318.92 164.004Z" stroke="#FAFAFA" stroke-width="1.4334"/>
</svg>
