<svg width="2351" height="982" viewBox="0 0 2351 982" fill="none" xmlns="http://www.w3.org/2000/svg">
<path d="M0 842.332V585.186H70.2998V679.719H84.7775L151.077 585.186H228.6L138.041 709.412L236.94 842.332H151.45L81.8787 743.815H70.2998V842.332H0Z" fill="#002B88"/>
<path d="M260.108 842.329V654.363H328.934V717.747H379.655V654.363H448.481V842.329H379.655V773.878H328.934V842.329H260.108Z" fill="#002B88"/>
<path d="M484.708 842.329V654.363H553.55V751.908L613.68 654.363H676.352V842.329H607.526V747.974L547.753 842.329H484.708Z" fill="#002B88"/>
<path d="M712.579 842.329V654.363H849.519V714.12H781.421V842.329H712.579Z" fill="#002B88"/>
<path d="M860.758 785.763C860.758 773.216 864.256 762.11 871.252 752.509C878.264 742.908 887.981 735.364 900.418 729.94C912.855 724.452 927.041 721.732 942.993 721.732C950.475 721.732 957.535 722.331 964.191 723.545C970.831 724.743 976.564 726.556 981.406 728.969V723.173C981.406 714.592 978.815 708.197 973.616 704.036C968.434 699.875 960.029 697.819 948.434 697.819C937.811 697.819 927.851 699.567 918.556 703.065C909.26 706.578 899.527 711.694 889.389 718.461L869.47 675.72C882.28 667.511 895.738 661.424 909.859 657.425C923.981 653.442 939.139 651.451 955.317 651.451C985.503 651.451 1008.87 658.089 1025.42 671.429C1041.97 684.705 1050.23 704.441 1050.23 730.636V766.675C1050.23 773.07 1051.2 777.474 1053.13 779.951C1055.06 782.428 1058.44 783.885 1063.27 784.355V842.299C1057.71 843.497 1052.45 844.404 1047.51 845.019C1042.56 845.618 1038.15 845.925 1034.28 845.925C1021.96 845.925 1012.6 843.691 1006.2 839.223C999.803 834.754 995.641 828.181 993.697 819.487L992.256 812.606C983.803 823.47 974.021 831.743 962.912 837.409C951.803 843.076 939.964 845.925 927.414 845.925C914.847 845.925 903.495 843.335 893.357 838.073C883.219 832.892 875.236 825.704 869.454 816.524C863.657 807.409 860.758 797.145 860.758 785.731V785.763ZM972.337 789.876C974.993 788.014 977.163 786.006 978.863 783.837C980.548 781.667 981.406 779.433 981.406 777.199V763.793C977.535 762.466 973.13 761.316 968.175 760.41C963.22 759.503 958.815 759.017 954.944 759.017C946.734 759.017 939.786 760.944 934.118 764.813C928.45 768.748 925.6 773.621 925.6 779.546C925.6 782.752 926.555 785.699 928.499 788.305C930.426 790.896 933.082 793.016 936.467 794.457C939.851 795.963 943.722 796.692 948.062 796.692C952.175 796.692 956.467 796.092 960.92 794.813C965.39 793.551 969.195 791.915 972.321 789.859L972.337 789.876Z" fill="#002B88"/>
<path fill-rule="evenodd" clip-rule="evenodd" d="M1870.15 545.098C1870.15 545.098 1910.99 517.559 1936.47 519.227C1961.94 520.894 2047.19 542.249 2049.94 580.717C2052.7 619.168 2055.55 667.188 1959.32 678.828C1760.97 702.838 1678.07 394.563 1547.2 322.145C1378.75 228.939 1165.79 274.207 1115.11 505.854C1098.86 580.117 1106.2 693.804 1116.74 729.098C1168.5 902.299 1395.58 972.062 1557.47 959.11C1631.3 953.201 1728.35 928.657 1739.03 922.278C1749.7 915.915 1757.8 921.112 1766.02 928.155C1774.25 935.197 1792.03 957.831 1844.78 971.803C1897.52 985.775 1907.4 981.469 1938.78 981.08C1970.17 980.691 1983.68 971.512 1977.46 951.97C1971.22 932.429 1923.32 891.857 1929.07 881.884C1934.83 871.911 1998.65 864.026 2046.67 815.294C2094.67 766.578 2091.71 780.939 2115.01 723.027C2138.32 665.131 2127.01 590.333 2165.7 552.157C2191.09 527.095 2194.19 475.141 2270.06 435.346C2270.06 435.346 2307.42 402.011 2313.75 371.914C2320.08 341.816 2312.57 332.199 2328.18 321.838C2343.79 311.46 2367.61 310.44 2333.81 296.97C2300.02 283.5 2237.39 272.588 2172.92 321.142C2108.45 369.696 2129.18 400.894 2095.22 403.5C2061.28 406.107 2022.28 381.029 1970.19 393.738C1918.09 406.447 1892.45 434.099 1874.09 476.776C1855.74 519.47 1852.27 549.049 1870.19 545.098H1870.15ZM1195.43 845.958V588.812H1265.71V683.345H1280.21L1346.51 588.812H1424.03L1333.46 713.038L1432.35 845.958H1346.85L1277.29 747.442H1265.7V845.958H1195.41H1195.43ZM1455.54 845.958V657.975H1524.39V755.537L1584.52 657.975H1647.19V845.958H1578.36V751.602L1518.59 845.958H1455.54ZM1724.37 845.958V717.749H1670.02V657.992H1847.55V717.749H1793.2V845.958H1724.37Z" fill="#002B88"/>
<path d="M1189.91 188.935C1190.86 172.139 1220.73 158.834 1220.73 158.834C1220.73 158.834 1227.87 191.06 1215.71 203.986C1210.72 209.304 1207.21 214.716 1199.95 214.02C1189.44 213.014 1189.32 199.469 1189.91 188.935Z" fill="#002B88"/>
<path d="M1445.06 237.671C1434.64 224.807 1447.92 195.386 1447.92 195.386C1447.92 195.386 1479.19 214.954 1474.44 231.937C1472.29 239.646 1470.13 246.965 1462.26 248.421C1454.47 249.863 1450.04 243.828 1445.06 237.671Z" fill="#002B88"/>
<path d="M1404.92 161.701C1396.32 151.667 1396.32 126.583 1396.32 126.583C1406.6 132.794 1419.26 135.9 1424.27 145.217C1427.81 151.792 1427.14 161.701 1422.84 164.568C1418.54 167.434 1409.53 167.081 1404.92 161.701Z" fill="#002B88"/>
<path d="M1542.53 84.2975C1526.6 84.7171 1521.74 49.1793 1521.74 49.1793C1521.74 49.1793 1556.04 49.5652 1558.3 64.9467C1559.16 70.8668 1559.52 75.6339 1555.43 79.9973C1551.8 83.8701 1547.84 84.1577 1542.53 84.2975Z" fill="#002B88"/>
<path d="M1313.19 17.6446C1316.58 26.5738 1333.97 30.5452 1333.97 30.5452C1333.97 30.5452 1335.95 13.5365 1328.95 7.61087C1324.08 3.48573 1317.91 -0.982596 1313.19 3.31069C1309.04 7.07615 1311.2 12.4125 1313.19 17.6446Z" fill="#002B88"/>
<path d="M1362.64 25.5283C1353.78 33.5746 1356.9 55.6296 1356.9 55.6296C1356.9 55.6296 1382.64 50.0232 1385.57 36.9955C1387.13 30.0818 1388.4 23.2956 1382.71 19.078C1376.09 14.1786 1368.73 19.9933 1362.64 25.5283Z" fill="#002B88"/>
<path d="M1293.83 42.0124C1309.15 46.7813 1323.94 69.9636 1323.94 69.9636H1322.5C1322.5 69.9636 1295.29 63.1079 1281.65 71.397C1273.86 76.1286 1268.99 84.298 1265.17 87.1645C1262.3 89.3149 1250.97 97.0713 1243.67 92.1812C1236.67 87.4963 1237.25 79.7894 1237.93 71.397C1239.09 57.1446 1248.58 49.3936 1261.58 43.4458C1273.05 38.2015 1281.8 38.2644 1293.83 42.0124Z" fill="#002B88"/>
<path d="M1344.52 280.673C1344.52 280.673 1326.52 214.436 1331.37 153.322C1325.86 154.514 1321.69 157.632 1318.92 164.568C1316.77 169.933 1310.17 194.004 1294.55 197.536C1284.81 199.74 1276.63 197.536 1269.47 192.519C1262.3 187.502 1258.69 178.234 1257.28 167.434C1255.6 154.508 1259.43 143.783 1265.88 135.183C1272.33 126.583 1289.17 115.342 1307.45 112.249C1319.59 110.195 1328.27 109.848 1338.66 113.403C1342 102.731 1346.55 92.8565 1352.6 84.2975C1367.8 62.8019 1392.2 46.4828 1407.79 39.1458C1419.97 33.4122 1437.65 29.6301 1459.39 36.9955C1489.38 47.1576 1512.94 72.8306 1518.88 94.3315C1523.42 110.789 1526.03 123.733 1516.73 138.05C1511.75 145.713 1507.45 150.115 1498.81 153.101C1484 158.219 1460.83 140.2 1460.83 140.2C1460.83 140.2 1435.38 106.274 1412.09 105.798C1401.43 105.581 1394.48 106.403 1385.57 112.249C1375.93 118.573 1374.03 126.676 1369.49 136.467C1373.83 142.821 1377.23 150.163 1380.36 158.521C1389.29 182.372 1382.51 205.823 1377.69 224.054C1372.23 244.698 1363.16 277.806 1363.16 277.806H1356.9C1356.9 277.806 1371.04 201.523 1362.44 177.872C1360.77 173.283 1359.52 169.033 1358.05 165.384C1344.36 215.151 1350.26 280.673 1350.26 280.673H1344.52Z" fill="#002B88"/>
<path d="M1220.73 158.834C1220.73 158.834 1190.86 172.139 1189.91 188.935C1189.32 199.469 1189.44 213.014 1199.95 214.02C1207.21 214.716 1210.72 209.304 1215.71 203.986C1227.87 191.06 1220.73 158.834 1220.73 158.834ZM1447.92 195.386C1447.92 195.386 1434.64 224.807 1445.06 237.671C1450.04 243.828 1454.47 249.863 1462.26 248.421C1470.13 246.965 1472.29 239.646 1474.44 231.937C1479.19 214.954 1447.92 195.386 1447.92 195.386ZM1396.32 126.583C1396.32 126.583 1396.32 151.667 1404.92 161.701C1409.53 167.081 1418.54 167.434 1422.84 164.568C1427.14 161.701 1427.81 151.792 1424.27 145.217C1419.26 135.9 1406.6 132.794 1396.32 126.583ZM1521.74 49.1793C1521.74 49.1793 1526.6 84.7171 1542.53 84.2975C1547.84 84.1577 1551.8 83.8701 1555.43 79.9973C1559.52 75.6339 1559.16 70.8668 1558.3 64.9467C1556.04 49.5652 1521.74 49.1793 1521.74 49.1793ZM1333.97 30.5452C1333.97 30.5452 1316.58 26.5738 1313.19 17.6446C1311.2 12.4125 1309.04 7.07615 1313.19 3.31069C1317.91 -0.982596 1324.08 3.48573 1328.95 7.61087C1335.95 13.5365 1333.97 30.5452 1333.97 30.5452ZM1356.9 55.6296C1356.9 55.6296 1353.78 33.5746 1362.64 25.5283C1368.73 19.9933 1376.09 14.1786 1382.71 19.078C1388.4 23.2956 1387.13 30.0818 1385.57 36.9955C1382.64 50.0232 1356.9 55.6296 1356.9 55.6296ZM1323.94 69.9636C1323.94 69.9636 1309.15 46.7813 1293.83 42.0124C1281.8 38.2644 1273.05 38.2015 1261.58 43.4458C1248.58 49.3936 1239.09 57.1446 1237.93 71.397C1237.25 79.7894 1236.67 87.4963 1243.67 92.1812C1250.97 97.0713 1262.3 89.3149 1265.17 87.1645C1268.99 84.298 1273.86 76.1286 1281.65 71.397C1295.29 63.1079 1322.5 69.9636 1322.5 69.9636H1323.94ZM1344.52 280.673C1344.52 280.673 1308.22 147.09 1352.6 84.2975C1367.8 62.8019 1392.2 46.4828 1407.79 39.1458C1419.97 33.4122 1437.65 29.6301 1459.39 36.9955C1489.38 47.1576 1512.94 72.8306 1518.88 94.3315C1523.42 110.789 1526.03 123.733 1516.73 138.05C1511.75 145.713 1507.45 150.115 1498.81 153.101C1484 158.219 1460.83 140.2 1460.83 140.2C1460.83 140.2 1435.38 106.274 1412.09 105.798C1401.43 105.581 1394.48 106.403 1385.57 112.249C1374.73 119.36 1373.68 128.72 1367.65 140.2C1342.01 189.048 1350.26 280.673 1350.26 280.673H1344.52ZM1318.92 164.568C1316.77 169.933 1310.17 194.004 1294.55 197.536C1284.81 199.74 1276.63 197.536 1269.47 192.519C1262.3 187.502 1258.69 178.234 1257.28 167.434C1255.6 154.508 1259.43 143.783 1265.88 135.183C1272.33 126.583 1289.17 115.342 1307.45 112.249C1321.87 109.81 1331.41 109.778 1344.72 115.832C1363.98 124.594 1372.94 138.704 1380.36 158.521C1389.29 182.372 1382.51 205.823 1377.69 224.054C1372.23 244.698 1363.16 277.806 1363.16 277.806H1356.9C1356.9 277.806 1371.04 201.523 1362.44 177.872C1357.47 164.191 1356.2 153.525 1341.66 152.787C1330.87 152.24 1323.22 153.817 1318.92 164.568Z" stroke="#002B88" stroke-width="1.4334"/>
</svg>
