<svg width="80" height="80" viewBox="0 0 80 80" fill="none" xmlns="http://www.w3.org/2000/svg">
<path d="M50.8333 60.5978C48.4356 60.5978 46.5 58.1711 46.5 55.1667C46.5 52.1911 48.4356 49.7644 50.8333 49.7644C53.2311 49.7644 55.1667 52.1911 55.1667 55.1667C55.1667 58.1711 53.2311 60.5978 50.8333 60.5978ZM40 37.8333C36.4178 37.8333 33.5 35.4067 33.5 32.4311C33.5 29.4267 36.4178 27 40 27C43.5822 27 46.5 29.4267 46.5 32.4311C46.5 35.4067 43.5822 37.8333 40 37.8333ZM29.1667 60.5978C26.7689 60.5978 24.8334 58.1711 24.8334 55.1667C24.8334 52.1911 26.7689 49.7644 29.1667 49.7644C31.5645 49.7644 33.5 52.1911 33.5 55.1667C33.5 58.1711 31.5645 60.5978 29.1667 60.5978ZM40 29.1667C41.1845 29.1667 42.1667 30.1489 42.1667 31.3333C42.1667 32.5178 41.1845 33.5 40 33.5C38.8156 33.5 37.8334 32.5178 37.8334 31.3333C37.8334 30.1489 38.8156 29.1667 40 29.1667ZM59.5 40C58.5756 40 57.68 40.2022 56.8711 40.5778C55.4845 38.8156 53.6067 37.3133 51.3533 36.1578C53 33.8467 53.9822 31.0444 53.9822 28.0111V27.8378C57.1311 27.1733 59.5 24.3711 59.5 20.9911C59.5 17.1489 56.3511 14 52.5089 14C50.5156 14 48.6667 14.8378 47.4533 16.1667C45.2249 14.7516 42.6397 14.0002 40 14.0002C37.3603 14.0002 34.7751 14.7516 32.5467 16.1667C31.3334 14.8378 29.4845 14 27.4911 14C23.6489 14 20.5 17.1489 20.5 20.9911C20.5 24.3422 22.8689 27.1444 25.9889 27.8378V28.0111C25.9889 31.0444 27 33.8756 28.6178 36.1578C26.3934 37.3133 24.5156 38.8156 23.1289 40.5778C22.1417 40.1331 21.0586 39.9432 19.979 40.0255C18.8994 40.1079 17.8576 40.4598 16.9493 41.0491C16.0409 41.6384 15.2949 42.4462 14.7796 43.3985C14.2644 44.3508 13.9963 45.4172 14 46.5C14 50.1111 16.8889 53 20.5 53H20.6734C20.5578 53.6933 20.5 54.4444 20.5 55.1667C20.5 61.1467 24.3711 66 29.1667 66C32.0845 66 34.6556 64.18 36.2445 61.4067C37.4578 61.58 38.7 61.6667 40 61.6667C41.3 61.6667 42.5422 61.58 43.7556 61.4067C45.3445 64.18 47.9156 66 50.8333 66C55.6289 66 59.5 61.1467 59.5 55.1667C59.5 54.4444 59.4422 53.6933 59.3267 53H59.5C63.1111 53 66 50.1111 66 46.5C66 42.8889 63.1111 40 59.5 40Z" fill="#371ED3"/>
</svg>
