<svg width="80" height="80" viewBox="0 0 80 80" fill="none" xmlns="http://www.w3.org/2000/svg">
<g clip-path="url(#clip0_838_10)">
<path d="M5 13.3333V18.3333C5 32.1667 12.3667 44.2667 23.3333 51V66.6667H73.3333V60C73.3333 51.1333 55.5667 46.6667 46.6667 46.6667H45.8333C30 46.6667 16.6667 33.3333 16.6667 18.3333V13.3333M46.6667 13.3333C43.1304 13.3333 39.7391 14.7381 37.2386 17.2386C34.7381 19.7391 33.3333 23.1304 33.3333 26.6667C33.3333 30.2029 34.7381 33.5943 37.2386 36.0948C39.7391 38.5952 43.1304 40 46.6667 40C50.2029 40 53.5943 38.5952 56.0948 36.0948C58.5952 33.5943 60 30.2029 60 26.6667C60 23.1304 58.5952 19.7391 56.0948 17.2386C53.5943 14.7381 50.2029 13.3333 46.6667 13.3333Z" fill="#371ED3"/>
</g>
<defs>
<clipPath id="clip0_838_10">
<rect width="80" height="80" fill="white"/>
</clipPath>
</defs>
</svg>
