<svg width="80" height="80" viewBox="0 0 80 80" fill="none" xmlns="http://www.w3.org/2000/svg">
<path d="M34.8489 50.5707C34.1821 48.9172 32.9645 47.5483 31.4047 46.6985C29.8449 45.8487 28.0398 45.571 26.2987 45.9127C24.5577 46.2545 22.9889 47.1946 21.8612 48.572C20.7334 49.9494 20.1168 51.6783 20.117 53.4627C20.117 54.2527 19.9558 55.0342 19.6432 55.7589C19.3306 56.4835 18.8734 57.1359 18.2999 57.6755C17.7264 58.2152 17.0488 58.6306 16.3092 58.896C15.5695 59.1614 14.7836 59.2712 14 59.2185C15.2602 61.4207 17.208 63.1429 19.5408 64.1175C21.8737 65.0922 24.4612 65.2649 26.9016 64.6088C29.342 63.9527 31.4989 62.5045 33.0373 60.4891C34.5757 58.4737 35.4096 56.0037 35.4096 53.4627C35.4096 52.4398 35.2108 51.4629 34.8489 50.5707ZM34.8489 50.5707C37.8794 49.5321 40.7778 48.138 43.4841 46.4173M30.6307 46.3532C31.6635 43.2983 33.0511 40.3767 34.7648 37.649M43.4816 46.4173C48.3149 43.3455 52.4519 39.2853 55.6239 34.5006L65.5029 19.5945C65.8814 19.0267 66.0522 18.3444 65.9861 17.6641C65.92 16.9838 65.6213 16.3477 65.1408 15.8643C64.6603 15.381 64.0278 15.0804 63.3515 15.014C62.6752 14.9475 61.9969 15.1193 61.4325 15.5L46.614 25.44C41.8568 28.6298 37.8197 32.7903 34.7648 37.6516C38.6438 39.3962 41.7472 42.518 43.4816 46.4199" stroke="#371ED3" stroke-width="4" stroke-linecap="round" stroke-linejoin="round"/>
</svg>
