<svg width="60" height="60" viewBox="0 0 60 60" fill="none" xmlns="http://www.w3.org/2000/svg">
<path d="M28.7206 24.72C28.6137 24.9368 28.4557 25.1243 28.2603 25.2665C28.0648 25.4087 27.8377 25.5012 27.5986 25.5362L24.3997 26.0026L26.7141 28.2577C26.887 28.4267 27.0163 28.6351 27.091 28.865C27.1657 29.0949 27.1836 29.3394 27.1432 29.5778L26.5953 32.7635L29.4554 31.2586C29.6698 31.1457 29.9084 31.0867 30.1507 31.0867C30.3929 31.0867 30.6315 31.1457 30.8459 31.2586L33.706 32.7635L33.1582 29.5778C33.1173 29.3394 33.135 29.0947 33.2098 28.8648C33.2845 28.6348 33.414 28.4265 33.5872 28.2577L35.9017 26.0026L32.705 25.5362C32.466 25.5015 32.2391 25.4092 32.0436 25.2674C31.8482 25.1257 31.6901 24.9385 31.5829 24.7222L30.1507 21.8225L28.7206 24.72ZM12 13.6602C12 12.2014 12.5795 10.8024 13.611 9.77094C14.6425 8.73946 16.0415 8.15997 17.5002 8.15997H42.8011C43.5234 8.15997 44.2386 8.30224 44.906 8.57865C45.5733 8.85506 46.1796 9.2602 46.6903 9.77094C47.2011 10.2817 47.6062 10.888 47.8826 11.5553C48.1591 12.2227 48.3013 12.9379 48.3013 13.6602V45.0113C48.3013 45.4489 48.1275 45.8686 47.818 46.1781C47.5086 46.4875 47.0889 46.6614 46.6513 46.6614H15.3001C15.3001 47.2449 15.5319 47.8045 15.9445 48.2171C16.3571 48.6297 16.9167 48.8615 17.5002 48.8615H46.6513C47.0889 48.8615 47.5086 49.0353 47.818 49.3447C48.1275 49.6542 48.3013 50.0739 48.3013 50.5115C48.3013 50.9491 48.1275 51.3688 47.818 51.6783C47.5086 51.9877 47.0889 52.1616 46.6513 52.1616H17.5002C16.0415 52.1616 14.6425 51.5821 13.611 50.5506C12.5795 49.5191 12 48.1201 12 46.6614V13.6602ZM26.3929 22.6981L20.9807 23.4835C20.7048 23.523 20.4455 23.6389 20.2321 23.8182C20.0187 23.9975 19.8599 24.233 19.7735 24.498C19.6872 24.763 19.6768 25.0469 19.7436 25.3175C19.8103 25.5881 19.9516 25.8346 20.1513 26.029L24.0674 29.8462L23.1434 35.2364C23.0957 35.511 23.1258 35.7935 23.2304 36.0518C23.3351 36.3102 23.51 36.5341 23.7354 36.6981C23.9607 36.8621 24.2276 36.9596 24.5056 36.9797C24.7836 36.9998 25.0617 36.9415 25.3083 36.8116L30.1507 34.2661L34.9908 36.8116C35.2373 36.942 35.5154 37.0006 35.7936 36.9809C36.0717 36.9612 36.3387 36.8639 36.5644 36.7001C36.79 36.5363 36.9652 36.3126 37.0702 36.0542C37.1751 35.7959 37.2055 35.5133 37.1579 35.2386L36.2339 29.8484L40.15 26.029C40.3497 25.8348 40.491 25.5885 40.5579 25.318C40.6247 25.0476 40.6146 24.7638 40.5285 24.4989C40.4423 24.2339 40.2838 23.9984 40.0707 23.8189C39.8576 23.6395 39.5985 23.5233 39.3228 23.4835L33.9106 22.6981L31.4905 17.7919C31.3676 17.5417 31.177 17.331 30.9403 17.1836C30.7037 17.0363 30.4305 16.9581 30.1518 16.9581C29.873 16.9581 29.5998 17.0363 29.3632 17.1836C29.1266 17.331 28.936 17.5417 28.813 17.7919L26.3929 22.6981Z" fill="white"/>
</svg>
