<svg width="40" height="40" viewBox="0 0 40 40" fill="none" xmlns="http://www.w3.org/2000/svg">
<rect x="1.66667" y="1.66667" width="36.6667" height="36.6667" rx="18.3333" fill="white"/>
<rect x="1.66667" y="1.66667" width="36.6667" height="36.6667" rx="18.3333" stroke="#0057FF" stroke-width="3.33333"/>
<path d="M15.4096 13.3333C16.0122 13.3333 16.5696 13.3805 17.0789 13.5201C17.589 13.6134 18.0068 13.8002 18.3774 14.0331C18.749 14.266 19.0272 14.5933 19.2121 15.0129C19.3978 15.4326 19.4912 15.9466 19.4912 16.5058C19.4912 17.1593 19.3516 17.7186 19.0272 18.1382C18.749 18.5588 18.285 18.9314 17.7286 19.2114C18.517 19.4453 19.1196 19.865 19.4912 20.4242C19.8618 20.9844 20.0938 21.6841 20.0938 22.4773C20.0938 23.1308 19.9542 23.69 19.7222 24.1568C19.4912 24.6237 19.1196 25.0433 18.7019 25.3234C18.248 25.6236 17.7464 25.8443 17.2184 25.976C16.662 26.1165 16.1056 26.2099 15.5492 26.2099H9.3335V13.3333H15.4096ZM15.0381 18.5579C15.5483 18.5579 15.966 18.4183 16.2905 18.1854C16.6149 17.9525 16.7544 17.5318 16.7544 17.0188C16.7544 16.7387 16.7073 16.4586 16.6149 16.2729C16.5224 16.0861 16.3829 15.9456 16.198 15.806C16.009 15.7001 15.8057 15.6216 15.5945 15.5731C15.3625 15.526 15.1314 15.526 14.8523 15.526H12.1627V18.5588L15.0381 18.5579ZM15.1776 24.0635C15.4558 24.0635 15.734 24.0163 15.966 23.9701C16.198 23.923 16.43 23.8306 16.6149 23.69C16.8038 23.5535 16.9619 23.3787 17.0789 23.177C17.1713 22.9441 17.2646 22.664 17.2646 22.3377C17.2646 21.6841 17.0789 21.2173 16.7082 20.891C16.3367 20.6109 15.8265 20.4714 15.2239 20.4714H12.1627V24.0644L15.1776 24.0635ZM24.1292 24.0163C24.4998 24.3898 25.0562 24.5765 25.7984 24.5765C26.3086 24.5765 26.7726 24.4369 27.1432 24.204C27.5148 23.9239 27.7467 23.6438 27.8392 23.3637H30.1119C29.7404 24.4831 29.184 25.2763 28.4427 25.7893C27.6996 26.2561 26.8188 26.5362 25.7522 26.5362C25.0697 26.5383 24.393 26.4116 23.7576 26.1627C23.1858 25.9483 22.6759 25.5958 22.2732 25.1367C21.8425 24.7072 21.5242 24.1783 21.3462 23.5967C21.1142 22.9903 21.0208 22.3377 21.0208 21.5908C21.0208 20.891 21.1142 20.2384 21.3462 19.6311C21.5695 19.0464 21.8999 18.5085 22.3204 18.0449C22.7372 17.6252 23.2474 17.2527 23.8038 17.0188C24.4231 16.7699 25.0847 16.6431 25.7522 16.6454C26.5406 16.6454 27.2366 16.7859 27.8392 17.1122C28.4427 17.4385 28.9058 17.8119 29.2764 18.3721C29.648 18.8851 29.9271 19.4915 30.1119 20.1451C30.2044 20.7977 30.2506 21.4512 30.2044 22.1972H23.4794C23.4794 22.9441 23.7576 23.6438 24.1292 24.0173M27.0508 19.119C26.7264 18.7927 26.2162 18.606 25.6126 18.606C25.2587 18.6007 24.9087 18.6806 24.5922 18.8389C24.314 18.9794 24.1292 19.1662 23.9434 19.3529C23.7727 19.5333 23.6597 19.7605 23.619 20.0055C23.5718 20.2394 23.5256 20.4252 23.5256 20.6119H27.6996C27.6072 19.9121 27.3752 19.4463 27.0508 19.119ZM22.9692 14.2198H28.1636V15.4797H22.9701L22.9692 14.2198Z" fill="#0057FF"/>
</svg>
