<svg width="28" height="28" viewBox="0 0 28 28" fill="none" xmlns="http://www.w3.org/2000/svg">
<path d="M12.3569 15.6451C12.8352 16.1001 12.8352 16.8467 12.3569 17.3017C11.9019 17.7567 11.1552 17.7567 10.7002 17.3017C9.6075 16.2074 8.99375 14.7241 8.99375 13.1776C8.99375 11.6311 9.6075 10.1478 10.7002 9.05339L14.8302 4.92339C15.9246 3.83067 17.4079 3.21692 18.9544 3.21692C20.5009 3.21692 21.9842 3.83067 23.0786 4.92339C24.1713 6.01776 24.785 7.50105 24.785 9.04756C24.785 10.5941 24.1713 12.0774 23.0786 13.1717L21.3402 14.9101C21.3519 13.9534 21.2002 12.9967 20.8736 12.0867L21.4219 11.5267C21.749 11.2032 22.0086 10.818 22.1858 10.3935C22.363 9.96891 22.4542 9.51344 22.4542 9.05339C22.4542 8.59335 22.363 8.13787 22.1858 7.71332C22.0086 7.28878 21.749 6.90359 21.4219 6.58006C21.0984 6.253 20.7132 5.99335 20.2886 5.81615C19.8641 5.63894 19.4086 5.5477 18.9486 5.5477C18.4885 5.5477 18.033 5.63894 17.6085 5.81615C17.1839 5.99335 16.7988 6.253 16.4752 6.58006L12.3569 10.6984C12.0298 11.0219 11.7702 11.4071 11.593 11.8317C11.4158 12.2562 11.3245 12.7117 11.3245 13.1717C11.3245 13.6318 11.4158 14.0872 11.593 14.5118C11.7702 14.9363 12.0298 15.3215 12.3569 15.6451ZM15.6469 10.6984C16.1019 10.2434 16.8486 10.2434 17.3036 10.6984C18.3963 11.7928 19.01 13.2761 19.01 14.8226C19.01 16.3691 18.3963 17.8524 17.3036 18.9467L13.1736 23.0767C12.0792 24.1695 10.5959 24.7832 9.04939 24.7832C7.50288 24.7832 6.01959 24.1695 4.92522 23.0767C3.8325 21.9824 3.21875 20.4991 3.21875 18.9526C3.21875 17.4061 3.8325 15.9228 4.92522 14.8284L6.66356 13.0901C6.65189 14.0467 6.80356 15.0034 7.13022 15.9251L6.58189 16.4734C6.25483 16.7969 5.99518 17.1821 5.81798 17.6067C5.64078 18.0312 5.54953 18.4867 5.54953 18.9467C5.54953 19.4068 5.64078 19.8622 5.81798 20.2868C5.99518 20.7113 6.25483 21.0965 6.58189 21.4201C6.90542 21.7471 7.29061 22.0068 7.71515 22.184C8.1397 22.3612 8.59518 22.4524 9.05522 22.4524C9.51527 22.4524 9.97074 22.3612 10.3953 22.184C10.8198 22.0068 11.205 21.7471 11.5286 21.4201L15.6469 17.3017C15.9739 16.9782 16.2336 16.593 16.4108 16.1685C16.588 15.7439 16.6792 15.2884 16.6792 14.8284C16.6792 14.3683 16.588 13.9129 16.4108 13.4883C16.2336 13.0638 15.9739 12.6786 15.6469 12.3551C15.5336 12.2489 15.4433 12.1206 15.3815 11.9781C15.3198 11.8356 15.2879 11.682 15.2879 11.5267C15.2879 11.3714 15.3198 11.2178 15.3815 11.0753C15.4433 10.9329 15.5336 10.8046 15.6469 10.6984Z" fill="black"/>
</svg>
