<svg width="43" height="43" viewBox="0 0 43 43" fill="none" xmlns="http://www.w3.org/2000/svg">
<path d="M21.0833 0C9.44533 0 0 9.44533 0 21.0833C0 32.7213 9.44533 42.1667 21.0833 42.1667C32.7213 42.1667 42.1667 32.7213 42.1667 21.0833C42.1667 9.44533 32.7213 0 21.0833 0ZM30.866 14.3367C30.5497 17.6678 29.1793 25.7638 28.4836 29.4956C28.1884 31.0768 27.5981 31.6039 27.0499 31.6672C25.8271 31.7726 24.8994 30.866 23.7188 30.0859C21.8634 28.8631 20.8093 28.1041 19.0172 26.9234C16.9299 25.553 18.2792 24.794 19.481 23.5712C19.7972 23.2549 25.1946 18.3425 25.3 17.8997C25.3146 17.8327 25.3127 17.7631 25.2943 17.6969C25.276 17.6308 25.2417 17.5702 25.1946 17.5203C25.0681 17.4148 24.8994 17.457 24.7518 17.4781C24.5621 17.5203 21.6104 19.481 15.8547 23.3603C15.0113 23.9296 14.2523 24.2247 13.5777 24.2037C12.8187 24.1826 11.385 23.782 10.3097 23.4236C8.9815 23.0019 7.94842 22.77 8.03275 22.0321C8.07492 21.6526 8.602 21.2731 9.59292 20.8725C15.7493 18.1949 19.8394 16.4239 21.8845 15.5806C27.7457 13.1349 28.9474 12.7132 29.7486 12.7132C29.9173 12.7132 30.3178 12.7554 30.5708 12.9662C30.7817 13.1349 30.8449 13.3668 30.866 13.5355C30.8449 13.662 30.8871 14.0415 30.866 14.3367Z" fill="white"/>
</svg>
