<svg width="40" height="40" viewBox="0 0 40 40" fill="none" xmlns="http://www.w3.org/2000/svg">
<rect x="1.66667" y="1.66667" width="36.6667" height="36.6667" rx="18.3333" fill="white"/>
<rect x="1.66667" y="1.66667" width="36.6667" height="36.6667" rx="18.3333" stroke="#00AEED" stroke-width="3.33333"/>
<rect x="9.18359" y="9.83337" width="22.6167" height="20.65" fill="#00AEED"/>
<path d="M20.0002 3.2778C10.9535 3.2778 3.61133 10.62 3.61133 19.6667C3.61133 28.7133 10.9535 36.0556 20.0002 36.0556C29.0469 36.0556 36.3891 28.7133 36.3891 19.6667C36.3891 10.62 29.0469 3.2778 20.0002 3.2778ZM27.6047 14.4222C27.3588 17.0117 26.2935 23.305 25.7527 26.2058C25.5233 27.435 25.0644 27.8447 24.6383 27.8939C23.6877 27.9758 22.9666 27.2711 22.0488 26.6647C20.6066 25.7142 19.7872 25.1242 18.3941 24.2064C16.7716 23.1411 17.8205 22.5511 18.7547 21.6006C19.0005 21.3547 23.196 17.5361 23.278 17.192C23.2894 17.1398 23.2879 17.0857 23.2736 17.0343C23.2593 16.9829 23.2327 16.9358 23.196 16.897C23.0977 16.815 22.9666 16.8478 22.8519 16.8642C22.7044 16.897 20.4099 18.4211 15.9358 21.4367C15.2802 21.8792 14.6902 22.1086 14.1658 22.0922C13.5758 22.0758 12.4613 21.7645 11.6255 21.4859C10.593 21.1581 9.78994 20.9778 9.85549 20.4042C9.88827 20.1092 10.298 19.8142 11.0683 19.5028C15.8538 17.4214 19.0333 16.0447 20.623 15.3892C25.1791 13.4881 26.1133 13.1603 26.736 13.1603C26.8672 13.1603 27.1785 13.1931 27.3752 13.357C27.5391 13.4881 27.5883 13.6684 27.6047 13.7995C27.5883 13.8978 27.621 14.1928 27.6047 14.4222Z" fill="white"/>
</svg>
