<svg width="43" height="43" viewBox="0 0 43 43" fill="none" xmlns="http://www.w3.org/2000/svg">
<path d="M27.5622 0H14.6255C2.81041 0 0 2.81041 0 14.6044V27.5412C0 39.3542 2.78932 42.1667 14.6044 42.1667H27.5412C39.3542 42.1667 42.1667 39.3773 42.1667 27.5622V14.6255C42.1667 2.81041 39.3773 0 27.5622 0ZM34.0412 30.0859H30.9651C29.8013 30.0859 29.4513 29.1435 27.3641 27.0562C25.5425 25.3 24.7729 25.0807 24.3112 25.0807C23.6745 25.0807 23.4995 25.2557 23.4995 26.1349V28.901C23.4995 29.6495 23.257 30.088 21.3026 30.088C19.4058 29.9606 17.5665 29.3843 15.936 28.4067C14.3056 27.4291 12.9308 26.0781 11.9247 24.4651C9.53635 21.4923 7.8745 18.0033 7.07135 14.2755C7.07135 13.8138 7.24634 13.3964 8.12552 13.3964H11.1995C11.9901 13.3964 12.2747 13.7484 12.5846 14.5602C14.0773 18.9539 16.6242 22.7742 17.6573 22.7742C18.0537 22.7742 18.2265 22.5992 18.2265 21.6104V17.0859C18.0958 15.0219 16.9995 14.8469 16.9995 14.1005C17.0136 13.9037 17.1038 13.72 17.251 13.5886C17.3982 13.4571 17.5908 13.3882 17.788 13.3964H22.6203C23.2802 13.3964 23.4995 13.7253 23.4995 14.5159V20.6216C23.4995 21.2815 23.7841 21.5008 23.9823 21.5008C24.3787 21.5008 24.6844 21.2815 25.4096 20.5563C26.9674 18.6565 28.2401 16.54 29.1878 14.2734C29.2846 14.0012 29.4679 13.7681 29.7096 13.6097C29.9514 13.4513 30.2383 13.3764 30.5266 13.3964H33.6026C34.524 13.3964 34.72 13.8581 34.524 14.5159C33.4055 17.0215 32.0215 19.3999 30.3958 21.6104C30.0648 22.1164 29.932 22.38 30.3958 22.9724C30.7015 23.4341 31.7789 24.3344 32.5042 25.1904C33.5581 26.2417 34.4334 27.458 35.0953 28.7914C35.3589 29.6474 34.9182 30.0859 34.0412 30.0859Z" fill="white"/>
</svg>
