<svg width="40" height="40" viewBox="0 0 40 40" fill="none" xmlns="http://www.w3.org/2000/svg">
<rect x="1.66667" y="1.66667" width="36.6667" height="36.6667" rx="18.3333" fill="white"/>
<rect x="1.66667" y="1.66667" width="36.6667" height="36.6667" rx="18.3333" stroke="#087BFF" stroke-width="3.33333"/>
<rect x="9.625" y="10.5834" width="22.0417" height="20.125" fill="#087BFF"/>
<path d="M9.5 9C7.4875 11.0317 5.79199 13.0846 5.79199 19.5917V20.7417C5.79199 27.2392 6.9875 29.4588 9 31.5C11.0317 33.5125 13.0849 34.5417 19.592 34.5417H20.742C27.2395 34.5417 29.4588 33.0125 31.5 31C33.5125 28.9683 34.542 27.2488 34.542 20.7417V19.5917C34.542 13.0942 33.5125 11.0412 31.5 9C29.4683 6.9875 27.2491 5.79169 20.742 5.79169H19.592C13.0945 5.79169 11.5412 6.9875 9.5 9ZM10.6412 14.5413H13.9378C14.0432 20.0229 16.4582 22.3421 18.3749 22.8213V14.5413H21.4703V19.2659C23.3582 19.0646 25.3516 16.9084 26.0224 14.5317H29.1082C28.8567 15.762 28.3541 16.9272 27.6319 17.9545C26.9097 18.9818 25.9833 19.849 24.9107 20.5021C26.1078 21.0977 27.1649 21.9403 28.0123 22.9744C28.8597 24.0085 29.4782 25.2106 29.827 26.5013H26.4249C25.6966 24.23 23.8757 22.4667 21.4703 22.2271V26.5013H21.087C14.532 26.5013 10.7945 22.0163 10.6412 14.5413Z" fill="white"/>
</svg>
