<svg width="80" height="80" viewBox="0 0 80 80" fill="none" xmlns="http://www.w3.org/2000/svg">
<path d="M65.3077 14H13.6923C12.4478 14 11.2543 14.4981 10.3743 15.3846C9.49437 16.2711 9 17.4735 9 18.7273V61.2727C9 62.5265 9.49437 63.7289 10.3743 64.6154C11.2543 65.5019 12.4478 66 13.6923 66H17.6192C18.0632 66.0001 18.4982 65.8733 18.8735 65.6343C19.2488 65.3953 19.5491 65.0539 19.7395 64.6498C20.8804 62.2231 22.6816 60.1726 24.9337 58.7368C27.1859 57.3009 29.7963 56.5386 32.4615 56.5386C35.1268 56.5386 37.7372 57.3009 39.9893 58.7368C42.2415 60.1726 44.0427 62.2231 45.1836 64.6498C45.3739 65.0539 45.6742 65.3953 46.0496 65.6343C46.4249 65.8733 46.8599 66.0001 47.3039 66H65.3077C66.5522 66 67.7457 65.5019 68.6257 64.6154C69.5056 63.7289 70 62.5265 70 61.2727V18.7273C70 17.4735 69.5056 16.2711 68.6257 15.3846C67.7457 14.4981 66.5522 14 65.3077 14ZM32.4615 51.8182C30.6054 51.8182 28.791 51.2637 27.2477 50.2248C25.7044 49.1859 24.5016 47.7093 23.7913 45.9817C23.081 44.2541 22.8951 42.3531 23.2572 40.5191C23.6194 38.6851 24.5132 37.0005 25.8256 35.6783C27.1381 34.356 28.8103 33.4556 30.6307 33.0908C32.4511 32.726 34.3381 32.9132 36.0529 33.6288C37.7677 34.3444 39.2334 35.5562 40.2646 37.111C41.2958 38.6658 41.8462 40.4937 41.8462 42.3636C41.8462 44.8711 40.8574 47.2759 39.0975 49.049C37.3375 50.8221 34.9505 51.8182 32.4615 51.8182ZM65.3077 61.2727H48.7174C47.6946 59.4961 46.3911 57.8993 44.858 56.5455H58.2692C58.8915 56.5455 59.4882 56.2964 59.9282 55.8532C60.3682 55.4099 60.6154 54.8087 60.6154 54.1818V25.8182C60.6154 25.1913 60.3682 24.5901 59.9282 24.1468C59.4882 23.7036 58.8915 23.4545 58.2692 23.4545H20.7308C20.1085 23.4545 19.5118 23.7036 19.0718 24.1468C18.6318 24.5901 18.3846 25.1913 18.3846 25.8182V54.1818C18.3844 54.706 18.5571 55.2155 18.8756 55.63C19.1941 56.0445 19.6404 56.3405 20.1442 56.4716C18.5759 57.8406 17.2448 59.4631 16.2056 61.2727H13.6923V18.7273H65.3077V61.2727Z" fill="#371ED3"/>
</svg>
