<svg width="766" height="588" viewBox="0 0 766 588" fill="none" xmlns="http://www.w3.org/2000/svg">
<rect x="2.78967" y="584.004" width="581.754" height="759.374" rx="29.9359" transform="rotate(-90 2.78967 584.004)" fill="#111111" stroke="#97989D" stroke-width="3.99145"/>
<path d="M764 502.433V502.433C765.099 502.433 765.99 503.324 765.99 504.423V533.275C765.99 534.374 765.099 535.265 764 535.265V535.265V502.433Z" fill="#97989D"/>
<path d="M651.622 586V586C651.622 587.099 650.731 587.99 649.632 587.99L599.887 587.99C598.788 587.99 597.897 587.099 597.897 586V586L651.622 586Z" fill="#97989D"/>
<path d="M712.312 586V586C712.312 587.099 711.421 587.99 710.322 587.99L660.576 587.99C659.477 587.99 658.587 587.099 658.587 586V586L712.312 586Z" fill="#97989D"/>
</svg>
