<svg width="88" height="88" viewBox="0 0 88 88" fill="none" xmlns="http://www.w3.org/2000/svg">
<g clip-path="url(#clip0_833_30)">
<path d="M50.9419 21.6644C61.5108 25.0018 66.5611 35.1607 63.0481 46.2859C50.005 47.0305 37.1414 42.9684 26.8912 34.8684C30.4043 23.7433 40.3729 18.327 50.9419 21.6644ZM52.6984 16.1018C39.6263 11.9739 25.9835 18.3711 21.2408 33.39C20.7051 35.6678 21.481 38.0538 23.2756 39.5381L27.5647 42.4218L25.5447 48.8188C25.4282 49.1876 25.17 49.4951 24.8269 49.6735C24.4837 49.8519 24.0837 49.8868 23.7149 49.7703C23.3461 49.6538 23.0386 49.3956 22.8602 49.0525C22.6817 48.7093 22.6469 48.3093 22.7634 47.9405C22.928 47.5788 23.0082 47.1843 22.9978 46.7869C22.9873 46.3896 22.8866 45.9999 22.7032 45.6472C22.5199 45.2946 22.2586 44.9883 21.9393 44.7516C21.6201 44.5149 21.2511 44.3539 20.8604 44.281C20.4986 44.1163 20.1041 44.0362 19.7068 44.0466C19.3094 44.057 18.9197 44.1577 18.5671 44.3411C18.2144 44.5245 17.9081 44.7857 17.6714 45.105C17.4347 45.4243 17.2738 45.7933 17.2008 46.184C16.8813 47.072 16.7443 48.0153 16.7979 48.9575C16.8516 49.8997 17.0948 50.8214 17.513 51.6674C17.9312 52.5134 18.5159 53.2663 19.2319 53.8811C19.948 54.4958 20.7807 54.9597 21.6802 55.2451L21.9584 55.3329C25.8273 56.7381 30.0358 54.5496 31.1073 50.5753L32.6882 45.569L35.4694 46.4473L30.4633 62.3006C29.8749 64.1641 27.0936 63.2858 27.682 61.4224C27.8467 61.0606 27.9268 60.6661 27.9164 60.2688C27.906 59.8714 27.8053 59.4817 27.6219 59.1291C27.4385 58.7764 27.1773 58.4701 26.858 58.2334C26.5387 57.9967 26.1697 57.8358 25.779 57.7628C25.4172 57.5982 25.0228 57.518 24.6254 57.5284C24.2281 57.5389 23.8383 57.6396 23.4857 57.823C23.1331 58.0063 22.8268 58.2676 22.5901 58.5868C22.3534 58.9061 22.1924 59.2751 22.1195 59.6658C20.5839 63.463 22.6173 67.7755 26.5111 69.005L26.7892 69.0929C30.6581 70.4981 34.8666 68.3096 35.9381 64.3353L40.7686 49.0382L43.5498 49.9164L38.7194 65.2136C38.3856 66.1246 38.2454 67.0951 38.3076 68.0634C38.3698 69.0316 38.6331 69.9763 39.0808 70.8371C39.5284 71.6979 40.1505 72.456 40.9074 73.0629C41.6644 73.6699 42.5395 74.1125 43.477 74.3625L43.7551 74.4503C47.5655 75.6535 51.5983 73.4401 52.6259 69.6049C53.7939 65.9058 48.2314 64.1492 47.0633 67.8483C46.4748 69.7118 43.6935 68.8335 44.282 66.9701L49.2881 51.1167L52.0694 51.995L50.4885 57.0013C49.2941 60.7839 51.4708 64.8357 55.3339 65.8721L55.612 65.9599C59.4224 67.1631 63.4552 64.9498 64.4828 61.1145C65.6509 57.4154 60.0883 55.6588 58.9202 59.358C58.3318 61.2214 55.5505 60.3432 56.1389 58.4797L58.1589 52.0827L63.3263 52.1851C65.6274 51.8718 67.5874 50.4109 68.5228 48.3205C73.2654 33.3016 65.7705 20.2296 52.6984 16.1018ZM49.0097 27.7832C44.5699 27.6047 40.1652 29.0583 36.7135 31.8528C35.1355 32.9756 33.4374 30.6042 35.0154 29.4814C39.0828 26.278 44.1581 24.6277 49.3317 24.8263C49.5273 24.8436 49.7175 24.9003 49.8907 24.993C50.0639 25.0856 50.2166 25.2123 50.3396 25.3654C50.4626 25.5185 50.5535 25.6949 50.6067 25.884C50.6599 26.0731 50.6743 26.2709 50.6491 26.4657C50.6638 27.388 49.9319 27.7686 49.0097 27.7832Z" fill="url(#paint0_linear_833_30)"/>
</g>
<defs>
<linearGradient id="paint0_linear_833_30" x1="52.6925" y1="16.0999" x2="35.125" y2="71.7326" gradientUnits="userSpaceOnUse">
<stop stop-color="#49C3EA"/>
<stop offset="1" stop-color="#472DE9"/>
</linearGradient>
<clipPath id="clip0_833_30">
<rect width="70" height="70" fill="white" transform="translate(21.0781) rotate(17.5249)"/>
</clipPath>
</defs>
</svg>
