<svg width="24" height="24" viewBox="0 0 24 24" fill="none" xmlns="http://www.w3.org/2000/svg">
<path d="M15.2839 0.25H8.22755C1.78295 0.25 0.25 1.78295 0.25 8.21605V15.2724C0.25 21.7159 1.77145 23.25 8.21605 23.25H15.2724C21.7159 23.25 23.25 21.7285 23.25 15.2839V8.22755C23.25 1.78295 21.7285 0.25 15.2839 0.25ZM18.8179 16.6605H17.1401C16.5053 16.6605 16.3143 16.1464 15.1758 15.0079C14.1822 14.05 13.7625 13.9304 13.5106 13.9304C13.1633 13.9304 13.0679 14.0258 13.0679 14.5054V16.0142C13.0679 16.4225 12.9357 16.6616 11.8696 16.6616C10.835 16.5921 9.83171 16.2778 8.94239 15.7446C8.05306 15.2113 7.30314 14.4744 6.7544 13.5946C5.45164 11.9731 4.54518 10.07 4.1071 8.03665C4.1071 7.7848 4.20255 7.5571 4.6821 7.5571H6.3588C6.79005 7.5571 6.9453 7.74915 7.11435 8.1919C7.92855 10.5885 9.31775 12.6723 9.88125 12.6723C10.0974 12.6723 10.1918 12.5768 10.1918 12.0375V9.5696C10.1205 8.44375 9.52245 8.3483 9.52245 7.9412C9.53013 7.83382 9.57934 7.73366 9.65963 7.66196C9.73992 7.59025 9.84499 7.55264 9.95255 7.5571H12.5884C12.9483 7.5571 13.0679 7.7365 13.0679 8.16775V11.4981C13.0679 11.8581 13.2232 11.9777 13.3313 11.9777C13.5475 11.9777 13.7142 11.8581 14.1098 11.4625C14.9595 10.4263 15.6537 9.27184 16.1706 8.0355C16.2234 7.88699 16.3234 7.75985 16.4553 7.67347C16.5871 7.58709 16.7436 7.54622 16.9009 7.5571H18.5787C19.0812 7.5571 19.1882 7.80895 19.0812 8.16775C18.4712 9.53444 17.7163 10.8318 16.8295 12.0375C16.649 12.3135 16.5765 12.4572 16.8295 12.7804C16.9963 13.0322 17.5839 13.5233 17.9795 13.9902C18.5544 14.5636 19.0318 15.2271 19.3929 15.9544C19.5366 16.4213 19.2963 16.6605 18.8179 16.6605Z" fill="#0077FF"/>
</svg>
