<svg width="28" height="28" viewBox="0 0 28 28" fill="none" xmlns="http://www.w3.org/2000/svg">
<path d="M13.9987 2.33337C7.5587 2.33337 2.33203 7.56004 2.33203 14C2.33203 20.44 7.5587 25.6667 13.9987 25.6667C20.4387 25.6667 25.6654 20.44 25.6654 14C25.6654 7.56004 20.4387 2.33337 13.9987 2.33337ZM19.412 10.2667C19.237 12.11 18.4787 16.59 18.0937 18.655C17.9304 19.53 17.6037 19.8217 17.3004 19.8567C16.6237 19.915 16.1104 19.4134 15.457 18.9817C14.4304 18.305 13.847 17.885 12.8554 17.2317C11.7004 16.4734 12.447 16.0534 13.112 15.3767C13.287 15.2017 16.2737 12.4834 16.332 12.2384C16.3401 12.2013 16.3391 12.1627 16.3289 12.1261C16.3187 12.0895 16.2998 12.056 16.2737 12.0284C16.2037 11.97 16.1104 11.9934 16.0287 12.005C15.9237 12.0284 14.2904 13.1134 11.1054 15.26C10.6387 15.575 10.2187 15.7384 9.84536 15.7267C9.42536 15.715 8.63203 15.4934 8.03703 15.295C7.30203 15.0617 6.73036 14.9334 6.77703 14.525C6.80036 14.315 7.09203 14.105 7.64037 13.8834C11.047 12.4017 13.3104 11.4217 14.442 10.955C17.6854 9.60171 18.3504 9.36837 18.7937 9.36837C18.887 9.36837 19.1087 9.39171 19.2487 9.50837C19.3654 9.60171 19.4004 9.73004 19.412 9.82337C19.4004 9.89337 19.4237 10.1034 19.412 10.2667Z" fill="#0088CC"/>
</svg>
