<svg width="120" height="40" viewBox="0 0 120 40" fill="none" xmlns="http://www.w3.org/2000/svg">
<g clip-path="url(#clip0_1207_1121)">
<path d="M110.135 0.00013H9.53468C9.16798 0.00013 8.80568 0.00013 8.43995 0.00213C8.1338 0.00413 7.83009 0.00994 7.521 0.01483C6.84951 0.0227318 6.17961 0.0818063 5.5171 0.19154C4.85552 0.303663 4.21467 0.515046 3.61622 0.81854C3.0185 1.1246 2.47235 1.5223 1.99757 1.9972C1.5203 2.47077 1.12246 3.01815 0.81935 3.61829C0.5154 4.21724 0.304641 4.85907 0.19435 5.52161C0.0830109 6.18332 0.0230984 6.85265 0.01515 7.52361C0.00587 7.83021 0.00489 8.13783 0 8.44447V31.5587C0.00489 31.8692 0.00587 32.17 0.01515 32.4806C0.0231008 33.1516 0.0830134 33.8209 0.19435 34.4825C0.304336 35.1455 0.515108 35.7877 0.81935 36.3868C1.12233 36.985 1.52022 37.5302 1.99757 38.0011C2.47054 38.4781 3.01705 38.8761 3.61622 39.1798C4.21467 39.4841 4.85545 39.6968 5.5171 39.8106C6.17972 39.9195 6.84956 39.9786 7.521 39.9874C7.83009 39.9942 8.1338 39.9981 8.43995 39.9981C8.80567 40.0001 9.168 40.0001 9.53468 40.0001H110.135C110.494 40.0001 110.859 40.0001 111.219 39.9981C111.523 39.9981 111.836 39.9942 112.141 39.9874C112.811 39.9791 113.479 39.92 114.141 39.8106C114.804 39.696 115.448 39.4834 116.049 39.1798C116.647 38.8759 117.193 38.478 117.666 38.0011C118.142 37.5284 118.541 36.9836 118.848 36.3868C119.15 35.7872 119.358 35.1451 119.467 34.4825C119.578 33.8208 119.64 33.1516 119.652 32.4806C119.656 32.17 119.656 31.8692 119.656 31.5587C119.664 31.1954 119.664 30.8341 119.664 30.4649V9.53626C119.664 9.17005 119.664 8.80677 119.656 8.44447C119.656 8.13783 119.656 7.83021 119.652 7.52357C119.64 6.85255 119.578 6.18337 119.467 5.52157C119.358 4.85941 119.149 4.21763 118.848 3.61825C118.23 2.41533 117.252 1.43616 116.049 0.81845C115.448 0.515697 114.804 0.30437 114.141 0.19145C113.48 0.0812328 112.811 0.0221378 112.141 0.01469C111.836 0.00981 111.523 0.00395 111.219 0.002C110.859 0 110.494 0.00013 110.135 0.00013Z" fill="#4C82EF"/>
<path d="M8.44487 39.125C8.14019 39.125 7.84287 39.1211 7.54058 39.1143C6.91436 39.1061 6.2896 39.0516 5.67144 38.9512C5.09503 38.8519 4.53664 38.6673 4.0147 38.4033C3.49754 38.1415 3.02585 37.7983 2.6177 37.3867C2.20364 36.98 1.85891 36.5082 1.59719 35.9902C1.33258 35.4688 1.14945 34.9099 1.05419 34.333C0.951311 33.7131 0.895651 33.0863 0.887687 32.458C0.881347 32.2471 0.873047 31.5449 0.873047 31.5449V8.44434C0.873047 8.44434 0.881887 7.75293 0.887737 7.5498C0.895363 6.92248 0.950699 6.29665 1.05327 5.67773C1.14871 5.09925 1.33197 4.53875 1.59673 4.01563C1.85749 3.49794 2.2003 3.02586 2.61187 2.61768C3.02297 2.20562 3.49617 1.8606 4.01421 1.59521C4.53495 1.33209 5.09228 1.14873 5.66753 1.05127C6.28772 0.949836 6.91465 0.894996 7.54304 0.88721L8.44536 0.875H111.214L112.127 0.8877C112.75 0.895099 113.371 0.94945 113.985 1.05029C114.566 1.14898 115.13 1.33362 115.656 1.59814C116.694 2.13299 117.539 2.97916 118.071 4.01807C118.332 4.53758 118.512 5.09351 118.607 5.66699C118.71 6.29099 118.768 6.92174 118.78 7.5542C118.783 7.8374 118.783 8.1416 118.783 8.44434C118.791 8.81934 118.791 9.17627 118.791 9.53613V30.4648C118.791 30.8281 118.791 31.1826 118.783 31.54C118.783 31.8652 118.783 32.1631 118.779 32.4697C118.768 33.0909 118.711 33.7104 118.608 34.3232C118.515 34.9043 118.333 35.4675 118.068 35.9932C117.805 36.5056 117.462 36.9733 117.053 37.3789C116.644 37.7927 116.172 38.1379 115.653 38.4014C115.128 38.6674 114.566 38.8527 113.985 38.9512C113.367 39.0522 112.742 39.1067 112.116 39.1143C111.823 39.1211 111.517 39.125 111.219 39.125L110.135 39.127L8.44487 39.125Z" fill="white"/>
<path d="M24.9965 19.8894C25.0077 19.0214 25.2383 18.1704 25.6667 17.4154C26.0952 16.6605 26.7077 16.0263 27.4471 15.5716C26.9774 14.9007 26.3576 14.3486 25.6372 13.9591C24.9167 13.5696 24.1153 13.3535 23.2967 13.3279C21.5505 13.1446 19.8576 14.3728 18.9677 14.3728C18.0607 14.3728 16.6906 13.3461 15.2153 13.3764C14.261 13.4073 13.331 13.6848 12.5158 14.1819C11.7007 14.679 11.0282 15.3788 10.5639 16.2131C8.55278 19.6951 10.0529 24.8125 11.9794 27.6271C12.9433 29.0054 14.0698 30.5449 15.5438 30.4903C16.9862 30.4305 17.5249 29.5705 19.266 29.5705C20.9909 29.5705 21.4963 30.4903 23.0003 30.4556C24.548 30.4305 25.5232 29.0712 26.4533 27.6799C27.1458 26.6979 27.6787 25.6125 28.0323 24.4641C27.133 24.0837 26.3657 23.4471 25.8258 22.6336C25.286 21.8201 24.9976 20.8657 24.9965 19.8894Z" fill="#4C82EF"/>
<path d="M22.1559 11.4768C22.9998 10.4637 23.4155 9.1616 23.3149 7.84692C22.0256 7.98234 20.8346 8.59854 19.9793 9.57274C19.5611 10.0487 19.2408 10.6023 19.0368 11.2021C18.8327 11.8019 18.7488 12.436 18.79 13.0682C19.4348 13.0749 20.0728 12.9351 20.6558 12.6594C21.2389 12.3838 21.7518 11.9794 22.1559 11.4768Z" fill="#4C82EF"/>
<path d="M42.3018 27.1397H37.5684L36.4316 30.4961H34.4268L38.9102 18.0781H40.9932L45.4766 30.4961H43.4375L42.3018 27.1397ZM38.0586 25.5908H41.8106L39.961 20.1436H39.9092L38.0586 25.5908Z" fill="#4C82EF"/>
<path d="M55.1592 25.9697C55.1592 28.7832 53.6533 30.5908 51.3809 30.5908C50.8052 30.6209 50.2327 30.4883 49.7289 30.2082C49.2251 29.9281 48.8104 29.5117 48.5323 29.0068H48.4893V33.4912H46.6309V21.4424H48.4297V22.9483H48.4639C48.7548 22.4458 49.1766 22.0316 49.6842 21.7498C50.1918 21.4679 50.7664 21.3289 51.3467 21.3477C53.6446 21.3477 55.1592 23.1641 55.1592 25.9697ZM53.249 25.9697C53.249 24.1367 52.3018 22.9317 50.8565 22.9317C49.4365 22.9317 48.4815 24.1621 48.4815 25.9697C48.4815 27.794 49.4365 29.0156 50.8565 29.0156C52.3018 29.0156 53.249 27.8194 53.249 25.9697Z" fill="#4C82EF"/>
<path d="M65.1245 25.9697C65.1245 28.7832 63.6182 30.5908 61.3457 30.5908C60.7701 30.6209 60.1976 30.4883 59.6938 30.2082C59.19 29.9281 58.7753 29.5117 58.4971 29.0068H58.4541V33.4912H56.5957V21.4424H58.3945V22.9483H58.4287C58.7197 22.4458 59.1414 22.0316 59.649 21.7498C60.1567 21.4679 60.7312 21.3289 61.3115 21.3477C63.6094 21.3477 65.1245 23.1641 65.1245 25.9697ZM63.2139 25.9697C63.2139 24.1367 62.2666 22.9317 60.8213 22.9317C59.4014 22.9317 58.4463 24.1621 58.4463 25.9697C58.4463 27.794 59.4014 29.0156 60.8213 29.0156C62.2666 29.0156 63.2139 27.8194 63.2139 25.9697Z" fill="#4C82EF"/>
<path d="M71.7095 27.0361C71.8472 28.2676 73.0435 29.0761 74.6783 29.0761C76.2447 29.0761 77.3716 28.2675 77.3716 27.1572C77.3716 26.1933 76.6919 25.6162 75.0826 25.2207L73.4732 24.833C71.1929 24.2822 70.1343 23.2158 70.1343 21.4853C70.1343 19.3427 72.0015 17.871 74.6519 17.871C77.2769 17.871 79.0757 19.3427 79.1363 21.4853H77.2603C77.148 20.246 76.1236 19.498 74.6265 19.498C73.1294 19.498 72.105 20.2548 72.105 21.3564C72.105 22.2343 72.7593 22.7509 74.3599 23.1464L75.7281 23.4823C78.2759 24.0849 79.3335 25.1083 79.3335 26.9247C79.3335 29.248 77.4839 30.703 74.5405 30.703C71.7866 30.703 69.9272 29.2821 69.8071 27.036L71.7095 27.0361Z" fill="#4C82EF"/>
<path d="M83.3462 19.2998V21.4424H85.0679V22.9141H83.3462V27.9053C83.3462 28.6807 83.6909 29.042 84.4477 29.042C84.6521 29.0384 84.8562 29.0241 85.0591 28.999V30.4619C84.7188 30.5255 84.3729 30.5543 84.0268 30.5478C82.1938 30.5478 81.479 29.8593 81.479 28.1035V22.9141H80.1626V21.4424H81.479V19.2998H83.3462Z" fill="#4C82EF"/>
<path d="M86.064 25.9697C86.064 23.1211 87.7417 21.3311 90.3579 21.3311C92.9829 21.3311 94.6528 23.1211 94.6528 25.9697C94.6528 28.8262 92.9917 30.6084 90.3579 30.6084C87.7251 30.6084 86.064 28.8262 86.064 25.9697ZM92.7593 25.9697C92.7593 24.0156 91.8638 22.8623 90.3579 22.8623C88.852 22.8623 87.9565 24.0244 87.9565 25.9697C87.9565 27.9317 88.852 29.0762 90.3579 29.0762C91.8638 29.0762 92.7593 27.9317 92.7593 25.9697Z" fill="#4C82EF"/>
<path d="M96.1851 21.4424H97.9575V22.9834H98.0005C98.1205 22.5021 98.4024 22.0768 98.799 21.7789C99.1956 21.481 99.6826 21.3287 100.178 21.3476C100.392 21.3469 100.606 21.3702 100.815 21.417V23.1553C100.545 23.0726 100.263 23.0347 99.98 23.043C99.71 23.032 99.4409 23.0796 99.191 23.1825C98.9412 23.2854 98.7166 23.4411 98.5326 23.639C98.3486 23.8369 98.2096 24.0723 98.1252 24.3289C98.0408 24.5856 98.0129 24.8575 98.0435 25.126V30.4961H96.1851L96.1851 21.4424Z" fill="#4C82EF"/>
<path d="M109.383 27.8369C109.133 29.4805 107.533 30.6084 105.485 30.6084C102.851 30.6084 101.216 28.8437 101.216 26.0127C101.216 23.1729 102.86 21.3311 105.407 21.3311C107.912 21.3311 109.487 23.0518 109.487 25.7969V26.4336H103.092V26.5459C103.063 26.8791 103.104 27.2148 103.215 27.5306C103.325 27.8464 103.501 28.1352 103.731 28.3778C103.962 28.6203 104.241 28.8111 104.551 28.9374C104.86 29.0637 105.194 29.1226 105.528 29.1103C105.967 29.1515 106.408 29.0498 106.784 28.8203C107.161 28.5909 107.454 28.246 107.619 27.8369L109.383 27.8369ZM103.101 25.1348H107.627C107.644 24.8352 107.599 24.5354 107.494 24.2541C107.389 23.9729 107.228 23.7164 107.019 23.5006C106.811 23.2849 106.56 23.1145 106.282 23.0003C106.005 22.8861 105.707 22.8305 105.407 22.8369C105.104 22.8351 104.804 22.8933 104.524 23.008C104.244 23.1227 103.989 23.2918 103.775 23.5054C103.561 23.7191 103.391 23.973 103.275 24.2527C103.159 24.5323 103.1 24.8321 103.101 25.1348Z" fill="#4C82EF"/>
<path d="M36.7383 11.2534H37.5361C37.6735 11.2705 37.8129 11.259 37.9455 11.2195C38.0782 11.1801 38.2013 11.1136 38.307 11.0242C38.4127 10.9349 38.4987 10.8246 38.5596 10.7003C38.6206 10.5761 38.6552 10.4405 38.6611 10.3023C38.6611 9.75196 38.2471 9.39649 37.5449 9.39649C37.4042 9.37683 37.261 9.38556 37.1237 9.42217C36.9864 9.45878 36.8579 9.52252 36.7456 9.60964C36.6334 9.69675 36.5397 9.80547 36.4702 9.92938C36.4007 10.0533 36.3567 10.1899 36.3408 10.3311H35.4648C35.4799 10.0748 35.5476 9.82431 35.6636 9.5953C35.7797 9.36629 35.9417 9.16362 36.1394 8.99992C36.3372 8.83621 36.5666 8.71498 36.8133 8.64375C37.0599 8.57253 37.3186 8.55285 37.5732 8.58594C38.748 8.58594 39.5752 9.24365 39.5752 10.1904C39.578 10.5076 39.4719 10.8161 39.2746 11.0645C39.0773 11.3129 38.8008 11.4861 38.4912 11.5552V11.6255C38.8582 11.6418 39.2038 11.8027 39.4525 12.0731C39.7012 12.3434 39.8328 12.7013 39.8184 13.0684C39.7912 13.3323 39.7116 13.5881 39.5843 13.8208C39.457 14.0536 39.2845 14.2585 39.077 14.4238C38.8694 14.589 38.631 14.7111 38.3756 14.783C38.1202 14.8548 37.8531 14.875 37.5898 14.8423C37.326 14.8783 37.0577 14.8607 36.8008 14.7908C36.5439 14.7208 36.3037 14.5999 36.0946 14.4351C35.8854 14.2703 35.7116 14.0651 35.5834 13.8317C35.4553 13.5984 35.3754 13.3416 35.3486 13.0767H36.2383C36.292 13.6475 36.8164 14.0157 37.5898 14.0157C38.3633 14.0157 38.8682 13.6021 38.8682 13.0191C38.8682 12.4278 38.3926 12.0635 37.5615 12.0635H36.7383V11.2534Z" fill="#4C82EF"/>
<path d="M40.8291 13.4243C40.8291 12.6138 41.4336 12.1465 42.5039 12.0801L43.7236 12.0098V11.6211C43.7236 11.1455 43.4102 10.877 42.8018 10.877C42.3057 10.877 41.9629 11.0591 41.8633 11.3775H41.0029C41.0937 10.604 41.8223 10.1079 42.8438 10.1079C43.9727 10.1079 44.6094 10.6699 44.6094 11.6211V14.6978H43.7529V14.065H43.6826C43.5399 14.2919 43.3395 14.477 43.1019 14.6012C42.8643 14.7254 42.5979 14.7843 42.3301 14.772C42.141 14.7916 41.95 14.7715 41.7692 14.7128C41.5885 14.6541 41.422 14.5581 41.2806 14.4312C41.1392 14.3042 41.0259 14.149 40.9482 13.9756C40.8704 13.8022 40.8298 13.6144 40.8291 13.4243ZM43.7236 13.0396V12.6631L42.624 12.7334C42.0039 12.7749 41.7226 12.9858 41.7226 13.3828C41.7226 13.7881 42.0742 14.0239 42.5576 14.0239C42.6993 14.0383 42.8423 14.024 42.9784 13.9819C43.1144 13.9398 43.2405 13.8708 43.3493 13.7789C43.4581 13.6871 43.5473 13.5743 43.6116 13.4473C43.6759 13.3203 43.714 13.1816 43.7236 13.0396Z" fill="#4C82EF"/>
<path d="M46.9678 10.9429V14.6978H46.0791V10.1948H49.044V10.9428L46.9678 10.9429Z" fill="#4C82EF"/>
<path d="M54.4297 12.4443C54.4297 13.875 53.7061 14.772 52.5693 14.772C52.2903 14.791 52.0116 14.73 51.7661 14.596C51.5206 14.462 51.3185 14.2606 51.1836 14.0156H51.1133V16.1948H50.2246V10.1948H51.0801V10.939H51.1465C51.2838 10.6854 51.4886 10.4748 51.7381 10.3303C51.9877 10.1858 52.2723 10.1131 52.5606 10.1201C53.7061 10.1201 54.4297 11.0132 54.4297 12.4443ZM53.5156 12.4443C53.5156 11.4932 53.0654 10.9185 52.3125 10.9185C51.5645 10.9185 51.0967 11.5054 51.0967 12.4482C51.0967 13.3867 51.5645 13.9741 52.3086 13.9741C53.0654 13.9741 53.5156 13.3994 53.5156 12.4443Z" fill="#4C82EF"/>
<path d="M55.6133 16.3106V15.5454C55.7095 15.5576 55.8064 15.5632 55.9033 15.562C56.0927 15.576 56.2805 15.5197 56.4308 15.4037C56.5811 15.2877 56.6833 15.1203 56.7178 14.9336L56.7842 14.7144L55.1543 10.1948H56.1221L57.251 13.7715H57.3213L58.4463 10.1948H59.3887L57.71 14.8838C57.3252 15.9795 56.8995 16.3311 55.9815 16.3311C55.9073 16.3311 55.6963 16.3228 55.6133 16.3106Z" fill="#4C82EF"/>
<path d="M60.0811 13.4199H60.9658C61.0527 13.8169 61.4248 14.0239 61.9453 14.0239C62.5371 14.0239 62.9004 13.7632 62.9004 13.3579C62.9004 12.9238 62.5742 12.7168 61.9453 12.7168H61.2715V12.0264H61.9336C62.4707 12.0264 62.7441 11.8198 62.7441 11.4434C62.7441 11.1128 62.4795 10.8604 61.9336 10.8604C61.4365 10.8604 61.0732 11.0713 61.0156 11.4268H60.1592C60.2232 11.0183 60.445 10.6513 60.7768 10.4047C61.1086 10.158 61.524 10.0515 61.9336 10.1079C63.0039 10.1079 63.6162 10.5918 63.6162 11.3526C63.6212 11.5644 63.5533 11.7716 63.4239 11.9394C63.2945 12.1072 63.1114 12.2254 62.9053 12.2744V12.3448C63.1507 12.3764 63.376 12.4971 63.5384 12.6838C63.7007 12.8706 63.7889 13.1105 63.7861 13.3579C63.7861 14.2139 63.0576 14.7803 61.9453 14.7803C60.9619 14.7803 60.1631 14.3296 60.0811 13.4199Z" fill="#4C82EF"/>
<path d="M65.0659 14.6978V10.1948H65.9468V13.292H66.0171L68.0923 10.1948H68.9731V14.6978H68.0923V11.584H68.0259L65.9468 14.6978L65.0659 14.6978Z" fill="#4C82EF"/>
<path d="M73.8257 10.9429H72.4077V14.6978H71.5181V10.9429H70.1001V10.1949H73.8257V10.9429Z" fill="#4C82EF"/>
<path d="M78.613 13.4819C78.4919 13.8934 78.23 14.2493 77.8732 14.4875C77.5164 14.7256 77.0873 14.8308 76.6608 14.7847C76.3641 14.7925 76.0693 14.7357 75.7968 14.6181C75.5243 14.5006 75.2807 14.3252 75.0827 14.104C74.8848 13.8829 74.7374 13.6213 74.6507 13.3375C74.564 13.0537 74.5402 12.7544 74.5807 12.4604C74.5412 12.1655 74.5655 11.8656 74.652 11.5809C74.7385 11.2963 74.8851 11.0335 75.082 10.8104C75.2789 10.5874 75.5214 10.4092 75.7931 10.288C76.0648 10.1668 76.3594 10.1054 76.6569 10.1079C77.9098 10.1079 78.6667 10.9639 78.6667 12.3779V12.688H75.487V12.7378C75.4729 12.9031 75.4936 13.0695 75.5476 13.2263C75.6017 13.3831 75.688 13.5269 75.8009 13.6484C75.9138 13.7699 76.0509 13.8664 76.2034 13.9317C76.3559 13.9971 76.5203 14.0298 76.6862 14.0278C76.8986 14.0532 77.1138 14.0149 77.3044 13.9177C77.495 13.8204 77.6524 13.6688 77.7565 13.4819L78.613 13.4819ZM75.487 12.0308H77.7604C77.7716 11.8797 77.7511 11.728 77.7002 11.5853C77.6494 11.4426 77.5692 11.3122 77.4649 11.2023C77.3606 11.0925 77.2345 11.0057 77.0947 10.9474C76.9549 10.8892 76.8044 10.8609 76.653 10.8643C76.4992 10.8622 76.3466 10.8909 76.2042 10.9488C76.0617 11.0067 75.9324 11.0925 75.8237 11.2013C75.715 11.31 75.6292 11.4395 75.5713 11.5819C75.5135 11.7244 75.4848 11.877 75.487 12.0308Z" fill="#4C82EF"/>
<path d="M82.3804 10.1948H84.4106C85.2915 10.1948 85.8081 10.6411 85.8081 11.3398C85.8095 11.5615 85.7347 11.777 85.5962 11.9501C85.4577 12.1233 85.264 12.2436 85.0474 12.291V12.3613C85.3103 12.3779 85.5569 12.4949 85.7361 12.6881C85.9153 12.8813 86.0134 13.1359 86.0103 13.3994C86.0103 14.185 85.4194 14.6977 84.4312 14.6977H82.3804V10.1948ZM83.2612 10.877V12.043H84.1421C84.6792 12.043 84.936 11.8364 84.936 11.4556C84.936 11.1045 84.7124 10.8769 84.2407 10.8769L83.2612 10.877ZM83.2612 12.6963V14.0156H84.315C84.8404 14.0156 85.1216 13.7837 85.1216 13.3579C85.1216 12.9072 84.8033 12.6963 84.2036 12.6963L83.2612 12.6963Z" fill="#4C82EF"/>
</g>
<defs>
<clipPath id="clip0_1207_1121">
<rect width="119.664" height="40" fill="white"/>
</clipPath>
</defs>
</svg>
