<svg width="60" height="60" viewBox="0 0 60 60" fill="none" xmlns="http://www.w3.org/2000/svg">
<rect x="2.5" y="2.5" width="55" height="55" rx="27.5" fill="#0A0A0A"/>
<rect x="2.5" y="2.5" width="55" height="55" rx="27.5" stroke="white" stroke-width="5"/>
<path d="M18.76 10.4016H41.24C45.8563 10.4016 49.5984 14.1437 49.5984 18.76V41.24C49.5984 45.8563 45.8563 49.5984 41.24 49.5984H18.76C14.1437 49.5984 10.4016 45.8563 10.4016 41.24V18.76C10.4016 14.1437 14.1437 10.4016 18.76 10.4016Z" fill="#0A0A0A" stroke="#0A0A0A" stroke-width="0.803232"/>
<path d="M36.3118 40.1121C35.1031 41.2838 33.7835 41.0988 32.5131 40.5438C31.1688 39.9764 29.9355 39.9518 28.5171 40.5438C26.7411 41.3084 25.8038 41.0864 24.7431 40.1121C18.7245 33.9084 19.6125 24.4611 26.4451 24.1158C28.1101 24.2021 29.2695 25.0284 30.2438 25.1024C31.6991 24.8064 33.0928 23.9554 34.6468 24.0664C36.5091 24.2144 37.9151 24.9544 38.8401 26.2864C34.9921 28.5928 35.9048 33.6618 39.4321 35.0801C38.7291 36.9301 37.8165 38.7678 36.2995 40.1244L36.3118 40.1121ZM30.1205 24.0418C29.9355 21.2914 32.1678 19.0221 34.7331 18.8001C35.0908 21.9821 31.8471 24.3501 30.1205 24.0418Z" fill="white"/>
</svg>
