<svg width="60" height="60" viewBox="0 0 60 60" fill="none" xmlns="http://www.w3.org/2000/svg">
<rect x="2.5" y="2.5" width="55" height="55" rx="27.5" fill="white"/>
<rect x="2.5" y="2.5" width="55" height="55" rx="27.5" stroke="white" stroke-width="5"/>
<path d="M18.76 10H41.24C46.0781 10 50 13.9219 50 18.76V41.24C50 46.0781 46.0781 50 41.24 50H18.76C13.9219 50 10 46.0781 10 41.24V18.76C10 13.9219 13.9219 10 18.76 10Z" fill="white"/>
<g clip-path="url(#clip0_1206_821)">
<path d="M29.3146 29.3896L18.5762 40.9004C18.6968 41.3377 18.9135 41.7409 19.2097 42.0794C19.506 42.4178 19.8739 42.6824 20.2855 42.853C20.697 43.0237 21.1412 43.0958 21.5842 43.0638C22.0271 43.0319 22.4571 42.8967 22.8412 42.6687L34.9239 35.6281L29.3146 29.3896Z" fill="#EA4335"/>
<path d="M40.1737 27.433L34.9488 24.371L29.0674 29.6514L34.9727 35.6115L40.1579 32.5823C40.6172 32.3362 41.002 31.9662 41.2704 31.5124C41.5389 31.0585 41.6808 30.5381 41.6808 30.0076C41.6808 29.4771 41.5389 28.9567 41.2704 28.5029C41.002 28.049 40.6172 27.679 40.1579 27.4329H40.1739L40.1737 27.433Z" fill="#FBBC04"/>
<path d="M18.5766 19.0578C18.5117 19.3033 18.4793 19.5567 18.4805 19.811V40.1472C18.4812 40.4014 18.5135 40.6545 18.5766 40.9004L29.6831 29.6844L18.5766 19.0578Z" fill="#4C82EF"/>
<path d="M29.3946 29.9791L34.9479 24.3711L22.8812 17.2976C22.4272 17.0256 21.9109 16.8815 21.3847 16.8801C20.0791 16.8775 18.9312 17.7641 18.5762 19.0496L29.3946 29.9791Z" fill="#34A853"/>
</g>
<defs>
<clipPath id="clip0_1206_821">
<rect width="23.2" height="26.24" fill="white" transform="translate(18.4805 16.8802)"/>
</clipPath>
</defs>
</svg>
