<svg width="135" height="40" viewBox="0 0 135 40" fill="none" xmlns="http://www.w3.org/2000/svg">
<rect x="0.5" y="0.5" width="134" height="39" rx="4.5" fill="white"/>
<rect x="0.5" y="0.5" width="134" height="39" rx="4.5" stroke="#4C82EF"/>
<path d="M68.136 21.7511C65.784 21.7511 63.867 23.5401 63.867 26.0041C63.867 28.4531 65.784 30.2571 68.136 30.2571C70.489 30.2571 72.406 28.4531 72.406 26.0041C72.405 23.5401 70.488 21.7511 68.136 21.7511ZM68.136 28.5831C66.847 28.5831 65.736 27.5201 65.736 26.0051C65.736 24.4741 66.848 23.4271 68.136 23.4271C69.425 23.4271 70.536 24.4741 70.536 26.0051C70.536 27.5191 69.425 28.5831 68.136 28.5831ZM58.822 21.7511C56.47 21.7511 54.553 23.5401 54.553 26.0041C54.553 28.4531 56.47 30.2571 58.822 30.2571C61.175 30.2571 63.092 28.4531 63.092 26.0041C63.092 23.5401 61.175 21.7511 58.822 21.7511ZM58.822 28.5831C57.533 28.5831 56.422 27.5201 56.422 26.0051C56.422 24.4741 57.534 23.4271 58.822 23.4271C60.111 23.4271 61.222 24.4741 61.222 26.0051C61.223 27.5191 60.111 28.5831 58.822 28.5831ZM47.744 23.0571V24.8611H52.062C51.933 25.8761 51.595 26.6171 51.079 27.1321C50.451 27.7601 49.468 28.4531 47.744 28.4531C45.086 28.4531 43.008 26.3101 43.008 23.6521C43.008 20.9941 45.086 18.8511 47.744 18.8511C49.178 18.8511 50.225 19.4151 50.998 20.1401L52.271 18.8671C51.191 17.8361 49.758 17.0471 47.744 17.0471C44.103 17.0471 41.042 20.0111 41.042 23.6521C41.042 27.2931 44.103 30.2571 47.744 30.2571C49.709 30.2571 51.192 29.6121 52.351 28.4041C53.543 27.2121 53.914 25.5361 53.914 24.1831C53.914 23.7651 53.882 23.3781 53.817 23.0561H47.744V23.0571ZM93.052 24.4581C92.698 23.5081 91.618 21.7511 89.411 21.7511C87.22 21.7511 85.399 23.4751 85.399 26.0041C85.399 28.3881 87.204 30.2571 89.62 30.2571C91.569 30.2571 92.697 29.0651 93.165 28.3721L91.715 27.4051C91.232 28.1141 90.571 28.5811 89.62 28.5811C88.67 28.5811 87.993 28.1461 87.558 27.2921L93.245 24.9401L93.052 24.4581ZM87.252 25.8761C87.204 24.2321 88.525 23.3951 89.476 23.3951C90.217 23.3951 90.845 23.7661 91.055 24.2971L87.252 25.8761ZM82.629 30.0001H84.497V17.4991H82.629V30.0001ZM79.567 22.7021H79.503C79.084 22.2021 78.278 21.7511 77.264 21.7511C75.137 21.7511 73.188 23.6201 73.188 26.0211C73.188 28.4051 75.137 30.2581 77.264 30.2581C78.279 30.2581 79.084 29.8071 79.503 29.2921H79.567V29.9041C79.567 31.5311 78.697 32.4011 77.296 32.4011C76.152 32.4011 75.443 31.5801 75.153 30.8871L73.526 31.5641C73.993 32.6911 75.233 34.0771 77.296 34.0771C79.487 34.0771 81.34 32.7881 81.34 29.6461V22.0101H79.568V22.7021H79.567ZM77.425 28.5831C76.136 28.5831 75.057 27.5031 75.057 26.0211C75.057 24.5221 76.136 23.4271 77.425 23.4271C78.697 23.4271 79.696 24.5221 79.696 26.0211C79.696 27.5031 78.697 28.5831 77.425 28.5831ZM101.806 17.4991H97.335V30.0001H99.2V25.2641H101.805C103.873 25.2641 105.907 23.7671 105.907 21.3821C105.907 18.9971 103.874 17.4991 101.806 17.4991ZM101.854 23.5241H99.2V19.2391H101.854C103.249 19.2391 104.041 20.3941 104.041 21.3821C104.041 22.3501 103.249 23.5241 101.854 23.5241ZM113.386 21.7291C112.035 21.7291 110.636 22.3241 110.057 23.6431L111.713 24.3341C112.067 23.6431 112.727 23.4171 113.418 23.4171C114.383 23.4171 115.364 23.9961 115.38 25.0251V25.1541C115.042 24.9611 114.318 24.6721 113.434 24.6721C111.649 24.6721 109.831 25.6531 109.831 27.4861C109.831 29.1591 111.295 30.2361 112.935 30.2361C114.189 30.2361 114.881 29.6731 115.315 29.0131H115.379V29.9781H117.181V25.1851C117.182 22.9671 115.524 21.7291 113.386 21.7291ZM113.16 28.5801C112.55 28.5801 111.697 28.2741 111.697 27.5181C111.697 26.5531 112.759 26.1831 113.676 26.1831C114.495 26.1831 114.882 26.3601 115.38 26.6011C115.235 27.7601 114.238 28.5801 113.16 28.5801ZM123.743 22.0021L121.604 27.4221H121.54L119.32 22.0021H117.31L120.639 29.5771L118.741 33.7911H120.687L125.818 22.0021H123.743ZM106.937 30.0001H108.802V17.4991H106.937V30.0001Z" fill="#4C82EF"/>
<path fill-rule="evenodd" clip-rule="evenodd" d="M25.855 14.2324L14.3335 7.55066C13.8984 7.29006 13.3906 7.13966 12.8472 7.13966C11.726 7.13966 10.74 7.81894 10.2671 8.76853L10.3537 8.8551L20.7937 19.2928L25.855 14.2324ZM9.97319 9.88871C9.97121 9.93104 9.97021 9.97356 9.97021 10.0162V29.9838C9.97021 30.0265 9.97121 30.069 9.97319 30.1112L20.0865 19.9999L9.97319 9.88871ZM10.2672 31.2314C10.7401 32.181 11.7262 32.8603 12.8472 32.8603C13.3789 32.8603 13.8781 32.7166 14.3062 32.4642L14.3402 32.4443L25.8749 25.787L20.7937 20.7069L10.3537 31.1449L10.2672 31.2314ZM26.7716 25.2694L31.4687 22.5584C32.371 22.0713 32.9835 21.1201 32.9835 20.0232C32.9835 18.9342 32.3792 17.9877 31.4859 17.499L31.4757 17.492L26.7502 14.7516L21.5009 19.9999L26.7716 25.2694Z" fill="#4C82EF"/>
<path d="M43.1036 12.8665C42.6072 12.5823 42.2168 12.1906 41.9325 11.6911C41.6479 11.1919 41.5059 10.6406 41.5059 10.0365C41.5059 9.43314 41.6479 8.88161 41.9325 8.38257C42.2168 7.88333 42.6072 7.49138 43.1036 7.20694C43.5999 6.92249 44.1497 6.78027 44.7535 6.78027C45.6882 6.78027 46.4571 7.11972 47.0609 7.79904L46.3906 8.45201C46.1758 8.19664 45.9363 8.00527 45.6721 7.87748C45.408 7.74968 45.1047 7.68568 44.7623 7.68568C44.3386 7.68568 43.9525 7.78294 43.6043 7.97745C43.256 8.17217 42.9802 8.44762 42.7771 8.80464C42.5738 9.16166 42.4723 9.57243 42.4723 10.0365C42.4723 10.5011 42.5738 10.9118 42.7771 11.2688C42.9802 11.6257 43.256 11.9017 43.6043 12.0958C43.9525 12.2905 44.3386 12.3878 44.7623 12.3878C45.4705 12.3878 46.0653 12.0946 46.5472 11.5083L47.2351 12.1701C46.9333 12.5242 46.5702 12.8 46.1467 12.9973C45.723 13.1943 45.2586 13.2932 44.7535 13.2932C44.1497 13.2932 43.5999 13.151 43.1036 12.8665Z" fill="#4C82EF"/>
<path d="M48.3062 6.91956H49.2641V9.94095H49.3161L51.7979 6.91956H52.9995V6.97185L50.3698 10.0888L53.1388 13.1016V13.1539H51.8849L49.3161 10.298H49.2641V13.1539H48.3062V6.91956Z" fill="#4C82EF"/>
<path d="M57.5969 10.6638L56.9004 8.75235L56.6653 8.03852H56.6131L56.378 8.75235L55.6815 10.6638H57.5969ZM56.0906 6.91956H57.179L59.5386 13.1539H58.4852L57.9104 11.5518H55.368L54.7932 13.1539H53.7397L56.0906 6.91956Z" fill="#4C82EF"/>
<path d="M63.1431 10.3764C62.7541 10.7188 62.2751 10.8901 61.7064 10.8901C61.3289 10.8901 60.988 10.8133 60.6833 10.6592C60.3785 10.5057 60.1391 10.2835 59.9648 9.99324C59.7906 9.70293 59.7036 9.36056 59.7036 8.96589V6.91956H60.6701V8.80045C60.6701 9.17776 60.7805 9.46952 61.0012 9.67533C61.2216 9.88134 61.5176 9.98466 61.8892 9.98466C62.3943 9.98466 62.8122 9.78722 63.1431 9.39234V6.91956H64.0922V13.1539H63.1431V10.3764Z" fill="#4C82EF"/>
<path d="M68.7942 10.6638L68.0977 8.75235L67.8626 8.03852H67.8103L67.5752 8.75235L66.8788 10.6638H68.7942ZM67.2879 6.91956H68.3763L70.7359 13.1539H69.6824L69.1077 11.5518H66.5652L65.9905 13.1539H64.937L67.2879 6.91956Z" fill="#4C82EF"/>
<path d="M72.3551 7.82518H70.605V6.91956H75.0544V7.82518H73.3131V13.1539H72.3551V7.82518Z" fill="#4C82EF"/>
<path d="M78.3982 12.2571C78.6247 12.2571 78.8249 12.2048 78.9991 12.1004C79.1733 11.9959 79.3068 11.858 79.3996 11.6867C79.4925 11.5156 79.5389 11.3341 79.5389 11.1425C79.5389 10.9511 79.4925 10.7698 79.3996 10.5983C79.3068 10.4272 79.1733 10.2879 78.9991 10.1804C78.8249 10.0729 78.6247 10.0194 78.3982 10.0194H77.0053V12.2571H78.3982ZM76.0474 6.91956H77.0053V9.1399H78.3286C78.7176 9.1399 79.0775 9.21959 79.4084 9.37938C79.7393 9.53917 80.0032 9.77112 80.2007 10.0758C80.3981 10.3806 80.4966 10.7361 80.4966 11.1425C80.4966 11.5489 80.3981 11.9045 80.2007 12.2092C80.0032 12.5139 79.7393 12.7477 79.4084 12.91C79.0775 13.0726 78.7176 13.1539 78.3286 13.1539H76.0474V6.91956Z" fill="#4C82EF"/>
<path d="M83.5786 6.91956H84.5275V10.3676L84.4754 11.5692H84.5275L87.3226 6.91956H88.411V13.1539H87.4619V9.61865L87.5142 8.41729H87.4619L84.6233 13.1539H83.5786V6.91956Z" fill="#4C82EF"/>
<path d="M90.2874 12.8927C89.8956 12.6256 89.6271 12.231 89.4819 11.7085L90.3612 11.3603C90.4367 11.6853 90.5833 11.9407 90.801 12.1266C91.0188 12.3123 91.2758 12.4052 91.5718 12.4052C91.8909 12.4052 92.1639 12.305 92.3902 12.1046C92.6167 11.9045 92.7298 11.6564 92.7298 11.3603C92.7298 11.1687 92.6744 10.9932 92.5644 10.8334C92.454 10.6738 92.3032 10.5477 92.1116 10.4548C91.92 10.362 91.7111 10.3156 91.4848 10.3156H90.9709V9.47937H91.4325C91.746 9.47937 92.007 9.39383 92.2162 9.22254C92.4251 9.05145 92.5295 8.82076 92.5295 8.53046C92.5295 8.27509 92.4322 8.06322 92.2377 7.89464C92.0432 7.72648 91.8008 7.6422 91.5109 7.6422C91.2497 7.6422 91.0288 7.72063 90.8489 7.87749C90.6689 8.03394 90.5442 8.21987 90.4746 8.43446L89.6298 8.08622C89.7517 7.74405 89.9739 7.44078 90.2962 7.17642C90.6183 6.91226 91.0259 6.78029 91.5195 6.78029C91.8966 6.78029 92.2321 6.85433 92.5251 7.00241C92.8183 7.15028 93.0475 7.35357 93.213 7.61187C93.3784 7.87017 93.4612 8.16194 93.4612 8.48675C93.4612 9.09056 93.1969 9.53752 92.6688 9.82782V9.88011C92.9649 10.0135 93.2056 10.2081 93.3916 10.4634C93.5771 10.7188 93.6702 11.0294 93.6702 11.3952C93.6702 11.7493 93.5786 12.0714 93.3958 12.3617C93.213 12.6518 92.9618 12.8795 92.6428 13.045C92.3232 13.2104 91.9662 13.2932 91.5718 13.2932C91.1072 13.2932 90.6791 13.1596 90.2874 12.8927Z" fill="#4C82EF"/>
</svg>
