<svg width="121" height="40" viewBox="0 0 121 40" fill="none" xmlns="http://www.w3.org/2000/svg">
<g clip-path="url(#clip0_1207_1101)">
<rect x="0.664062" width="120" height="40" rx="6" fill="white"/>
<path fill-rule="evenodd" clip-rule="evenodd" d="M115.612 0.769231H5.71668C3.43727 0.769231 1.43329 2.89151 1.43329 5.71431V34.2857C1.43329 37.1085 3.43727 39.2308 5.71668 39.2308H115.612C117.891 39.2308 119.895 37.1085 119.895 34.2857V5.71431C119.895 2.89151 117.891 0.769231 115.612 0.769231ZM5.71668 0C2.9262 0 0.664062 2.55837 0.664062 5.71431V34.2857C0.664062 37.4416 2.9262 40 5.71668 40H115.612C118.402 40 120.664 37.4416 120.664 34.2857V5.71431C120.664 2.55837 118.402 0 115.612 0H5.71668Z" fill="#4C82EF"/>
<path fill-rule="evenodd" clip-rule="evenodd" d="M22.5714 33.5712C16.3425 33.5712 13.228 33.5712 11.2929 31.6632C9.35791 29.7553 9.35791 26.6844 9.35791 20.5426V19.4569C9.35791 13.3151 9.35791 10.2443 11.2929 8.33628C13.228 6.42836 16.3425 6.42836 22.5714 6.42836H23.6725C29.9014 6.42836 33.0158 6.42836 34.9509 8.33628C36.8859 10.2443 36.8859 13.3151 36.8859 19.4569V20.5426C36.8859 26.6844 36.8859 29.7553 34.9509 31.6632C33.0158 33.5712 29.9014 33.5712 23.6725 33.5712H22.5714ZM28.7501 24.0112L30.6101 24.4694C31.4525 24.6769 32.2692 24.0519 32.2692 23.1997V14.3604C32.2692 13.6101 31.7492 12.9559 31.0075 12.7733L25.6727 11.4592C24.8302 11.2517 24.0135 11.8767 24.0135 12.729V14.3224L20.6522 13.4944C19.8098 13.287 18.9931 13.912 18.9931 14.7642V16.3576L15.6316 15.5297C14.7892 15.3221 13.9725 15.9471 13.9725 16.7994V25.6386C13.9725 26.3889 14.4925 27.0431 15.2342 27.2257L20.5691 28.5397C21.4114 28.7473 22.2282 28.1223 22.2282 27.2701V25.8004L22.2271 25.8002L22.2285 18.4437C22.2285 17.6981 21.7508 17.2657 21.5772 17.1332C21.5441 17.1079 21.535 17.0608 21.5587 17.0268C21.5821 16.9934 21.6242 16.9775 21.6637 16.9893C22.3665 17.1985 23.0391 17.9091 23.1063 18.8025L23.3384 25.5531C23.346 25.7748 23.4915 25.9671 23.7009 26.0394L25.5897 26.5046C26.4321 26.7121 27.2488 26.0871 27.2488 25.2349L27.2501 16.4094C27.2501 15.6637 26.7724 15.2314 26.5988 15.0989C26.5658 15.0736 26.5566 15.0265 26.5803 14.9925C26.6037 14.9591 26.6458 14.9432 26.6853 14.9549C27.3881 15.1642 28.0608 15.8747 28.1279 16.7682L28.3601 23.5182C28.368 23.7492 28.5261 23.9479 28.7501 24.0112Z" fill="#4C82EF"/>
<path d="M53.0081 31.4285H50.9045L47.5663 26.8343H45.8103V31.4285H44.0195V19.3428H48.3313C49.1658 19.3428 49.9135 19.5028 50.5741 19.8228C51.2348 20.1428 51.7448 20.5885 52.1041 21.16C52.475 21.72 52.6605 22.3657 52.6605 23.0971C52.6605 24.0114 52.3765 24.7943 51.8085 25.4457C51.2406 26.0857 50.4814 26.5085 49.5309 26.7143L53.0081 31.4285ZM45.8103 20.9714V25.2228H48.3313C49.0731 25.2228 49.6701 25.0285 50.1221 24.64C50.5857 24.24 50.8175 23.7257 50.8175 23.0971C50.8175 22.4685 50.5857 21.96 50.1221 21.5714C49.6701 21.1714 49.0731 20.9714 48.3313 20.9714H45.8103Z" fill="#4C82EF"/>
<path d="M57.7598 31.6C57.1223 31.6 56.5486 31.4457 56.0386 31.1371C55.5286 30.8172 55.1287 30.3828 54.8389 29.8343C54.5491 29.2743 54.4043 28.6457 54.4043 27.9485V22.5657H56.1081V27.8115C56.1081 28.4857 56.2994 29.0343 56.6818 29.4572C57.0644 29.88 57.557 30.0915 58.1597 30.0915C58.7856 30.0915 59.3071 29.8743 59.7244 29.44C60.1417 29.0057 60.3504 28.4628 60.3504 27.8115V22.5657H62.0542V31.4285H60.8371L60.4373 30.0915C60.1475 30.5715 59.765 30.9428 59.2898 31.2057C58.8261 31.4685 58.3161 31.6 57.7598 31.6Z" fill="#4C82EF"/>
<path d="M68.4065 31.6C67.2822 31.6 66.3027 31.3143 65.4682 30.7429C64.6453 30.16 64.0831 29.3715 63.7817 28.3772L65.503 28.1029C65.8391 28.7429 66.239 29.2172 66.7027 29.5257C67.1663 29.8229 67.7342 29.9715 68.4065 29.9715C69.0904 29.9715 69.6467 29.8229 70.0756 29.5257C70.5044 29.2172 70.7188 28.8 70.7188 28.2743C70.7188 27.8857 70.5971 27.56 70.3537 27.2972C70.1219 27.0343 69.8264 26.8229 69.467 26.6629C69.1077 26.5029 68.6383 26.3257 68.0587 26.1315C67.2822 25.88 66.6447 25.6286 66.1463 25.3772C65.6479 25.1257 65.2248 24.7715 64.8771 24.3143C64.541 23.8457 64.3729 23.2515 64.3729 22.5315C64.3729 21.8572 64.541 21.2686 64.8771 20.7657C65.2248 20.2515 65.7001 19.8572 66.3027 19.5829C66.9055 19.3086 67.5777 19.1715 68.3196 19.1715C69.3511 19.1715 70.2378 19.44 70.9797 19.9772C71.7214 20.5029 72.2488 21.2286 72.5618 22.1543L70.8754 22.4286C70.6435 21.9029 70.3132 21.5029 69.8843 21.2286C69.4554 20.9429 68.9513 20.8 68.3717 20.8C67.7458 20.8 67.2301 20.9486 66.8244 21.2457C66.4187 21.5315 66.2158 21.9257 66.2158 22.4286C66.2158 22.8057 66.3317 23.1257 66.5636 23.3886C66.807 23.6515 67.1025 23.8629 67.4503 24.0229C67.8096 24.1829 68.2848 24.3657 68.8759 24.5715C69.6293 24.8229 70.2552 25.08 70.7536 25.3429C71.2636 25.5943 71.6924 25.9543 72.0402 26.4229C72.3879 26.8915 72.5618 27.48 72.5618 28.1886C72.5618 28.8743 72.3764 29.4743 72.0054 29.9886C71.6461 30.5029 71.1477 30.9029 70.5102 31.1886C69.8843 31.4629 69.183 31.6 68.4065 31.6Z" fill="#4C82EF"/>
<path d="M79.7592 29.9543L79.603 31.4286H78.0207C77.0815 31.4286 76.3692 31.2 75.8823 30.7429C75.3953 30.2857 75.1515 29.6286 75.1515 28.7715V24.0572H73.6045V22.5657H75.1515L75.6215 19.9943H76.8553V22.5657H79.603V24.0572H76.8553V28.7715C76.8553 29.56 77.2438 29.9543 78.0207 29.9543H79.7592Z" fill="#4C82EF"/>
<path d="M85.4413 31.6C84.5251 31.6 83.7082 31.4057 82.9897 31.0172C82.2713 30.6285 81.709 30.0857 81.3028 29.3886C80.8974 28.6915 80.6943 27.8972 80.6943 27.0057C80.6943 26.1143 80.8974 25.32 81.3028 24.6229C81.709 23.9257 82.2713 23.3829 82.9897 22.9943C83.7082 22.5943 84.5251 22.3943 85.4413 22.3943C86.3566 22.3943 87.1736 22.5943 87.892 22.9943C88.6113 23.3829 89.1728 23.9257 89.5789 24.6229C89.9843 25.32 90.1874 26.1143 90.1874 27.0057C90.1874 27.8972 89.9843 28.6915 89.5789 29.3886C89.1728 30.0857 88.6113 30.6285 87.892 31.0172C87.1736 31.4057 86.3566 31.6 85.4413 31.6ZM85.4413 30.0572C86.322 30.0572 87.0343 29.7772 87.5797 29.2172C88.1359 28.6572 88.4143 27.92 88.4143 27.0057C88.4143 26.0915 88.1359 25.3543 87.5797 24.7943C87.0343 24.2229 86.322 23.9372 85.4413 23.9372C84.5597 23.9372 83.8474 24.2229 83.3028 24.7943C82.7574 25.3543 82.4851 26.0915 82.4851 27.0057C82.4851 27.9085 82.7574 28.6457 83.3028 29.2172C83.8474 29.7772 84.5597 30.0572 85.4413 30.0572Z" fill="#4C82EF"/>
<path d="M92.0142 31.4285V22.5657H93.2488L93.6142 23.8343C93.8803 23.3885 94.2111 23.0685 94.6049 22.8743C94.9988 22.6685 95.4688 22.5657 96.0134 22.5657H96.4303L96.5695 24.1772H95.5957C94.9703 24.1772 94.5003 24.3543 94.188 24.7085C93.8749 25.0628 93.718 25.5428 93.718 26.1485V31.4285H92.0142Z" fill="#4C82EF"/>
<path d="M106.31 26.9372C106.31 27.1657 106.305 27.3429 106.293 27.4685H98.8688C98.9619 28.2572 99.2749 28.8857 99.808 29.3543C100.341 29.8229 101.02 30.0572 101.842 30.0572C102.41 30.0572 102.914 29.9486 103.355 29.7315C103.806 29.5029 104.149 29.2057 104.38 28.84L105.98 29.0972C105.633 29.8972 105.07 30.5143 104.293 30.9486C103.529 31.3829 102.676 31.6 101.738 31.6C100.846 31.6 100.046 31.4057 99.3388 31.0172C98.6319 30.6172 98.0811 30.0685 97.6873 29.3715C97.2926 28.6743 97.0957 27.8857 97.0957 27.0057C97.0957 26.1143 97.2926 25.32 97.6873 24.6229C98.0811 23.9257 98.6257 23.3829 99.3211 22.9943C100.016 22.5943 100.81 22.3943 101.703 22.3943C102.584 22.3943 103.372 22.5943 104.067 22.9943C104.775 23.3829 105.325 23.9257 105.72 24.6229C106.113 25.3086 106.31 26.08 106.31 26.9372ZM101.703 23.8857C101.02 23.8857 100.428 24.0857 99.9296 24.4857C99.4426 24.8857 99.118 25.4229 98.9557 26.0972H104.45C104.3 25.4343 103.975 24.9029 103.476 24.5029C102.99 24.0915 102.399 23.8857 101.703 23.8857Z" fill="#4C82EF"/>
<path d="M46.5532 14.7076C45.944 14.7076 45.3963 14.5661 44.9101 14.283C44.424 13.9938 44.0425 13.5938 43.7655 13.083C43.4948 12.5722 43.3594 11.9969 43.3594 11.3569C43.3594 10.7169 43.4948 10.1446 43.7655 9.63994C44.0425 9.12917 44.4209 8.73224 44.9009 8.44917C45.3871 8.15994 45.9348 8.01532 46.544 8.01532C47.2025 8.01532 47.7871 8.18147 48.2978 8.51378C48.8148 8.83994 49.184 9.28301 49.4055 9.84301L48.464 9.9907C48.2917 9.64609 48.0363 9.3784 47.6978 9.18763C47.3655 8.9907 46.9901 8.89224 46.5717 8.89224C46.1409 8.89224 45.7563 8.99686 45.4178 9.20609C45.0855 9.41532 44.824 9.70763 44.6332 10.083C44.4486 10.4522 44.3563 10.8769 44.3563 11.3569C44.3563 11.843 44.4486 12.2738 44.6332 12.6492C44.824 13.0184 45.0886 13.3076 45.4271 13.5169C45.7655 13.7261 46.1532 13.8307 46.5901 13.8307C47.0209 13.8307 47.4025 13.7322 47.7348 13.5353C48.0732 13.3322 48.3317 13.0492 48.5101 12.6861L49.4517 12.8338C49.2178 13.4061 48.8394 13.8615 48.3163 14.1999C47.7932 14.5384 47.2055 14.7076 46.5532 14.7076Z" fill="#4C82EF"/>
<path d="M54.2745 14.6153H53.0837L51.3207 12.6399H51.0345V14.6153H50.1299V9.843H51.0345V11.7722H51.3114L53.0007 9.843H54.0899L52.0407 12.1507L54.2745 14.6153Z" fill="#4C82EF"/>
<path d="M56.4261 9.7507C57.0169 9.7507 57.4815 9.94455 57.82 10.3322C58.1646 10.7138 58.3369 11.2492 58.3369 11.9384V14.6153H57.6907L57.4784 13.8676C57.3246 14.1076 57.1184 14.3076 56.86 14.4676C56.6015 14.6276 56.2907 14.7076 55.9276 14.7076C55.6076 14.7076 55.3215 14.643 55.0692 14.5138C54.8169 14.3845 54.62 14.2061 54.4784 13.9784C54.3369 13.7445 54.2661 13.483 54.2661 13.1938C54.2661 12.7445 54.4446 12.3845 54.8015 12.1138C55.1584 11.843 55.6753 11.7076 56.3523 11.7076H57.4323C57.4076 11.3322 57.303 11.043 57.1184 10.8399C56.9338 10.6307 56.6877 10.5261 56.38 10.5261C56.1461 10.5261 55.94 10.5815 55.7615 10.6922C55.583 10.803 55.4477 10.9476 55.3553 11.1261L54.5153 10.9876C54.6384 10.6061 54.8753 10.3045 55.2261 10.083C55.5769 9.86147 55.9769 9.7507 56.4261 9.7507ZM56.1215 13.9415C56.5092 13.9415 56.823 13.8153 57.063 13.563C57.3092 13.3045 57.4323 12.9507 57.4323 12.5015V12.4461H56.38C55.58 12.4461 55.18 12.6861 55.18 13.1661C55.18 13.3999 55.2661 13.5876 55.4384 13.7292C55.6107 13.8707 55.8384 13.9415 56.1215 13.9415Z" fill="#4C82EF"/>
<path d="M61.8813 12.8799C61.7336 12.9476 61.5582 12.9999 61.3552 13.0368C61.1521 13.0738 60.9521 13.0922 60.7552 13.0922C60.1829 13.0922 59.7429 12.9322 59.4352 12.6122C59.1275 12.2922 58.9736 11.8399 58.9736 11.2553V9.843H59.8783V11.2553C59.8783 11.9384 60.2075 12.2799 60.8659 12.2799C61.2659 12.2799 61.6044 12.2092 61.8813 12.0676V9.843H62.7859V14.6153H61.8813V12.8799Z" fill="#4C82EF"/>
<path d="M65.7298 9.7507C66.3206 9.7507 66.7852 9.94455 67.1237 10.3322C67.4683 10.7138 67.6406 11.2492 67.6406 11.9384V14.6153H66.9944L66.7821 13.8676C66.6283 14.1076 66.4221 14.3076 66.1637 14.4676C65.9052 14.6276 65.5944 14.7076 65.2314 14.7076C64.9114 14.7076 64.6252 14.643 64.3729 14.5138C64.1206 14.3845 63.9237 14.2061 63.7821 13.9784C63.6406 13.7445 63.5698 13.483 63.5698 13.1938C63.5698 12.7445 63.7483 12.3845 64.1052 12.1138C64.4621 11.843 64.9791 11.7076 65.656 11.7076H66.736C66.7114 11.3322 66.6067 11.043 66.4221 10.8399C66.2375 10.6307 65.9914 10.5261 65.6837 10.5261C65.4498 10.5261 65.2437 10.5815 65.0652 10.6922C64.8867 10.803 64.7514 10.9476 64.6591 11.1261L63.8191 10.9876C63.9421 10.6061 64.1791 10.3045 64.5298 10.083C64.8806 9.86147 65.2806 9.7507 65.7298 9.7507ZM65.4252 13.9415C65.8129 13.9415 66.1267 13.8153 66.3667 13.563C66.6129 13.3045 66.736 12.9507 66.736 12.5015V12.4461H65.6837C64.8837 12.4461 64.4837 12.6861 64.4837 13.1661C64.4837 13.3999 64.5698 13.5876 64.7421 13.7292C64.9144 13.8707 65.1421 13.9415 65.4252 13.9415Z" fill="#4C82EF"/>
<path d="M69.985 14.6153H68.6465V9.84298H69.5234V13.5999H69.6619L71.5911 9.84298H72.9296V14.6153H72.0526V10.8676H71.9142L69.985 14.6153ZM70.7973 9.22451C70.3973 9.22451 70.0619 9.1199 69.7911 8.91067C69.5265 8.69528 69.3696 8.37528 69.3203 7.95067H70.0588C70.0896 8.14759 70.1665 8.29836 70.2896 8.40298C70.4188 8.50144 70.588 8.55067 70.7973 8.55067C71.0065 8.55067 71.1726 8.50144 71.2957 8.40298C71.4249 8.29836 71.5019 8.14759 71.5265 7.95067H72.2742C72.2188 8.37528 72.0557 8.69528 71.7849 8.91067C71.5203 9.1199 71.1911 9.22451 70.7973 9.22451Z" fill="#4C82EF"/>
<path d="M76.0739 14.6153H75.1692V10.6738H73.5171V9.843H77.7262V10.6738H76.0739V14.6153Z" fill="#4C82EF"/>
<path d="M82.7634 12.1969C82.7634 12.3199 82.7603 12.4153 82.7542 12.483H78.8126C78.8619 12.9076 79.028 13.2461 79.3111 13.4984C79.5942 13.7507 79.9542 13.8769 80.3911 13.8769C80.6926 13.8769 80.9603 13.8184 81.1942 13.7015C81.4342 13.5784 81.6157 13.4184 81.7388 13.2215L82.588 13.3599C82.4034 13.7907 82.1049 14.123 81.6926 14.3569C81.2865 14.5907 80.8342 14.7076 80.3357 14.7076C79.8619 14.7076 79.4372 14.603 79.0619 14.3938C78.6865 14.1784 78.3942 13.883 78.1849 13.5076C77.9757 13.1322 77.8711 12.7076 77.8711 12.2338C77.8711 11.7538 77.9757 11.3261 78.1849 10.9507C78.3942 10.5753 78.6834 10.283 79.0526 10.0738C79.4219 9.85839 79.8434 9.7507 80.3172 9.7507C80.7849 9.7507 81.2034 9.85839 81.5726 10.0738C81.948 10.283 82.2403 10.5753 82.4496 10.9507C82.6588 11.3199 82.7634 11.7353 82.7634 12.1969ZM80.3172 10.5538C79.9542 10.5538 79.6403 10.6615 79.3757 10.8769C79.1172 11.0922 78.9449 11.3815 78.8588 11.7445H81.7757C81.6957 11.3876 81.5234 11.1015 81.2588 10.8861C81.0003 10.6645 80.6865 10.5538 80.3172 10.5538Z" fill="#4C82EF"/>
<path d="M86.8243 14.6153H85.4858V9.843H86.3628V13.5999H86.5012L88.4305 9.843H89.7689V14.6153H88.892V10.8676H88.7535L86.8243 14.6153Z" fill="#4C82EF"/>
<path d="M93.431 12.1784C93.6833 12.2522 93.8926 12.3876 94.0587 12.5845C94.2249 12.7753 94.3079 13.0122 94.3079 13.2953C94.3079 13.5599 94.231 13.7999 94.0772 14.0153C93.9233 14.2245 93.7018 14.3938 93.4125 14.523C93.1295 14.6461 92.8002 14.7076 92.4249 14.7076C91.9202 14.7076 91.4864 14.5907 91.1233 14.3569C90.7602 14.1169 90.5202 13.7969 90.4033 13.3969L91.2433 13.2584C91.4464 13.7015 91.8372 13.923 92.4156 13.923C92.7356 13.923 92.9787 13.8645 93.1449 13.7476C93.3172 13.6245 93.4033 13.4553 93.4033 13.2399C93.4033 13.0492 93.3233 12.8953 93.1633 12.7784C93.0095 12.6615 92.7602 12.603 92.4156 12.603H91.7879V11.8092H92.4156C92.711 11.8092 92.9356 11.7538 93.0895 11.643C93.2495 11.5322 93.3295 11.3845 93.3295 11.1999C93.3295 11.003 93.2433 10.843 93.071 10.7199C92.9049 10.5969 92.6987 10.5353 92.4525 10.5353C92.2125 10.5353 91.9972 10.5938 91.8064 10.7107C91.6156 10.8276 91.471 10.9876 91.3725 11.1907L90.5326 11.043C90.6741 10.6307 90.9172 10.3138 91.2618 10.0922C91.6125 9.86455 92.0187 9.7507 92.4802 9.7507C92.8125 9.7507 93.111 9.80916 93.3756 9.92609C93.6464 10.043 93.8556 10.2061 94.0033 10.4153C94.1572 10.6245 94.2341 10.8584 94.2341 11.1169C94.2341 11.3815 94.1602 11.6061 94.0125 11.7907C93.8649 11.9753 93.671 12.1045 93.431 12.1784Z" fill="#4C82EF"/>
</g>
<defs>
<clipPath id="clip0_1207_1101">
<rect width="120" height="40" fill="white" transform="translate(0.664062)"/>
</clipPath>
</defs>
</svg>
